<svg xmlns="http://www.w3.org/2000/svg" xmlns:xlink="http://www.w3.org/1999/xlink" width="100.531" height="92.995" viewBox="0 0 100.531 92.995">
  <defs>
    <linearGradient id="linear-gradient" x1="10.118" y1="-25.319" x2="0.705" y2="-0.051" gradientUnits="objectBoundingBox">
      <stop offset="0" stop-color="#fff"/>
      <stop offset="1"/>
    </linearGradient>
    <linearGradient id="linear-gradient-2" x1="5.643" y1="-93.886" x2="-0.385" y2="16.744" xlink:href="#linear-gradient"/>
  </defs>
  <g id="Group_14098" data-name="Group 14098" transform="translate(-151 -2102)">
    <g id="Group_14047" data-name="Group 14047" transform="translate(-1106.635 1765.421)">
      <g id="Group_14041" data-name="Group 14041" transform="translate(1257.635 336.579)">
        <g id="Group_14038" data-name="Group 14038" transform="translate(0 1.12)">
          <path id="Path_27582" data-name="Path 27582" d="M1327.488,358.005a40.006,40.006,0,0,0-38.113-.2q-1.245.673-2.448,1.428a36.739,36.739,0,0,0-3.523,2.5,40.1,40.1,0,0,0-15.071,32.958c.027.571.055,1.142.109,1.714.027.34.068.694.109,1.034a3.745,3.745,0,0,0,.068.544,9.984,9.984,0,0,0,.149,1.088c.041.34.1.666.164,1.007a2.425,2.425,0,0,0,.081.435c.095.544.217,1.088.34,1.632.013.041.013.082.027.122a36.74,36.74,0,0,1-11.711-25.49,37.014,37.014,0,0,1,35.447-38.575c.531-.013,1.061-.027,1.591-.027a36.991,36.991,0,0,1,11.235,1.741c.449.136.884.286,1.319.463a6.957,6.957,0,0,1,.68.245c.652.245,1.305.517,1.945.816.422.191.844.4,1.265.6s.83.422,1.238.653q.96.509,1.878,1.1c.476.286.952.6,1.414.925a2.067,2.067,0,0,1,.177.122c.408.286.8.585,1.21.884.041.027.082.068.136.109.435.326.87.68,1.292,1.033a37.524,37.524,0,0,1,5.264,5.427c.3.381.6.775.884,1.17.34.448.653.9.953,1.36.027.041.054.082.068.108.3.449.585.9.857,1.361.068.095.122.2.19.313C1326.985,357.067,1327.243,357.529,1327.488,358.005Z" transform="translate(-1257.635 -338.173)" fill="#4d6c9c"/>
          <path id="Path_27583" data-name="Path 27583" d="M1363.59,371.07a37.882,37.882,0,0,1,1.306,4.216l.354.259Z" transform="translate(-1289.113 -347.946)" fill="#fff"/>
        </g>
        <g id="Group_14039" data-name="Group 14039" transform="translate(47.586)">
          <path id="Path_27584" data-name="Path 27584" d="M1376.082,391.237a36.944,36.944,0,0,1-31.013,19.4,7.589,7.589,0,0,1-.789.014c-.9.027-1.8.013-2.693-.027a34.975,34.975,0,0,1-3.564-.354c-.557-.082-1.116-.177-1.66-.286a3.532,3.532,0,0,1-.367-.068.013.013,0,0,0,.013-.014,40.155,40.155,0,0,0,19.832-25.68,39.916,39.916,0,0,0-.041-19.179,37.827,37.827,0,0,0-1.306-4.216c-.191-.531-.394-1.047-.626-1.551-.068-.19-.15-.368-.231-.558-.449-1.047-.953-2.054-1.5-3.046a7.45,7.45,0,0,0-.408-.721c-.259-.463-.531-.911-.816-1.36-.327-.544-.68-1.075-1.047-1.591-.394-.585-.816-1.156-1.252-1.714-.3-.381-.612-.762-.924-1.129q-.837-1-1.755-1.959c-.435-.462-.87-.9-1.333-1.333-.476-.462-.979-.912-1.483-1.347-.327-.285-.666-.571-1.006-.843-.014-.013-.027-.027-.041-.027-.286-.245-.585-.477-.884-.694a.73.73,0,0,0-.109-.082c-.367-.286-.735-.558-1.116-.816-.408-.3-.829-.586-1.265-.844a1.726,1.726,0,0,0-.286-.191c-.177-.122-.354-.231-.544-.34-.394-.258-.8-.49-1.211-.735a1.155,1.155,0,0,1-.176-.095c-.517-.286-1.048-.558-1.578-.83s-1.062-.517-1.6-.761c-.109-.055-.218-.1-.327-.15a37.581,37.581,0,0,1,8.978-1.5,37.029,37.029,0,0,1,34.127,54.626Z" transform="translate(-1327.605 -336.579)" fill="#73e2ff"/>
          <path id="Path_27585" data-name="Path 27585" d="M1326,441.722a3.94,3.94,0,0,1-.422-.177l-.245.109.693.231,2.857.911C1327.9,442.47,1326.939,442.13,1326,441.722Zm14.459,2.992c-.368,0-.721,0-1.088-.027-.884-.041-1.783-.095-2.666-.19a41.451,41.451,0,0,0,4.5.245C1340.949,444.742,1340.7,444.728,1340.459,444.714Zm0,0c-.368,0-.721,0-1.088-.027-.884-.041-1.783-.095-2.666-.19a41.451,41.451,0,0,0,4.5.245C1340.949,444.742,1340.7,444.728,1340.459,444.714ZM1326,441.722a3.94,3.94,0,0,1-.422-.177l-.245.109.693.231,2.857.911C1327.9,442.47,1326.939,442.13,1326,441.722Z" transform="translate(-1325.334 -367.763)" fill="#fff"/>
        </g>
        <g id="Group_14040" data-name="Group 14040" transform="translate(13.554 29.998)">
          <path id="Path_27586" data-name="Path 27586" d="M1347.784,420.319a37.048,37.048,0,0,1-70.838-13.547c-.027-.5-.027-1.021-.027-1.524q0-.836.041-1.673v-.19c.027-.422.054-.843.095-1.279,0-.054.014-.109.014-.176.027-.259.054-.517.082-.775.041-.449.109-.9.177-1.347.082-.585.191-1.17.3-1.741,0-.027.014-.068.014-.095.109-.544.231-1.088.381-1.632a2.143,2.143,0,0,1,.1-.4c.109-.448.245-.911.38-1.36a33.362,33.362,0,0,1,1.2-3.373c.027-.068.041-.122.068-.176.2-.5.422-.979.653-1.469q.305-.674.653-1.347c.313-.612.653-1.224,1.007-1.823a33.351,33.351,0,0,1,1.9-2.9,32.818,32.818,0,0,1,2.462-3.06c.327-.368.667-.735,1.007-1.088a.667.667,0,0,0,.1-.1A40.048,40.048,0,0,0,1311.2,423.04a34.4,34.4,0,0,0,3.305,1.251c.068.027.136.042.2.068l.231.068a38.8,38.8,0,0,0,4.244,1.075c.34.067.666.122.992.176.218.041.436.082.653.109.49.082.993.15,1.5.2.884.1,1.782.15,2.666.19.367.027.721.027,1.088.027.245.013.489.027.748.027.571,0,1.142-.014,1.714-.027.435-.013.857-.041,1.292-.082.313-.013.64-.041.953-.081.2-.014.394-.041.585-.055.259-.027.517-.067.762-.109q.57-.061,1.142-.163c.517-.082,1.034-.177,1.551-.272a.175.175,0,0,1,.082-.013c.476-.109.966-.218,1.442-.326s.953-.245,1.415-.368c.095-.027.176-.054.272-.082.34-.1.68-.2,1.02-.313.6-.191,1.184-.394,1.769-.612.381-.136.748-.285,1.115-.448.462-.177.924-.368,1.373-.586.775-.339,1.523-.721,2.272-1.115S1347.063,420.768,1347.784,420.319Z" transform="translate(-1276.918 -379.255)" fill="#cdbd96"/>
          <path id="Path_27587" data-name="Path 27587" d="M1337.286,440.887a.013.013,0,0,1-.014.014,3.534,3.534,0,0,0,.367.068C1337.518,440.942,1337.409,440.914,1337.286,440.887Z" transform="translate(-1294.849 -397.565)" fill="#fff"/>
        </g>
        <path id="Path_27588" data-name="Path 27588" d="M1326.282,441.8c.938.408,1.9.748,2.883,1.074l-2.856-.911A.69.69,0,0,1,1326.282,441.8Z" transform="translate(-1278.029 -367.838)" opacity="0.31" fill="url(#linear-gradient)" style="mix-blend-mode: multiply;isolation: isolate"/>
        <path id="Path_27589" data-name="Path 27589" d="M1345.265,445.962c.245.013.489.027.748.027a41.451,41.451,0,0,1-4.5-.245c.884.1,1.782.15,2.666.19C1344.544,445.962,1344.9,445.962,1345.265,445.962Z" transform="translate(-1282.554 -369.01)" opacity="0.31" fill="url(#linear-gradient-2)" style="mix-blend-mode: multiply;isolation: isolate"/>
      </g>
    </g>
    <path id="Icon_material-dashboard" data-name="Icon material-dashboard" d="M4.5,19.5h12V4.5H4.5Zm0,12h12v-9H4.5Zm15,0h12v-15h-12Zm0-27v9h12v-9Z" transform="translate(183.5 2127.5)" fill="#102441"/>
  </g>
</svg>
