<svg xmlns="http://www.w3.org/2000/svg" width="99.303" height="108.925" viewBox="0 0 99.303 108.925">
  <g id="Agriculture_and_health" data-name="Agriculture and health" transform="translate(-7.79 -3.64)">
    <path id="Path_90" data-name="Path 90" d="M105.011,80.523a5.634,5.634,0,0,0-2.788-.153c-2.553-6.423-9.563-18.585-26.231-20a6.454,6.454,0,0,1-1.176-.071,62.238,62.238,0,0,0,.553-6.234c.094-.459.87-3.858,5.305-12.092,30.725-8.928,24.7-36.83,24.7-37.112a1.172,1.172,0,0,1,0-.118,1.176,1.176,0,0,0-.082-.176,1.176,1.176,0,0,0-.2-.318.659.659,0,0,1,0-.094h0a1.353,1.353,0,0,0-.6-.365h0a1.623,1.623,0,0,0-.471-.118h-.118c-8.94-.553-19.409,5.47-24.832,14.351-4.564,7.422-4.94,15.633-1.106,22.691A84.031,84.031,0,0,0,73.6,49.868a17.645,17.645,0,0,0-3.447-3.105C61.253,15.932,33.3,21.931,33.022,21.99a1.576,1.576,0,0,0-.459.188l-.071.071a1.459,1.459,0,0,0-.306.294h0a.424.424,0,0,0,0,.106,1.635,1.635,0,0,0-.141.329,1.176,1.176,0,0,0,0,.2v.106c-.6,8.963,5.434,19.444,14.351,24.926a23.9,23.9,0,0,0,12.528,3.729,21.009,21.009,0,0,0,10.057-2.576c1.67,1.235,3.529,3.152,3.529,4.47a61,61,0,0,1-.576,6.328c-13.539.435-22.985,8.128-27.843,13.3C33.774,74.641,27.764,83.487,23.941,89.1c-.518.765-.988,1.47-1.447,2.094-4.164,5.8-14.3,18.88-14.4,19.021a1.459,1.459,0,0,0,1.176,2.353H36.892A1.47,1.47,0,0,0,38,112.071l7.234-8.152c3.929,1.47,17.139,6.211,21.95,5.646,5.246-.635,26.161-7.575,27.055-7.869a1.506,1.506,0,0,0,.647-.435c3.729-4.27,12.21-14.586,12.21-17.915A2.976,2.976,0,0,0,105.011,80.523Zm-2.141-72.2c.576,6.587-.235,22.714-20.185,29.878C87.566,29.295,94.354,17.485,102.87,8.322ZM81.579,19.567c4.235-6.893,11.763-11.857,18.75-12.81-8.775,9.61-15.739,21.82-20.644,30.8-3.223-7.611-.306-14.41,1.894-17.986ZM47.772,45.751c-7.14-4.388-12.233-12.245-12.939-19.515L66.04,47.5C58.324,50.927,51.384,47.975,47.772,45.751ZM37.374,24.39c6.952-.4,21.82,1.094,28.8,19.644ZM75.745,63.208c15.139,1.317,21.4,12.1,23.7,17.938-3.047,1.306-6.74,4.046-10.587,8.587-1.811.482-8.81,2.235-12.528,1.753A68.625,68.625,0,0,1,65.8,88.239c9.057-.176,12.622-3.011,13.986-5.693a6.128,6.128,0,0,0-.706-6.728c-1.317-1.317-4.152-1.294-9.787-1.247a123.393,123.393,0,0,1-19.5-1.023c-.482-.071-.953-.129-1.412-.165,5.529-5.046,14.868-11.175,27.361-10.128ZM92.918,99c-2.929.965-21.5,7.058-26.09,7.611-3.917.471-16.845-4.058-21.491-5.881a1.47,1.47,0,0,0-1.623.388l-7.446,8.516H12.248c3.141-4.082,9.528-12.433,12.633-16.75.471-.635.965-1.365,1.494-2.153,4.352-6.4,10.916-16.056,22.985-14.268a125.944,125.944,0,0,0,20,1.059c3.282,0,7.058,0,7.681.388a3.352,3.352,0,0,1,.118,3.329c-.859,1.741-4.576,5.552-20.55,3.447a1.47,1.47,0,0,0-.741,2.823c.623.259,15.386,6.27,20.162,6.893S89.8,92.544,90.142,92.438a1.365,1.365,0,0,0,.741-.482c5.187-6.34,9.893-8.7,12.351-8.81.623,0,.882.106.918.188-.082,1.682-5.846,9.4-11.234,15.715Z" fill="#00a89d"/>
  </g>
</svg>
