<svg xmlns="http://www.w3.org/2000/svg" width="85.224" height="83.804" viewBox="0 0 85.224 83.804">
  <path id="bees" d="M47.16,84.527a37.889,37.889,0,0,1-7.315-17.341,25.862,25.862,0,0,1-17.178.53c-8.628-2.767-10.26-9.651-4.854-16.45C24.167,43.28,35.3,39.322,45.151,38.22c-1.365-5.482,1.032-9.51,5.172-12.723A9.532,9.532,0,0,0,42.985,18.6a17.442,17.442,0,0,1-2.64-.455c-1.346-.521-1.412-2.912,1.346-2.762a12.209,12.209,0,0,1,11.353,8.769,17.129,17.129,0,0,1,8,0c1.637-5.346,6.162-8.206,11.616-8.8,2.724-.206,2.438,2.321,1.294,2.846a7.582,7.582,0,0,1-2.1.314c-3.756.389-7.4,3.222-8.075,7.048a11.177,11.177,0,0,1,5.632,9.4,26.427,26.427,0,0,1-.38,3.386l1.365.15A44.529,44.529,0,0,1,88.969,44.78c4.591,2.865,11.3,8.783,10.575,14.814-1.163,9.749-16.071,10.542-23.574,8.127a9.846,9.846,0,0,0-1.59-.553,38.318,38.318,0,0,1-5.435,14.725c-2.162,3.362-6.589,8.525-10.031,10.612a2.348,2.348,0,0,0-.324.188c-.159.178.075,4.352-.1,5.107a1.437,1.437,0,0,1-2.771-.023,9.114,9.114,0,0,1-.07-1.824l.023-3.095c-2.907-1.838-6.457-5.684-8.511-8.328Zm9.229-58.153c-5.21.549-9.294,4.783-8.68,10.138l.267,1.276a25.623,25.623,0,0,1,4.244.122,12.092,12.092,0,0,1,1.627.708,16.129,16.129,0,0,0,4.356.263,8.073,8.073,0,0,0,2.077-.117A11.332,11.332,0,0,1,62.3,37.92c1.168-.169,2.879.174,3.822-.047a8.9,8.9,0,0,0,.464-1.468c1.027-5.5-4.811-10.884-10.2-10.031ZM62.6,40.606a19.414,19.414,0,0,0,.45,4.127C64.942,55.7,69.875,65.559,82.527,66.12c3.9.174,8.521-.23,11.737-2.678,4.183-3.25,2.739-7.32-.2-10.907C87.967,45.1,76.872,41.726,67.7,40.84Zm-13.628.131c-9.857.53-21.3,3.606-28.052,11.109-4.206,4.675-5.365,9.552,1.191,12.731,6.617,2.818,15.869,1.993,21.328-2.814,4.825-4.253,6.748-11,7.911-17.1a23.89,23.89,0,0,0,.544-3.9,17.362,17.362,0,0,0-2.921-.028Zm6.954.535-1.154.047a3.485,3.485,0,0,0-.192.849l-.858,5.876,4.7-.014,2.326-.019-.971-6.743ZM52.8,50.913l-1.9,5.139,10.767-.042,1.815-.136a26.246,26.246,0,0,1-1.829-4.938Zm12.192,8a65.231,65.231,0,0,1-8.558.431l-6.317-.169c-1.355-.1-.952.291-1.74,1.374a37.254,37.254,0,0,1-2.617,3.137l3.77.558a57.777,57.777,0,0,0,12.277.178l6.823-.952a17.841,17.841,0,0,1-3.437-4.38c-.052-.08-.1-.169-.2-.178Zm6.556,7.081C62.3,68.072,51.7,68.4,42.422,66.06l.68,3.92a5.305,5.305,0,0,0,2,.713A45.994,45.994,0,0,0,60.364,71.9l10.542-1.8a18.348,18.348,0,0,0,.755-4.108ZM44.415,73.816a37.122,37.122,0,0,0,1.7,3.5c.825,1.524.839,1.336,2.471,1.716a40.886,40.886,0,0,0,17.149.07l1.7-.361.825-1.623L69.85,73.98l-6.34.994c-7.043.835-12.244.2-19.095-1.158ZM49.236,82.3a45.289,45.289,0,0,0,7.991,7.752,26.129,26.129,0,0,0,4.567-3.845l3.283-3.784a42.451,42.451,0,0,1-15.84-.122Z" transform="translate(-14.526 -15.19)" fill="#00a89d" stroke="#00a89d" stroke-width="0.3"/>
</svg>
