<svg xmlns="http://www.w3.org/2000/svg" width="73.257" height="75.188" viewBox="0 0 73.257 75.188">
  <path id="Beetles" d="M71.513,43.618H66.77C59.656,34.8,58.107,34.8,57.351,34.8H54.617a4.593,4.593,0,0,0-2.671-4V29.618a10.789,10.789,0,0,0-.117-1.5h5.524A5.212,5.212,0,0,0,62.368,24.4a1.714,1.714,0,0,0,.048-.206L63.9,15.716h4.117a1.744,1.744,0,0,0,0-3.488H62.443a1.744,1.744,0,0,0-1.718,1.443L59,23.47a1.744,1.744,0,0,1-1.648,1.158H50.708a10.782,10.782,0,0,0-5.772-5.065,8.624,8.624,0,0,0-2.383-5.16l1.257-2.518c4.8-1.692,14.323-5.618,14.323-10.141a1.744,1.744,0,1,0-3.488,0c0,1.276-5.521,4.645-12.64,7.075a1.744,1.744,0,0,0-1,.872l-1.358,2.717a8.634,8.634,0,0,0-6.654,0L31.638,9.692a1.744,1.744,0,0,0-1-.872C23.524,6.389,18,3.02,18,1.744a1.744,1.744,0,1,0-3.488,0c0,4.523,9.52,8.449,14.321,10.141L30.093,14.4a8.619,8.619,0,0,0-2.383,5.161,10.779,10.779,0,0,0-5.772,5.064H15.9a1.744,1.744,0,0,1-1.648-1.158l-1.719-9.8a1.744,1.744,0,0,0-1.718-1.442H5.241a1.744,1.744,0,1,0,0,3.488H9.354l1.483,8.478a1.714,1.714,0,0,0,.048.206A5.212,5.212,0,0,0,15.9,28.117h4.918a10.79,10.79,0,0,0-.118,1.5V30.8a4.6,4.6,0,0,0-2.67,4H15.9c-.753,0-2.3,0-9.419,8.816H1.744a1.744,1.744,0,0,0,0,3.488H7.326a1.744,1.744,0,0,0,1.363-.656c2.762-3.458,6.334-7.443,7.49-8.16h1.831V48.547h-.358a5.211,5.211,0,0,0-5.015,3.717,1.757,1.757,0,0,0-.065.329L10.915,68.771,6.031,71.987A1.744,1.744,0,0,0,7.95,74.9l5.581-3.672a1.744,1.744,0,0,0,.775-1.279l1.721-16.805a1.739,1.739,0,0,1,1.63-1.109h.392a15.737,15.737,0,0,0,15.7,15.087h5.162a15.738,15.738,0,0,0,15.7-15.087h1a1.739,1.739,0,0,1,1.63,1.109L58.954,69.95a1.744,1.744,0,0,0,.775,1.279L65.311,74.9a1.744,1.744,0,0,0,1.919-2.914l-4.884-3.216L60.689,52.592a1.756,1.756,0,0,0-.065-.329,5.211,5.211,0,0,0-5.015-3.717h-.974V38.291h2.442c1.157.717,4.729,4.7,7.491,8.16a1.744,1.744,0,0,0,1.363.656h5.581a1.744,1.744,0,0,0,0-3.488ZM31.382,18.884a5.167,5.167,0,0,1,9.881,0ZM29.8,22.565h0a7.269,7.269,0,0,1,1.632-.193H41.21a7.3,7.3,0,0,1,1.631.192h0a7.253,7.253,0,0,1,5.588,6.512l-.444-.535a4.59,4.59,0,0,0-3.544-1.666,9.189,9.189,0,0,0-8.119,4.971A9.2,9.2,0,0,0,28.2,26.88a4.593,4.593,0,0,0-3.546,1.666l-.442.534A7.252,7.252,0,0,1,29.8,22.565ZM21.5,51.391V34.978a1.118,1.118,0,0,1,1.117-1.116A4.592,4.592,0,0,0,26.163,32.2l1.183-1.428a1.114,1.114,0,0,1,.86-.4,5.688,5.688,0,0,1,5.081,3.175l1.291,2.653V63.633h-.836A12.257,12.257,0,0,1,21.5,51.391Zm29.647,0A12.257,12.257,0,0,1,38.9,63.633h-.837V36.192l1.3-2.654a5.688,5.688,0,0,1,5.081-3.175,1.114,1.114,0,0,1,.859.4L46.483,32.2a4.592,4.592,0,0,0,3.544,1.666,1.117,1.117,0,0,1,1.116,1.116Z" fill="#00a89d"/>
</svg>
