<svg xmlns="http://www.w3.org/2000/svg" width="93.718" height="68.647" viewBox="0 0 93.718 68.647">
  <g id="Butterflies" transform="translate(-9.559 -20.37)">
    <path id="Path_47466" data-name="Path 47466" d="M35.22,50.6H35.5c2.564,0,4.479-.893,5.431-2.53.986-1.694.743-3.9-.661-6.208a17.034,17.034,0,0,0-6.057-5.6c-5.7-3.284-11.662-3.249-13.6.093s1.021,8.529,6.719,11.824A17.27,17.27,0,0,0,35.22,50.6ZM22.468,37.417c.534-.917,1.857-1.439,3.62-1.439a14.608,14.608,0,0,1,7.043,2.135,14.944,14.944,0,0,1,5.291,4.874c.963,1.578,1.2,3.04.638,4.015s-1.926,1.508-3.794,1.462A15.1,15.1,0,0,1,28.4,46.317C23.512,43.486,21.354,39.355,22.468,37.417Z" transform="translate(1.606 2.093)" fill="#00a89d" stroke="#00a89d" stroke-width="0.8"/>
    <path id="Path_47467" data-name="Path 47467" d="M33.661,54.9a9.411,9.411,0,1,0,9.411,9.411A9.424,9.424,0,0,0,33.661,54.9Zm0,16.674a7.264,7.264,0,1,1,7.264-7.264A7.275,7.275,0,0,1,33.661,71.574Z" transform="translate(2.284 5.473)" fill="#00a89d" stroke="#00a89d" stroke-width="0.8"/>
    <path id="Path_47468" data-name="Path 47468" d="M93.556,26.641c-6.092-1.636-13.959-.162-21.026,3.922a33.96,33.96,0,0,0-9.956,8.587,6.6,6.6,0,0,0-1.358-2.007c.081-7.751,3.5-14.238,7.566-14.238a1.068,1.068,0,0,0,0-2.135c-5.106,0-9.179,6.428-9.666,14.946a6.643,6.643,0,0,0-2.634-.545c-.023,0-.035.012-.058.012s-.035-.012-.058-.012a6.719,6.719,0,0,0-2.518.5c-.5-8.482-4.56-14.9-9.654-14.9a1.068,1.068,0,0,0,0,2.135c4.026,0,7.438,6.428,7.554,14.133a6.726,6.726,0,0,0-1.474,2.112,33.96,33.96,0,0,0-9.956-8.587c-7.067-4.084-14.922-5.558-21.026-3.922a12.346,12.346,0,0,0-7.8,5.593c-4.143,7.136.661,17.7,10.919,24.519A18.8,18.8,0,1,0,52.491,78.707c1.01,2.263,2.3,3.655,3.864,3.655.023,0,.035-.012.058-.012s.035.012.058.012c1.566,0,2.854-1.392,3.864-3.655A18.8,18.8,0,1,0,90.412,56.753c10.258-6.823,15.062-17.382,10.942-24.507A12.361,12.361,0,0,0,93.556,26.641ZM51.47,75.818A16.664,16.664,0,1,1,24.816,57.38a.96.96,0,0,0,.128-.174c.023-.023.058-.035.07-.07.012-.012.012-.035.023-.058a1.55,1.55,0,0,0,.081-.209.546.546,0,0,0,.046-.186.634.634,0,0,0-.012-.209c-.012-.07-.012-.139-.023-.2a1.171,1.171,0,0,0-.081-.174,1.747,1.747,0,0,0-.116-.2c-.012-.012-.012-.035-.023-.046a1.216,1.216,0,0,0-.128-.093c-.046-.035-.07-.081-.116-.1C14.791,49.605,9.708,39.58,13.329,33.314a10.268,10.268,0,0,1,6.5-4.6c5.558-1.485,12.81-.1,19.4,3.713a30.622,30.622,0,0,1,10.49,9.689,6.671,6.671,0,0,0,1.961,4.456,53.216,53.216,0,0,0-1.88,14.98A56.015,56.015,0,0,0,51.47,75.818Zm5,4.4c-.023,0-.035.012-.058.012s-.035-.012-.058-.012c-.754,0-1.81-1.543-2.715-4.525a7.2,7.2,0,0,1,5.512.07C58.27,78.7,57.214,80.216,56.471,80.216ZM59.72,73.6a9.343,9.343,0,0,0-6.614-.058c-.267-1.184-.5-2.506-.685-4a7.214,7.214,0,0,1,7.983.116C60.207,71.13,59.975,72.441,59.72,73.6Zm.917-6.3a9.366,9.366,0,0,0-8.459-.1c-.1-1.265-.174-2.622-.209-4.061a7.229,7.229,0,0,1,8.865.128C60.811,64.7,60.741,66.048,60.637,67.3Zm-8.668-6.684c.023-1.5.081-2.947.2-4.351a7.246,7.246,0,0,1,8.505.128c.1,1.392.174,2.843.186,4.328A9.359,9.359,0,0,0,51.969,60.617Zm.453-6.962a40.049,40.049,0,0,1,1.114-5.825,6.576,6.576,0,0,0,2.82.65c.023,0,.035-.012.058-.012s.035.012.058.012a6.575,6.575,0,0,0,2.82-.65,40.717,40.717,0,0,1,1.126,5.895A9.487,9.487,0,0,0,52.421,53.655Zm4.05-7.31c-.023,0-.035.012-.058.012s-.035-.012-.058-.012a4.514,4.514,0,0,1,0-9.028c.023,0,.035-.012.058-.012s.035.012.058.012a4.514,4.514,0,1,1,0,9.028Zm31.69,9.318c-.046.023-.07.07-.116.1s-.093.058-.128.093c-.012.012-.012.035-.023.046a1.1,1.1,0,0,0-.116.2,1.171,1.171,0,0,0-.081.174.575.575,0,0,0-.023.2,1.261,1.261,0,0,0-.012.209c.012.07.035.128.046.186a.777.777,0,0,0,.081.209c.012.023.012.035.023.058s.058.046.07.07a1.661,1.661,0,0,0,.128.174A16.664,16.664,0,1,1,61.356,75.818a55.558,55.558,0,0,0,1.659-14.273c0-2-.093-3.945-.244-5.8v-.058a43.724,43.724,0,0,0-1.625-9.12,6.614,6.614,0,0,0,1.961-4.444,30.769,30.769,0,0,1,10.5-9.689c6.579-3.806,13.843-5.2,19.4-3.713a10.268,10.268,0,0,1,6.5,4.6C103.118,39.58,98.035,49.605,88.161,55.662Z" transform="translate(0 0)" fill="#00a89d" stroke="#00a89d" stroke-width="0.8"/>
    <path id="Path_47469" data-name="Path 47469" d="M76.649,33.81a17.071,17.071,0,0,0-7.879,2.437c-5.7,3.284-8.645,8.482-6.719,11.824.975,1.683,2.982,2.53,5.454,2.53a16.837,16.837,0,0,0,8.134-2.437c5.7-3.284,8.645-8.482,6.719-11.824C81.371,34.646,79.352,33.752,76.649,33.81Zm-2.089,12.5c-4.885,2.82-9.55,2.634-10.664.7s1.044-6.069,5.929-8.888A14.878,14.878,0,0,1,76.7,35.969c1.857-.046,3.237.487,3.794,1.462C81.615,39.357,79.457,43.488,74.56,46.308Z" transform="translate(8.251 2.091)" fill="#00a89d" stroke="#00a89d" stroke-width="0.8"/>
    <path id="Path_47470" data-name="Path 47470" d="M68.941,54.9a9.411,9.411,0,1,0,9.411,9.411A9.424,9.424,0,0,0,68.941,54.9Zm0,16.674A7.264,7.264,0,1,1,76.2,64.311,7.275,7.275,0,0,1,68.941,71.574Z" transform="translate(7.941 5.473)" fill="#00a89d" stroke="#00a89d" stroke-width="0.8"/>
  </g>
</svg>
