<?xml version="1.0" encoding="utf-8"?>
<!-- Generator: Adobe Illustrator 19.0.0, SVG Export Plug-In . SVG Version: 6.00 Build 0)  -->
<svg version="1.1" id="calendar-icon" xmlns="http://www.w3.org/2000/svg" xmlns:xlink="http://www.w3.org/1999/xlink" x="0px"
	 y="0px" viewBox="-110 111.6 19.8 18.4" style="enable-background:new -110 111.6 19.8 18.4;" xml:space="preserve">
<style type="text/css">
	.st0{fill:#AAAAAA;}
</style>
<path id="calendar-view-icon" class="st0" d="M-92.3,113.1h-2.1v-0.7c0-0.4-0.3-0.7-0.7-0.7c-0.4,0-0.7,0.3-0.7,0.7v0.7h-8.5v-0.7
	c0-0.4-0.3-0.7-0.7-0.7c-0.4,0-0.7,0.3-0.7,0.7v0.7h-2.1c-1.2,0-2.1,0.9-2.1,2.1v12.7c0,1.2,0.9,2.1,2.1,2.1h15.5
	c1.2,0,2.1-0.9,2.1-2.1v-12.7C-90.2,114-91.2,113.1-92.3,113.1z M-107.9,114.5h2.1v0.7c0,0.4,0.3,0.7,0.7,0.7c0.4,0,0.7-0.3,0.7-0.7
	v-0.7h8.5v0.7c0,0.4,0.3,0.7,0.7,0.7c0.4,0,0.7-0.3,0.7-0.7v-0.7h2.1c0.4,0,0.7,0.3,0.7,0.7v2.1h-17v-2.1
	C-108.6,114.8-108.3,114.5-107.9,114.5z M-92.3,128.6h-15.5c-0.4,0-0.7-0.3-0.7-0.7v-9.2h16.9v9.2C-91.6,128.3-92,128.6-92.3,128.6z
	"/>
</svg>
