<?xml version="1.0" encoding="utf-8"?>
<!-- Generator: Adobe Illustrator 19.0.0, SVG Export Plug-In . SVG Version: 6.00 Build 0)  -->
<svg version="1.1" id="Group_15956" xmlns="http://www.w3.org/2000/svg" xmlns:xlink="http://www.w3.org/1999/xlink" x="0px"
	 y="0px" viewBox="-111 112.3 17.9 17.7" style="enable-background:new -111 112.3 17.9 17.7;" xml:space="preserve">
<style type="text/css">
	.st0{fill:#00A89D;}
</style>
<path id="Path_47494" class="st0" d="M-93.1,116.9c0-1.7-1.4-3.1-3.1-3.1l0,0h-11.7c-1.7,0-3.1,1.4-3.1,3.1v10
	c0,1.7,1.4,3.1,3.1,3.1l0,0h11.7c1.7,0,3.1-1.4,3.1-3.1l0,0V116.9z M-94.3,116.9v10c0,1-0.8,1.9-1.9,1.9c0,0,0,0,0,0h-11.7
	c-1,0-1.9-0.8-1.9-1.9c0,0,0,0,0,0v-10c0-1,0.8-1.9,1.9-1.9h11.7C-95.2,115-94.3,115.8-94.3,116.9
	C-94.3,116.9-94.3,116.9-94.3,116.9L-94.3,116.9z"/>
<path id="Path_47495" class="st0" d="M-93.7,118.8h-16.7c-0.3,0-0.6,0.3-0.6,0.6s0.3,0.6,0.6,0.6h16.7c0.3,0,0.6-0.3,0.6-0.6
	S-93.4,118.8-93.7,118.8z"/>
<path id="Path_47496" class="st0" d="M-106.4,112.9v2.9c0,0.3,0.3,0.6,0.6,0.6s0.6-0.3,0.6-0.6v-2.9c0-0.3-0.3-0.6-0.6-0.6
	S-106.4,112.6-106.4,112.9z"/>
<path id="Path_47497" class="st0" d="M-98.9,112.9v2.9c0,0.3,0.3,0.6,0.6,0.6c0.3,0,0.6-0.3,0.6-0.6v-2.9c0-0.3-0.3-0.6-0.6-0.6
	C-98.6,112.3-98.9,112.6-98.9,112.9z"/>
</svg>
