<svg id="calendar_view-icon" data-name="calendar view-icon" xmlns="http://www.w3.org/2000/svg" width="19.776" height="18.363" viewBox="0 0 19.776 18.363">
  <path id="calendar-view-icon" d="M19.657,4.413H17.538V3.706a.706.706,0,0,0-1.413,0v.706H7.65V3.706a.706.706,0,0,0-1.413,0v.706H4.119A2.121,2.121,0,0,0,2,6.531V19.244a2.121,2.121,0,0,0,2.119,2.119H19.657a2.121,2.121,0,0,0,2.119-2.119V6.531A2.121,2.121,0,0,0,19.657,4.413ZM4.119,5.825H6.238v.706a.706.706,0,0,0,1.413,0V5.825h8.475v.706a.706.706,0,0,0,1.413,0V5.825h2.119a.707.707,0,0,1,.706.706V8.65H3.413V6.531A.707.707,0,0,1,4.119,5.825ZM19.657,19.951H4.119a.707.707,0,0,1-.706-.706V10.063H20.363v9.182A.707.707,0,0,1,19.657,19.951Z" transform="translate(-2 -3)" fill="#004d74"/>
</svg>
