<svg xmlns="http://www.w3.org/2000/svg" width="161.579" height="121.484" viewBox="0 0 161.579 121.484">
  <g id="Citizen" transform="translate(-59.211 -52)">
    <path id="Path_27" data-name="Path 27" d="M198.881,623.661c-32.155.25-69.267-1.439-86.746-32.626-9.658-17.232-1.362-33.859,17.326-38.182,9.379-2.17,19.574-.786,28.388-4.663,11.528-5.076,17.511-17.559,25.844-27C193.824,509.7,208.714,502.2,224.03,502.2s30.7,7.964,38.483,21.152c5.2,8.8,6.889,19.254,7.117,29.468.5,22.334-6.794,46.394-25.048,59.271C231.538,621.289,214.845,623.535,198.881,623.661Z" transform="translate(-48.866 -450.196)" fill="rgba(0,168,157,0.34)" opacity="0.377"/>
    <path id="Path_32" data-name="Path 32" d="M106.036,510.188a11.181,11.181,0,0,0,7.722,3.182,22.769,22.769,0,0,0,16.89-8.16c6.173-8.558-3.334-22.946-13.672-19.331C108.519,488.836,97.965,501.757,106.036,510.188Z" transform="translate(-20.94 -427.308)" fill="#00a89d"/>
    <path id="Icon_material-person" data-name="Icon material-person" d="M30.668,30.668A12.334,12.334,0,1,0,18.334,18.334,12.331,12.331,0,0,0,30.668,30.668Zm0,6.167C22.435,36.835,6,40.967,6,49.169v6.167H55.336V49.169C55.336,40.967,38.9,36.835,30.668,36.835Z" transform="translate(120.21 86.664)" fill="#00a89d"/>
  </g>
</svg>
