<svg xmlns="http://www.w3.org/2000/svg" width="8.393" height="13.432" viewBox="0 0 8.393 13.432">
  <g id="downlaod_icon" data-name="downlaod icon" transform="translate(-32.607 -22.168)">
    <path id="Path_47456" data-name="Path 47456" d="M36.556,33.754a.362.362,0,0,0,.267.118h0a.361.361,0,0,0,.267-.119l3.816-4.22a.362.362,0,1,0-.537-.485L37.185,32.57V22.53a.362.362,0,1,0-.724,0V32.577l-3.224-3.531a.362.362,0,0,0-.534.488Z" transform="translate(-0.001)" fill="#fff"/>
    <path id="Path_47457" data-name="Path 47457" d="M40.639,74.832h-7.67a.362.362,0,1,0,0,.724h7.67a.362.362,0,0,0,0-.724Z" transform="translate(0 -39.956)" fill="#fff"/>
  </g>
</svg>
