<svg xmlns="http://www.w3.org/2000/svg" width="85.457" height="117.517" viewBox="0 0 85.457 117.517">
  <g id="European_Red_Lists_Assessments" data-name="European Red Lists Assessments" transform="translate(-18 -6)">
    <g id="Group_63" data-name="Group 63" transform="translate(18 6)">
      <path id="Path_145" data-name="Path 145" d="M96.9,17.884H82.16a7.077,7.077,0,0,0-6.877-5.555h-3.9A6.5,6.5,0,0,0,64.935,6H56.522a6.5,6.5,0,0,0-6.449,6.329h-3.9A7.077,7.077,0,0,0,39.3,17.884H24.556A6.588,6.588,0,0,0,18,24.493v92.414a6.588,6.588,0,0,0,6.556,6.61H96.914a6.605,6.605,0,0,0,6.543-6.623v-92.4A6.588,6.588,0,0,0,96.9,17.884Zm-55.2,1.6a4.516,4.516,0,0,1,4.486-4.54h5.167a1.288,1.288,0,0,0,1.3-1.3V12.529a3.912,3.912,0,0,1,3.886-3.912h8.412a3.912,3.912,0,0,1,3.886,3.912v1.122a1.288,1.288,0,0,0,1.3,1.3H75.3a4.534,4.534,0,0,1,4.486,4.54v4.153a4.508,4.508,0,0,1-4.486,4.54H46.174a4.525,4.525,0,0,1-4.486-4.54V19.486Zm59.166,97.408a3.981,3.981,0,0,1-3.966,3.992H24.556a3.981,3.981,0,0,1-3.966-3.992v-92.4A3.989,3.989,0,0,1,24.556,20.5H39.111v3.151a7.121,7.121,0,0,0,7.064,7.157H75.283a7.112,7.112,0,0,0,7.064-7.157V20.5H96.9a3.989,3.989,0,0,1,3.966,3.992Z" transform="translate(-18 -6)" fill="#00a89d"/>
      <path id="Path_146" data-name="Path 146" d="M32.886,29.47A9.133,9.133,0,1,0,41.953,38.6,9.115,9.115,0,0,0,32.886,29.47Zm0,15.663A6.53,6.53,0,1,1,39.362,38.6,6.5,6.5,0,0,1,32.886,45.133Z" transform="translate(-16.049 1.869)" fill="#00a89d"/>
      <path id="Path_147" data-name="Path 147" d="M32.886,68.58a9.133,9.133,0,1,0,9.066,9.133A9.115,9.115,0,0,0,32.886,68.58Zm0,15.663a6.53,6.53,0,1,1,6.476-6.529A6.5,6.5,0,0,1,32.886,84.243Z" transform="translate(-16.049 14.981)" fill="#00a89d"/>
      <path id="Path_148" data-name="Path 148" d="M32.886,49.02a9.133,9.133,0,1,0,9.066,9.133A9.115,9.115,0,0,0,32.886,49.02Zm0,15.676a6.53,6.53,0,1,1,6.476-6.529A6.5,6.5,0,0,1,32.886,64.7Z" transform="translate(-16.049 8.423)" fill="#00a89d"/>
      <path id="Path_149" data-name="Path 149" d="M83.673,37.29H46.126a3.912,3.912,0,0,0,0,7.825H83.673a3.912,3.912,0,0,0,0-7.825Zm0,5.221H46.126a1.309,1.309,0,0,1,0-2.617H83.673a1.309,1.309,0,0,1,0,2.617Z" transform="translate(-9.873 4.49)" fill="#00a89d"/>
      <path id="Path_150" data-name="Path 150" d="M83.673,56.84H46.126a3.912,3.912,0,0,0,0,7.825H83.673a3.912,3.912,0,0,0,0-7.825Zm0,5.234H46.126a1.309,1.309,0,0,1,0-2.617H83.673a1.309,1.309,0,0,1,0,2.617Z" transform="translate(-9.873 11.045)" fill="#00a89d"/>
      <path id="Path_151" data-name="Path 151" d="M83.673,76.4H46.126a3.912,3.912,0,0,0,0,7.825H83.673a3.912,3.912,0,0,0,0-7.825Zm0,5.221H46.126a1.309,1.309,0,0,1,0-2.617H83.673a1.309,1.309,0,0,1,0,2.617Z" transform="translate(-9.873 17.603)" fill="#00a89d"/>
    </g>
  </g>
</svg>
