<svg xmlns="http://www.w3.org/2000/svg" width="25.581" height="22.463" viewBox="0 0 25.581 22.463">
  <g id="Group_15941" data-name="Group 15941" transform="translate(-16 -20.1)">
    <g id="Group_15941-2" data-name="Group 15941" transform="translate(16 20.1)">
      <path id="Path_47453" data-name="Path 47453" d="M30.8,22.5H16.939a.939.939,0,0,0,0,1.878H30.8a3.358,3.358,0,0,0,3.23,2.4,3.313,3.313,0,0,0,3.193-2.4h3.418a.939.939,0,0,0,0-1.878H37.224a3.347,3.347,0,0,0-6.423,0Zm4.658.939a1.465,1.465,0,1,1-1.465-1.465A1.491,1.491,0,0,1,35.458,23.443Z" transform="translate(-16 -20.1)" fill="#616161"/>
    </g>
    <g id="Group_15942" data-name="Group 15942" transform="translate(16 27.613)">
      <path id="Path_47454" data-name="Path 47454" d="M19.531,42.5H16.939a.939.939,0,1,0,0,1.878h2.592a3.358,3.358,0,0,0,3.231,2.4,3.313,3.313,0,0,0,3.193-2.4H40.642a.939.939,0,1,0,0-1.878H25.954a3.347,3.347,0,0,0-6.423,0Zm4.658.939a1.465,1.465,0,1,1-1.465-1.465A1.467,1.467,0,0,1,24.189,43.443Z" transform="translate(-16 -40.1)" fill="#616161"/>
    </g>
    <g id="Group_15943" data-name="Group 15943" transform="translate(16 35.877)">
      <path id="Path_47455" data-name="Path 47455" d="M26.293,64.5H16.939a.939.939,0,0,0,0,1.878h9.353a3.358,3.358,0,0,0,3.23,2.4,3.313,3.313,0,0,0,3.193-2.4h7.926a.939.939,0,0,0,0-1.878H32.716a3.347,3.347,0,0,0-6.423,0Zm4.658.939a1.465,1.465,0,1,1-1.465-1.465A1.467,1.467,0,0,1,30.95,65.443Z" transform="translate(-16 -62.1)" fill="#616161"/>
    </g>
  </g>
</svg>
