<svg xmlns="http://www.w3.org/2000/svg" width="75.977" height="75.932" viewBox="0 0 75.977 75.932">
  <path id="Flies" d="M.581,17.739a1.258,1.258,0,0,0-.552.784,1.245,1.245,0,0,0,.167.946L8.188,32.033a3.611,3.611,0,0,0,3.063,1.683,2.294,2.294,0,0,0,.317-.015l5.765-.476v0A58.237,58.237,0,0,0,3.842,64.988c-.514,4.4,1.2,7.742,4.84,9.407a9.29,9.29,0,0,0,3.827.79,9.922,9.922,0,0,0,2.041-.2,30.2,30.2,0,0,0,13.88-7.066,13.718,13.718,0,0,0,18.327,0,30.181,30.181,0,0,0,13.88,7.066,9.894,9.894,0,0,0,2.038.2,9.33,9.33,0,0,0,3.836-.79c3.633-1.662,5.348-5,4.834-9.4a58.241,58.241,0,0,0-13.5-31.763l5.765.476c.106.009.211.012.317.012A3.617,3.617,0,0,0,67,32.036l7.995-12.567a1.253,1.253,0,1,0-2.115-1.345l-8,12.576a1.113,1.113,0,0,1-1.057.511l-8.52-.7c-.626-.611-1.175-1.128-1.639-1.53a18.379,18.379,0,0,0,.22-2.664,10.3,10.3,0,0,0-1.912-6.341l4.062-4.059a3.311,3.311,0,0,1,2.026-.966c3.134-.294,8.84-1.383,11.865-5.422h0a1.252,1.252,0,0,0-2-1.5c-2.535,3.383-7.895,4.223-10.091,4.429a5.818,5.818,0,0,0-3.568,1.686l-4.053,4.056a11.148,11.148,0,0,0-1.187-.8A6.247,6.247,0,0,0,45.112,6.264a6.6,6.6,0,0,0-.9.091A11.288,11.288,0,0,0,42.184,5.6,6.847,6.847,0,0,0,42.54.854,1.241,1.241,0,0,0,40.968.067a1.255,1.255,0,0,0-.808,1.574,4.3,4.3,0,0,1-.593,3.466c-.631-.062-1.286-.094-1.974-.094s-1.342.032-1.974.094a4.31,4.31,0,0,1-.6-3.457,1.254,1.254,0,1,0-2.379-.8A6.863,6.863,0,0,0,33,5.6a11.46,11.46,0,0,0-2.026.758,6.518,6.518,0,0,0-.9-.091A6.247,6.247,0,0,0,26.166,17.4a11.147,11.147,0,0,0-1.187.8l-4.053-4.056a5.822,5.822,0,0,0-3.563-1.689C15.17,12.244,9.8,11.4,7.27,8.021a1.254,1.254,0,1,0-2.006,1.5c3.025,4.035,8.731,5.128,11.862,5.419a3.327,3.327,0,0,1,2.026.966l4.065,4.065A10.306,10.306,0,0,0,21.3,26.315a18.333,18.333,0,0,0,.22,2.658c-.464.408-1.016.919-1.639,1.53l-8.52.7h0a1.136,1.136,0,0,1-1.054-.514L2.312,18.124a1.251,1.251,0,0,0-1.73-.385ZM14.024,72.531a7.327,7.327,0,0,1-4.306-.414c-3.284-1.5-3.654-4.546-3.383-6.834,2.159-18.488,11.343-29.264,15.83-33.507v0A21.674,21.674,0,0,0,31.939,43.25,3.868,3.868,0,0,1,33.8,46.384c.887,19.584-13.536,24.811-19.781,26.147Zm16.148-6.417c3.768-4.323,6.549-10.637,6.126-19.848a6.4,6.4,0,0,0-3.093-5.175C30.336,39.4,25.337,35.6,24.086,29.232a15.67,15.67,0,0,1-.276-2.916,7.491,7.491,0,0,1,1.968-5.5c.009-.009.023-.012.035-.023s.015-.029.026-.041c1.841-1.841,5.3-3.213,11.754-3.213s9.913,1.372,11.757,3.213c.012.012.015.026.026.041s.023.012.035.023h0a7.491,7.491,0,0,1,1.968,5.5,15.639,15.639,0,0,1-.276,2.913C49.846,35.6,44.851,39.4,41.981,41.088v0a6.4,6.4,0,0,0-3.09,5.175c-.423,9.21,2.358,15.524,6.126,19.848a11.225,11.225,0,0,1-14.846,0Zm35.3,6,0,0a7.314,7.314,0,0,1-4.309.417c-6.244-1.339-20.667-6.564-19.772-26.15l0,0a3.857,3.857,0,0,1,1.862-3.134A21.671,21.671,0,0,0,53.03,31.771C57.517,36.018,66.7,46.794,68.854,65.285c.267,2.282-.1,5.328-3.383,6.828Zm-16.6-59.579a3.762,3.762,0,0,1-2.749,3.6,22.023,22.023,0,0,0-3.422-.752,3.75,3.75,0,1,1,6.171-2.852ZM37.593,7.518a15.785,15.785,0,0,1,3.383.341,6.165,6.165,0,0,0-1.58,7.219c-.582-.023-1.178-.041-1.8-.041s-1.222.018-1.809.041A6.158,6.158,0,0,0,34.21,7.859a15.785,15.785,0,0,1,3.383-.341ZM26.315,12.532a3.759,3.759,0,1,1,6.171,2.852,22.023,22.023,0,0,0-3.422.752,3.762,3.762,0,0,1-2.749-3.6Z" transform="translate(0.355 0.396)" fill="#00a89d" stroke="#00a89d" stroke-width="0.7"/>
</svg>
