<svg xmlns="http://www.w3.org/2000/svg" width="751.958" height="259.664" viewBox="0 0 751.958 259.664">
  <g id="Group_51" data-name="Group 51" transform="translate(-989.084 -836.696)">
    <g id="Group_27" data-name="Group 27" transform="translate(989.084 836.696)">
      <g id="Group_3" data-name="Group 3" transform="translate(236.991 95.974)">
        <g id="Group_2" data-name="Group 2" transform="translate(0 0)">
          <path id="Path_1" data-name="Path 1" d="M257.214,166.551c3.145-.643,6.531-.927,9.472.363,3.813,1.672,6.153,5.789,6.6,9.928s-.739,8.292-2.375,12.121c-7.8,18.255-28.248,30.321-46.757,35.176a2.338,2.338,0,0,1-3.45-2.279C216.29,197.777,232.584,171.59,257.214,166.551Z" transform="translate(-182.187 -166.008)" fill="#b4b4b4" opacity="0.4"/>
          <path id="Path_5" data-name="Path 5" d="M276.515,179.343c3.18.462,6.454,1.343,8.787,3.554,3.019,2.867,3.824,7.534,2.839,11.579s-3.508,7.549-6.346,10.595C268.26,219.6,244.94,224.013,225.877,222.3a2.338,2.338,0,0,1-2.472-3.314C227.428,194.834,251.64,175.725,276.515,179.343Z" transform="translate(-179.939 -157.334)" fill="#b4b4b4" opacity="0.4"/>
          <path id="Path_2" data-name="Path 2" d="M228.8,242.522c4.068,5.55,10.563,8.846,17.161,10.8,9.9,2.931,17.246,4.016,24.226,11.731,4.5,4.97,5.939,12.584,14.078,10.316,9.426-2.627,10.482-19.12,9.728-26.674-1.83-18.314-16.292-47.114-36.738-50.434C235.674,194.755,215.388,224.233,228.8,242.522Z" transform="translate(-179.149 -144.503)" fill="#d79040" opacity="0.708"/>
          <path id="Path_3" data-name="Path 3" d="M207.515,219.782c.982,5.145,5.188,9.068,9.64,11.827,5.583,3.461,12.084,5.716,18.645,5.378s13.133-3.533,16.65-9.083c3.484-5.508,3.618-12.44,3.367-18.949a15.857,15.857,0,0,0-1.135-6.267C243.381,179.033,202.793,195.019,207.515,219.782Z" transform="translate(-190.83 -149.131)" fill="#242424" opacity="0.697"/>
          <path id="Path_4" data-name="Path 4" d="M220.57,214.74c21.211-23.534-4.257-25.571-11.289-22.192s-11.24,16.7-7.883,23.74S220.57,214.74,220.57,214.74Z" transform="translate(-194.791 -149.371)" opacity="0.74"/>
          <path id="Path_6" data-name="Path 6" d="M210.345,200.748a81.382,81.382,0,0,0-4.732-10.015,14.234,14.234,0,0,0-2.41-3.354,3.714,3.714,0,0,0-3.06-1.31c-.972.238-1.44,1.485-1.072,2.854,1.023,3.813,7.3,7.141,9.255,11.354-.494-1.057-7.892-4.463-8.85-4.518-1.375-.077-2.469,1.171-1.964,2.92a4.223,4.223,0,0,0,3.769,3c.968-.087,4.638-.548,9.061-.9" transform="translate(-197.386 -152.544)"/>
        </g>
        <path id="Path_7" data-name="Path 7" d="M1251.79,1404.129s27.479-11.014,37.006-42.272c9.771,6.5,13.416,14.275,13.416,14.275s-16.01,35.627-34.159,36.215c-.363.012-4.756-1.992-5.4-1.985C1254.708,1408.32,1251.79,1404.129,1251.79,1404.129Z" transform="translate(-1198.457 -1302.397)" fill="#363636" opacity="0.509"/>
        <path id="Path_8" data-name="Path 8" d="M1263.5,1394.746s12.507,4.136,22.034-27.126c6.214,18.6,2.957,38.651-10.4,39.168-.363.012.641-.007,0,0C1270.843,1407.093,1263.5,1394.746,1263.5,1394.746Z" transform="translate(-1173.081 -1275.061)" fill="#363636" opacity="0.509"/>
      </g>
      <g id="Group_4" data-name="Group 4" transform="translate(141.338 38.639)">
        <g id="Group_2-2" data-name="Group 2" transform="translate(0.206 0)">
          <path id="Path_2-2" data-name="Path 2" d="M253.454,215.79c-1.8,2.22-4.677,3.538-7.6,4.319-4.385,1.172-7.638,1.606-10.731,4.692-1.992,1.988-2.63,5.032-6.235,4.126-4.175-1.051-4.642-7.647-4.3-10.663.81-7.324,7.215-18.841,16.27-20.169C250.41,196.689,259.389,208.475,253.454,215.79Z" transform="translate(-224.497 -176.584)" fill="#d79040" opacity="0.708"/>
          <path id="Path_1-2" data-name="Path 1" d="M227.14,166.225a7.718,7.718,0,0,0-4.194.145,4.871,4.871,0,0,0-2.922,3.971,9.019,9.019,0,0,0,1.052,4.847c3.461,7.3,12.509,12.126,20.707,14.068a1.491,1.491,0,0,0,1.007-.007,1.2,1.2,0,0,0,.52-.9C245.265,178.713,238.048,168.24,227.14,166.225Z" transform="translate(-209.421 -166.002)" fill="#b4b4b4" opacity="0.4"/>
          <path id="Path_3-2" data-name="Path 3" d="M228.56,202.566c-.435,2.058-2.3,3.626-4.269,4.729a15.669,15.669,0,0,1-8.257,2.151,9.586,9.586,0,0,1-7.372-3.633c-1.543-2.2-1.6-4.973-1.49-7.576a5.8,5.8,0,0,1,.5-2.507C212.675,186.272,230.651,192.664,228.56,202.566Z" transform="translate(-185.003 -174.307)" fill="#242424" opacity="0.697"/>
          <path id="Path_4-2" data-name="Path 4" d="M200.977,199.939c-3.036-7.61,3.867-9.354,6.982-8s4.978,6.678,3.492,9.494-8.187.516-8.618,0a13.827,13.827,0,0,0-1.855-1.493Z" transform="translate(-163.429 -174.666)" opacity="0.74"/>
          <path id="Path_5-2" data-name="Path 5" d="M228.631,179.078a7.425,7.425,0,0,0-3.891,1.421,4.526,4.526,0,0,0-1.257,4.631,9.691,9.691,0,0,0,2.806,4.237c5.994,5.81,16.322,7.576,24.764,6.891a1.443,1.443,0,0,0,.945-.316,1.128,1.128,0,0,0,.151-1.009C250.374,185.273,239.651,177.632,228.631,179.078Z" transform="translate(-220.46 -170.27)" fill="#b4b4b4" opacity="0.4"/>
          <path id="Path_6-2" data-name="Path 6" d="M197.388,191.912a31.231,31.231,0,0,1,2.1-4.005,5.749,5.749,0,0,1,1.067-1.341,1.743,1.743,0,0,1,1.355-.525c.43.094.638.594.475,1.141-.454,1.526-3.229,2.856-4.1,4.541.219-.423,3.5-1.785,3.92-1.807a.842.842,0,0,1,.868,1.168,1.849,1.849,0,0,1-1.669,1.2c-.429-.035-.748-.29-1.164-.361a4.545,4.545,0,0,0-2.605.886" transform="translate(-152.181 -172.628)"/>
        </g>
        <path id="Path_7-2" data-name="Path 7" d="M1274.127,1378.762s-12.17-4.4-16.39-16.906a16.426,16.426,0,0,0-5.942,5.706s7.091,14.248,15.129,14.483c.161,0,2.106-.8,2.391-.794C1272.836,1380.436,1274.127,1378.762,1274.127,1378.762Z" transform="translate(-1246.593 -1338.071)" fill="#363636" opacity="0.509"/>
        <path id="Path_8-2" data-name="Path 8" d="M1274.6,1378.47s-5.539,1.654-9.758-10.85c-2.752,7.438-1.31,15.458,4.606,15.664.161,0-.281,0,0,0C1271.357,1383.409,1274.6,1378.47,1274.6,1378.47Z" transform="translate(-1263.501 -1330.602)" fill="#363636" opacity="0.509"/>
      </g>
      <g id="Group_11" data-name="Group 11" transform="translate(455.986 71.028)">
        <g id="Group_7" data-name="Group 7" transform="translate(0 0)" opacity="0.546">
          <path id="Path_9" data-name="Path 9" d="M283.654,393.43A34.767,34.767,0,0,0,295.68,387.6c1.5-1.155,2.8-2.7,2.664-4.383a6.56,6.56,0,0,0-1.638-3.231c-2.761-3.607-15.608-15.758-18.479-17.99-3.868-3.005-7.781-5.97-11.8-8.835a183.635,183.635,0,0,0-24.67-15.059c-15.964-7.939-34.41-13.177-53.013-12.3a49.977,49.977,0,0,0-14.8,2.649,37.427,37.427,0,0,0-8.138,4.24c-10.994,7.489-17.1,19.61-15.792,31.335s10.008,22.713,22.475,28.411a78.806,78.806,0,0,0,16.452,5.014,193.154,193.154,0,0,0,94.716-4.027Z" transform="translate(-149.834 -287.156)" fill="#4aa59c" opacity="0.4"/>
          <path id="Path_10" data-name="Path 10" d="M306.273,359.026c3.6-13.034,6.345-27.146-.094-39.411-4.552-8.665-13.4-15.5-23.587-19.8s-21.642-6.211-33.055-6.8c-10.512-.541-21.222.024-31.241,2.713-8.05,2.164-16.387,6.63-17.634,13.545-.73,4.043,1.168,8.1,3.569,11.674a52.6,52.6,0,0,0,13.553,13.638c9.6,6.718,21.5,10.74,31.956,16.52a85.781,85.781,0,0,1,27.31,23.485c2.582,3.461,4.734,10.812,9.354,11.82C301.806,389.774,304.237,366.385,306.273,359.026Z" transform="translate(-128.582 -292.831)" fill="#4aa59c" opacity="0.4"/>
          <path id="Path_11" data-name="Path 11" d="M303.078,385.737c8.032,8.412,6.072,20.508,2.806,30.877-2.626,8.332-5.971,16.754-12.54,23.439-4.762,4.849-11,8.55-17.375,11.9-11.047,5.808-22.977,10.813-35.867,12.721s-26.909.436-37.619-5.789-17.3-17.678-14.271-28.2c3.239-11.224,16.055-18.9,29.2-22.8s27.3-5.051,40.472-8.886A92.913,92.913,0,0,0,282.363,387.9c.166-1.887,3.788-3.131,6.029-3.516a53.45,53.45,0,0,1,10.834-.732C300.808,383.7,303.415,384.459,303.078,385.737Z" transform="translate(-134.048 -277.164)" fill="#4aa59c" opacity="0.4"/>
          <path id="Path_12" data-name="Path 12" d="M377.453,374.8c20.139,11.194,22.355,45.646-8.868,45.8-3.307.016-6.655-.509-9.894.038-3.75.635-6.922,2.636-9.856,4.668-15.983,11.079-47.076,47.677-67.232,19.156-10.253-14.507-6.471-41.194,5.585-54.3C303.119,372.85,355.539,362.625,377.453,374.8Z" transform="translate(-97.058 -279.604)" fill="#4aa59c" opacity="0.4"/>
          <path id="Path_13" data-name="Path 13" d="M292.49,337.723c6.835-10.476,14.543-21.326,27.085-27.18,17.3-8.072,40.6-3.958,54.845,7.483S394.491,346.8,393,363.173c-33.551,3.482-64.391,8.9-95.943,18.866C256.094,394.982,283.611,351.333,292.49,337.723Z" transform="translate(-97.256 -290.5)" fill="#4aa59c" opacity="0.4"/>
        </g>
        <g id="Group_10" data-name="Group 10" transform="translate(105.059 60.591)" opacity="0.734">
          <path id="Path_9-2" data-name="Path 9" d="M202.65,352.442a13.726,13.726,0,0,0,4.747-2.3,2.189,2.189,0,0,0,1.051-1.73,2.589,2.589,0,0,0-.646-1.275,82.368,82.368,0,0,0-7.3-7.1c-1.527-1.186-3.072-2.357-4.659-3.487a72.492,72.492,0,0,0-9.738-5.945,43.089,43.089,0,0,0-20.926-4.854,19.727,19.727,0,0,0-5.84,1.046,14.778,14.778,0,0,0-3.212,1.673c-4.34,2.956-6.751,7.74-6.233,12.367s3.949,8.965,8.871,11.215a31.1,31.1,0,0,0,6.494,1.979,76.242,76.242,0,0,0,37.388-1.588Z" transform="translate(-149.828 -314.511)" fill="#4aa59c"/>
          <path id="Path_10-2" data-name="Path 10" d="M242.257,318.957c1.423-5.145,2.5-10.716-.038-15.557-1.8-3.421-5.291-6.12-9.311-7.816a38.874,38.874,0,0,0-13.047-2.684,39.875,39.875,0,0,0-12.33,1.073c-3.18.854-6.468,2.619-6.96,5.347a6.489,6.489,0,0,0,1.409,4.608,20.765,20.765,0,0,0,5.35,5.383c3.79,2.652,8.487,4.239,12.614,6.52a33.86,33.86,0,0,1,10.779,9.269c1.02,1.368,1.871,4.268,3.692,4.666C240.494,331.094,241.454,321.861,242.257,318.957Z" transform="translate(-174.134 -292.805)" fill="#4aa59c"/>
          <path id="Path_11-2" data-name="Path 11" d="M233.1,384.452c3.171,3.321,2.4,8.095,1.107,12.188-1.036,3.289-2.357,6.614-4.95,9.253a27.326,27.326,0,0,1-6.858,4.7,44.718,44.718,0,0,1-14.158,5.021c-5.087.748-10.622.172-14.849-2.285s-6.828-6.977-5.633-11.131c1.279-4.431,6.337-7.461,11.526-9s10.775-1.992,15.975-3.508a36.674,36.674,0,0,0,9.662-4.383c.065-.748,1.5-1.236,2.38-1.388a21.1,21.1,0,0,1,4.277-.289C232.209,383.65,233.238,383.948,233.1,384.452Z" transform="translate(-172.44 -349.655)" fill="#4aa59c"/>
          <path id="Path_12-2" data-name="Path 12" d="M315.845,371.581c7.951,4.419,8.824,18.018-3.5,18.079a24.276,24.276,0,0,0-3.906.015,9.821,9.821,0,0,0-3.89,1.843c-6.309,4.374-18.582,18.82-26.538,7.562-4.047-5.726-2.555-16.26,2.2-21.433C286.5,370.808,307.195,366.773,315.845,371.581Z" transform="translate(-216.275 -342.062)" fill="#4aa59c"/>
          <path id="Path_13-2" data-name="Path 13" d="M282.022,318.726c2.7-4.135,5.74-8.418,10.691-10.729,6.828-3.186,16.024-1.562,21.649,2.953a20.3,20.3,0,0,1,7.334,17.821,186.851,186.851,0,0,0-37.871,7.447C267.656,341.327,278.518,324.1,282.022,318.726Z" transform="translate(-212.026 -303.094)" fill="#4aa59c"/>
        </g>
        <g id="Group_12" data-name="Group 12" transform="translate(132.356 76.893)">
          <path id="Path_9-3" data-name="Path 9" d="M176.775,339.347a7,7,0,0,0,2.422-1.173,1.117,1.117,0,0,0,.536-.882,1.321,1.321,0,0,0-.33-.655,42,42,0,0,0-3.721-3.622c-.779-.605-1.567-1.2-2.377-1.777a36.973,36.973,0,0,0-4.967-3.032,21.981,21.981,0,0,0-10.673-2.476,10.063,10.063,0,0,0-2.98.533,7.538,7.538,0,0,0-1.639.854,6.887,6.887,0,0,0-3.18,6.308,7.511,7.511,0,0,0,4.525,5.721,15.868,15.868,0,0,0,3.312,1.009A38.889,38.889,0,0,0,176.775,339.347Z" transform="translate(-149.848 -320.001)" fill="#4aa59c"/>
          <path id="Path_10-3" data-name="Path 10" d="M221.8,306.156c.726-2.625,1.278-5.465-.02-7.935a9.389,9.389,0,0,0-4.749-3.987,19.829,19.829,0,0,0-6.655-1.368,20.339,20.339,0,0,0-6.289.547c-1.621.436-3.3,1.335-3.554,2.728a3.309,3.309,0,0,0,.718,2.351,10.591,10.591,0,0,0,2.728,2.746c1.933,1.353,4.329,2.163,6.434,3.326a17.271,17.271,0,0,1,5.5,4.728c.52.7.953,2.177,1.883,2.38C220.9,312.35,221.391,307.638,221.8,306.156Z" transform="translate(-187.071 -292.818)" fill="#4aa59c"/>
          <path id="Path_11-3" data-name="Path 11" d="M210.746,384.042c1.617,1.694,1.223,4.129.561,6.216a11.307,11.307,0,0,1-2.525,4.719,13.937,13.937,0,0,1-3.5,2.4,22.812,22.812,0,0,1-7.221,2.561,11.928,11.928,0,0,1-7.577-1.165c-2.151-1.253-3.485-3.554-2.873-5.678.655-2.26,3.233-3.805,5.879-4.591s5.5-1.017,8.148-1.789a18.7,18.7,0,0,0,4.928-2.236c.034-.38.762-.63,1.216-.708a10.759,10.759,0,0,1,2.181-.148C210.289,383.633,210.815,383.788,210.746,384.042Z" transform="translate(-179.821 -366.295)" fill="#4aa59c"/>
          <path id="Path_12-3" data-name="Path 12" d="M296.161,370.551c4.055,2.254,4.5,9.19-1.786,9.221a12.38,12.38,0,0,0-1.992.007,5.012,5.012,0,0,0-1.985.935c-3.218,2.231-9.478,9.6-13.536,3.857-2.064-2.921-1.3-8.294,1.122-10.933C281.194,370.153,291.749,368.1,296.161,370.551Z" transform="translate(-245.39 -355.495)" fill="#4aa59c"/>
          <path id="Path_13-3" data-name="Path 13" d="M278.677,312.657c1.376-2.109,2.928-4.294,5.453-5.473a11.16,11.16,0,0,1,11.042,1.507,10.351,10.351,0,0,1,3.741,9.09,95.307,95.307,0,0,0-19.317,3.8C271.35,324.185,276.89,315.4,278.677,312.657Z" transform="translate(-242.992 -304.685)" fill="#4aa59c"/>
        </g>
      </g>
      <g id="Group_8" data-name="Group 8" transform="translate(0 107.338)">
        <path id="Path_14" data-name="Path 14" d="M84.234,22.7c3.057,10.62,5.433,22.1.42,31.974-3.541,6.973-10.556,12.41-18.67,15.768S48.7,75.2,39.556,75.54a80.848,80.848,0,0,1-25.09-2.6C7.981,71.088,1.237,67.355.15,61.729c-.636-3.29.834-6.557,2.713-9.427a40.512,40.512,0,0,1,10.7-10.893c7.616-5.332,17.11-8.442,25.424-13A65.933,65.933,0,0,0,60.594,9.7C62.625,6.922,64.26.99,67.95.231,80.262-2.3,82.508,16.706,84.234,22.7Z" transform="translate(148.467 129.389) rotate(-144.975)" fill="#e1f3f2"/>
        <path id="Path_18" data-name="Path 18" d="M72.7,1.871C77.888,9.156,76.784,19.524,74.83,28.4c-1.57,7.131-3.594,14.334-7.681,20.017A44.456,44.456,0,0,1,56.272,58.488c-6.936,4.895-14.439,9.093-22.587,10.625s-17.05.152-23.908-5.279S-1.393,48.519.412,39.511c1.927-9.609,9.96-16.093,18.247-19.333s17.244-4.108,25.55-7.3A51.387,51.387,0,0,0,59.6,3.554C59.677,1.934,61.962.9,63.378.584a25.04,25.04,0,0,1,6.858-.54C71.239.1,72.9.776,72.7,1.871Z" transform="translate(109.541 152.326) rotate(-115.976)" fill="#d7ebe9" opacity="0.831"/>
        <path id="Path_17" data-name="Path 17" d="M287.494,373.847c-15.976,9.182-17.733,37.438,7.035,37.564,2.619.013,5.279-.417,7.849.032a19.47,19.47,0,0,1,7.819,3.828c12.678,9.087,37.344,39.1,53.333,15.714,8.133-11.9,5.133-33.786-4.431-44.535C346.46,372.244,304.881,363.856,287.494,373.847Z" transform="translate(-266.031 -301.481)" fill="#ddeeec"/>
        <path id="Path_16" data-name="Path 16" d="M14.2,38.149c5.563,8.612,11.827,17.541,21.9,22.441,13.892,6.756,32.439,3.645,43.695-5.536S101.1,36.12,87.437,19.814C48.875-7.558,42.669,10.517,17.386,2.063-15.441-8.914,6.969,26.96,14.2,38.149Z" transform="translate(85.225 97.953) rotate(-155)" fill="#e1f3f2" opacity="0.831"/>
      </g>
      <g id="Group_9" data-name="Group 9" transform="translate(386.51)">
        <path id="Path_19" data-name="Path 19" d="M265.012,600.547c2.058-.292,4.364-.389,5.986.912a7.676,7.676,0,0,1,2.122,3.51,50.312,50.312,0,0,1,2.261,25.688c-1.283,7.353-4.222,14.676-3.025,22.043.833,5.125,3.606,9.717,5.074,14.7a7.661,7.661,0,0,1,.291,4.391c-3.938,12.682-27.953,14.74-38.287,12.534-10.944-2.338-19.23-9.167-21.986-20.213C210.335,635.626,237.9,604.4,265.012,600.547Z" transform="translate(-199.921 -594.064)" fill="#d79041" opacity="0.554"/>
        <path id="Path_20" data-name="Path 20" d="M231.5,596.5c1.6-1.321,3.522-2.6,5.581-2.338a7.682,7.682,0,0,1,3.64,1.89A50.311,50.311,0,0,1,256.039,616.8c2.735,6.944,4.042,14.727,8.9,20.391,3.381,3.94,8.138,6.415,11.989,9.9a7.67,7.67,0,0,1,2.536,3.6c3.245,12.876-16.182,27.145-26.15,30.647-10.554,3.708-21.191,2.193-29.3-5.8C203.11,654.93,210.368,613.918,231.5,596.5Z" transform="translate(-199.97 -594.128)" fill="#d79041" opacity="0.4"/>
        <path id="Path_21" data-name="Path 21" d="M217.187,668.988c7.4,6.61,15.434,13.508,24.107,13.778-11.577-.359-17.772-31.709-26.518-38.247-3.99-2.985-9.7-3.688-11.117,2.544C201.828,655.115,212.971,665.216,217.187,668.988Z" transform="translate(-200.053 -593.635)" fill="#242424"/>
        <path id="Path_22" data-name="Path 22" d="M207.242,645.546a48.915,48.915,0,0,0-1.182-6.585,8.59,8.59,0,0,0-.876-2.338,2.252,2.252,0,0,0-1.577-1.247c-.6-.014-1.074.64-1.075,1.5,0,2.385,3.127,5.312,3.608,8.078-.121-.694-3.9-3.845-4.448-4.028-.79-.262-1.624.294-1.6,1.395a2.55,2.55,0,0,0,1.726,2.339,15.669,15.669,0,0,0,1.674-.112c1.07.082,2.124,1.178,3.08,2.218" transform="translate(-200.088 -593.705)" fill="#1b2b44"/>
        <path id="Path_33" data-name="Path 33" d="M18.177.09A2.89,2.89,0,0,1,20.41.43,2.864,2.864,0,0,1,21.2,1.74a18.779,18.779,0,0,1,.842,9.588c-.479,2.744-1.576,5.478-1.129,8.231.311,1.913,1.346,3.626,1.894,5.486a2.859,2.859,0,0,1,.108,1.635c-1.469,4.733-10.433,5.5-14.291,4.677-4.08-.869-7.174-3.421-8.2-7.542C-2.23,13.182,8.057,1.529,18.177.09Z" transform="translate(39.128 23.428) rotate(12.007)" fill="#242424" opacity="0.314"/>
      </g>
    </g>
    <g id="Group_50" data-name="Group 50" transform="translate(1049.288 1000.519)" opacity="0.25">
      <path id="Path_9-4" data-name="Path 9" d="M152.825,339.347a7.109,7.109,0,0,1-2.449-1.173,1.115,1.115,0,0,1-.543-.882,1.315,1.315,0,0,1,.334-.655,42.265,42.265,0,0,1,3.763-3.622c.788-.605,1.585-1.2,2.4-1.777a37.474,37.474,0,0,1,5.024-3.032,22.44,22.44,0,0,1,10.8-2.476,10.289,10.289,0,0,1,3.015.533,7.655,7.655,0,0,1,1.657.854,6.862,6.862,0,0,1,3.216,6.308,7.526,7.526,0,0,1-4.577,5.721,16.191,16.191,0,0,1-3.35,1.009A39.77,39.77,0,0,1,152.825,339.347Z" transform="translate(-123.439 -320.001)" fill="#4aa59c"/>
      <path id="Path_10-4" data-name="Path 10" d="M201.275,306.156c-.734-2.625-1.292-5.465.02-7.935a9.47,9.47,0,0,1,4.8-3.987,20.256,20.256,0,0,1,6.735-1.368,20.8,20.8,0,0,1,6.361.547c1.64.436,3.337,1.335,3.591,2.727a3.284,3.284,0,0,1-.727,2.351,10.65,10.65,0,0,1-2.76,2.746c-1.955,1.353-4.378,2.163-6.507,3.326a17.415,17.415,0,0,0-5.561,4.728c-.526.7-.964,2.177-1.9,2.38C202.184,312.35,201.689,307.638,201.275,306.156Z" transform="translate(-179.781 -292.818)" fill="#4aa59c"/>
      <path id="Path_11-4" data-name="Path 11" d="M188.621,384.042c-1.636,1.694-1.237,4.129-.572,6.216a11.267,11.267,0,0,0,2.554,4.719,14.1,14.1,0,0,0,3.539,2.4,23.246,23.246,0,0,0,7.3,2.561,12.186,12.186,0,0,0,7.661-1.165c2.18-1.253,3.524-3.554,2.906-5.678-.659-2.26-3.274-3.805-5.946-4.591s-5.559-1.017-8.242-1.789a19.028,19.028,0,0,1-4.986-2.236c-.034-.38-.772-.63-1.228-.708a11.008,11.008,0,0,0-2.207-.148C189.083,383.633,188.552,383.788,188.621,384.042Z" transform="translate(-163.279 -366.295)" fill="#4aa59c"/>
      <path id="Path_12-4" data-name="Path 12" d="M278.7,370.551c-4.1,2.254-4.552,9.19,1.806,9.221a12.659,12.659,0,0,1,2.015.007,5.1,5.1,0,0,1,2.007.935c3.255,2.231,9.587,9.6,13.691,3.857,2.088-2.921,1.318-8.294-1.137-10.933C293.844,370.153,283.166,368.1,278.7,370.551Z" transform="translate(-273.434 -355.495)" fill="#4aa59c"/>
      <path id="Path_13-4" data-name="Path 13" d="M295.711,312.657c-1.392-2.109-2.961-4.294-5.519-5.473a11.394,11.394,0,0,0-11.169,1.507,10.294,10.294,0,0,0-3.784,9.09,97.375,97.375,0,0,1,19.539,3.8C303.122,324.185,297.519,315.4,295.711,312.657Z" transform="translate(-275.183 -304.685)" fill="#4aa59c"/>
    </g>
  </g>
</svg>
