<svg xmlns="http://www.w3.org/2000/svg" width="108.925" height="108.925" viewBox="0 0 108.925 108.925">
  <g id="information_hubs" data-name="information hubs" transform="translate(-3.5 -3.5)">
    <path id="Path_141" data-name="Path 141" d="M97.492,82.558a14.847,14.847,0,0,0-9.232,3.217L77.288,74.8V41.121L88.26,30.148a14.976,14.976,0,1,0-2.484-2.484L74.8,38.637H59.719V27.218a1.757,1.757,0,1,0-3.514,0v11.42H41.121L30.148,27.664a14.98,14.98,0,1,0-2.484,2.484L38.637,41.121V74.8L27.664,85.776a14.98,14.98,0,1,0,2.484,2.484L41.121,77.288H74.8L85.776,88.26a14.918,14.918,0,1,0,11.716-5.7Zm0-75.545a11.42,11.42,0,1,1-11.42,11.42A11.433,11.433,0,0,1,97.492,7.014ZM18.433,29.853a11.42,11.42,0,1,1,11.42-11.42A11.433,11.433,0,0,1,18.433,29.853Zm0,79.058a11.42,11.42,0,1,1,11.42-11.42A11.433,11.433,0,0,1,18.433,108.911ZM73.774,73.774H42.151V42.151H73.774Zm23.718,35.137a11.42,11.42,0,1,1,11.42-11.42A11.433,11.433,0,0,1,97.492,108.911ZM57.962,65.575a7.613,7.613,0,1,0-7.613-7.613A7.622,7.622,0,0,0,57.962,65.575Zm0-11.712a4.1,4.1,0,1,1-4.1,4.1A4.1,4.1,0,0,1,57.962,53.863Z" fill="#00a89d"/>
  </g>
</svg>
