<svg xmlns="http://www.w3.org/2000/svg" width="114.294" height="114.295" viewBox="0 0 114.294 114.295">
  <g id="International_organisations" data-name="International organisations" transform="translate(-3.009 -3.008)">
    <g id="Group_51" data-name="Group 51" transform="translate(3.009 3.008)">
      <path id="Path_111" data-name="Path 111" d="M65.359,109.228a1.213,1.213,0,0,1-1.214-1.143,5.217,5.217,0,0,0-10.414,0,1.22,1.22,0,0,1-.438.865,1.2,1.2,0,0,1-.933.269A50.54,50.54,0,0,1,28.038,99.132a1.216,1.216,0,0,1-.17-1.767,5.219,5.219,0,0,0-7.375-7.358,1.218,1.218,0,0,1-1.769-.169A50.415,50.415,0,0,1,8.659,65.513a1.214,1.214,0,0,1,1.132-1.369,5.217,5.217,0,0,0,0-10.414,1.214,1.214,0,0,1-1.133-1.369A50.516,50.516,0,0,1,18.722,28.037a1.222,1.222,0,0,1,.849-.468,1.24,1.24,0,0,1,.922.3,5.117,5.117,0,0,0,3.444,1.3,5.22,5.22,0,0,0,3.932-8.662,1.216,1.216,0,0,1,.17-1.767A50.54,50.54,0,0,1,52.363,8.657a1.2,1.2,0,0,1,.933.269,1.218,1.218,0,0,1,.438.865,5.217,5.217,0,0,0,10.414,0,1.223,1.223,0,0,1,.438-.865,1.237,1.237,0,0,1,.932-.27A50.324,50.324,0,0,1,89.829,18.745a1.213,1.213,0,0,1,.163,1.772A5.138,5.138,0,0,0,88.7,23.946a5.238,5.238,0,0,0,5.227,5.227,5.131,5.131,0,0,0,3.429-1.29,1.214,1.214,0,0,1,1.773.164,50.531,50.531,0,0,1,10.087,24.312,1.214,1.214,0,0,1-1.133,1.371,5.217,5.217,0,0,0,0,10.414,1.216,1.216,0,0,1,1.135,1.369A50.354,50.354,0,0,1,99.131,89.826a1.216,1.216,0,0,1-.85.468,1.2,1.2,0,0,1-.922-.305A5.136,5.136,0,0,0,93.93,88.7,5.226,5.226,0,0,0,90,97.361a1.217,1.217,0,0,1-.17,1.766,50.329,50.329,0,0,1-24.313,10.089A1,1,0,0,1,65.359,109.228Zm-6.421-8.462a7.658,7.658,0,0,1,7.444,5.873,47.9,47.9,0,0,0,21.012-8.721A7.659,7.659,0,0,1,97.921,87.39a47.923,47.923,0,0,0,8.718-21.009,7.653,7.653,0,0,1,0-14.887,48.132,48.132,0,0,0-8.717-21.009,7.662,7.662,0,0,1-10.532-10.53,47.9,47.9,0,0,0-21.007-8.718,7.653,7.653,0,0,1-14.887,0A48.109,48.109,0,0,0,30.471,19.96,7.653,7.653,0,0,1,19.936,30.476a48.084,48.084,0,0,0-8.7,21.021,7.653,7.653,0,0,1,0,14.887,48.005,48.005,0,0,0,8.7,21.021A7.653,7.653,0,0,1,30.472,97.918,48.115,48.115,0,0,0,51.5,106.639,7.652,7.652,0,0,1,58.938,100.766Z" transform="translate(-1.79 -1.79)" fill="#00a89d"/>
      <path id="Path_112" data-name="Path 112" d="M56.216,91.161a34.951,34.951,0,1,1,0-69.9,34.944,34.944,0,0,1,25.11,59.247A34.627,34.627,0,0,1,56.216,91.161Zm0-67.468a32.531,32.531,0,1,0,23.365,9.915A32.312,32.312,0,0,0,56.216,23.693Z" transform="translate(0.936 0.937)" fill="#00a89d"/>
      <path id="Path_113" data-name="Path 113" d="M53.107,90.982c-9.8,0-17.473-15.283-17.473-34.793s7.676-34.8,17.473-34.8,17.468,15.287,17.468,34.8S62.9,90.982,53.107,90.982Zm0-67.468c-8.318,0-15.345,14.963-15.345,32.675s7.027,32.665,15.345,32.665,15.34-14.96,15.34-32.665S61.423,23.514,53.107,23.514Z" transform="translate(4.042 0.964)" fill="#00a89d"/>
      <path id="Path_114" data-name="Path 114" d="M54.494,38.3c-9.376,0-18.143-1.632-24.687-4.6a1.065,1.065,0,0,1-.325-1.71,34.789,34.789,0,0,1,50.024,0A1.065,1.065,0,0,1,79.18,33.7C72.638,36.668,63.871,38.3,54.494,38.3ZM32.124,32.379c6.1,2.453,13.967,3.793,22.372,3.793S70.77,34.83,76.869,32.379a32.665,32.665,0,0,0-44.745,0Z" transform="translate(2.648 0.964)" fill="#00a89d"/>
      <path id="Path_115" data-name="Path 115" d="M54.5,81.62A34.567,34.567,0,0,1,29.483,71.012a1.065,1.065,0,0,1,.325-1.71c6.544-2.965,15.311-4.6,24.687-4.6s18.143,1.632,24.687,4.6a1.065,1.065,0,0,1,.326,1.709A34.483,34.483,0,0,1,54.5,81.62ZM32.124,70.627a32.665,32.665,0,0,0,44.745,0c-6.1-2.453-13.968-3.793-22.373-3.793S38.221,68.176,32.124,70.627Z" transform="translate(2.648 10.326)" fill="#00a89d"/>
      <path id="Path_116" data-name="Path 116" d="M50.185,90.982a1.064,1.064,0,0,1-1.064-1.064V22.45a1.064,1.064,0,0,1,2.128,0V89.919A1.063,1.063,0,0,1,50.185,90.982Z" transform="translate(6.957 0.964)" fill="#00a89d"/>
      <path id="Path_117" data-name="Path 117" d="M89.918,51.458H22.45a1.064,1.064,0,0,1,0-2.128H89.919a1.064,1.064,0,1,1,0,2.128Z" transform="translate(0.963 7.003)" fill="#00a89d"/>
      <path id="Path_118" data-name="Path 118" d="M51.362,18.326a7.659,7.659,0,1,1,7.662-7.657A7.667,7.667,0,0,1,51.362,18.326Zm0-12.885a5.227,5.227,0,1,0,5.229,5.229A5.235,5.235,0,0,0,51.362,5.441Z" transform="translate(5.785 -3.008)" fill="#00a89d"/>
      <path id="Path_119" data-name="Path 119" d="M51.362,99.713a7.659,7.659,0,1,1,7.662-7.657A7.667,7.667,0,0,1,51.362,99.713Zm0-12.885a5.227,5.227,0,1,0,5.229,5.229A5.235,5.235,0,0,0,51.362,86.828Z" transform="translate(5.785 14.582)" fill="#00a89d"/>
      <path id="Path_120" data-name="Path 120" d="M80.14,30.247a7.652,7.652,0,1,1,5.411-2.241A7.611,7.611,0,0,1,80.14,30.247Zm-.006-12.888a5.231,5.231,0,1,0,3.7,1.534A5.2,5.2,0,0,0,80.134,17.358Z" transform="translate(12.004 -0.432)" fill="#00a89d"/>
      <path id="Path_121" data-name="Path 121" d="M22.589,87.8A7.652,7.652,0,1,1,28,85.554,7.61,7.61,0,0,1,22.589,87.8Zm0-12.887a5.225,5.225,0,1,0,3.7,1.532A5.2,5.2,0,0,0,22.585,74.908Z" transform="translate(-0.433 12.005)" fill="#00a89d"/>
      <path id="Path_122" data-name="Path 122" d="M92.052,59.023a7.662,7.662,0,1,1,7.662-7.662A7.667,7.667,0,0,1,92.052,59.023Zm0-12.891a5.229,5.229,0,1,0,5.229,5.229A5.233,5.233,0,0,0,92.052,46.132Z" transform="translate(14.58 5.786)" fill="#00a89d"/>
      <path id="Path_123" data-name="Path 123" d="M10.664,59.023a7.662,7.662,0,1,1,7.662-7.662A7.667,7.667,0,0,1,10.664,59.023Zm0-12.891a5.229,5.229,0,1,0,5.229,5.229A5.232,5.232,0,0,0,10.664,46.132Z" transform="translate(-3.009 5.786)" fill="#00a89d"/>
      <path id="Path_124" data-name="Path 124" d="M80.132,87.8a7.662,7.662,0,1,1,5.418-2.245A7.6,7.6,0,0,1,80.132,87.8Zm.006-12.888a5.228,5.228,0,1,0,3.692,1.53A5.2,5.2,0,0,0,80.139,74.907Z" transform="translate(12.005 12.005)" fill="#00a89d"/>
      <path id="Path_125" data-name="Path 125" d="M22.584,30.246A7.659,7.659,0,1,1,28,28,7.609,7.609,0,0,1,22.584,30.246Zm.006-12.888a5.223,5.223,0,1,0,3.693,1.531A5.2,5.2,0,0,0,22.59,17.357Z" transform="translate(-0.433 -0.433)" fill="#00a89d"/>
    </g>
  </g>
</svg>
