<svg xmlns="http://www.w3.org/2000/svg" width="13.688" height="13.689" viewBox="0 0 13.688 13.689">
  <path id="link_icon" data-name="link icon" d="M8.493,11a.746.746,0,0,0,0-1.056,2.1,2.1,0,0,1,0-2.966l2.514-2.513a2.1,2.1,0,1,1,2.966,2.966L13.2,8.2a.746.746,0,0,0,1.056,1.056l.777-.776A3.59,3.59,0,1,0,9.951,3.405L7.437,5.918a3.59,3.59,0,0,0,0,5.077.747.747,0,0,0,1.056,0ZM9.95,7.427a.746.746,0,0,0,0,1.056,2.1,2.1,0,0,1,0,2.966L7.462,13.936A2.1,2.1,0,1,1,4.5,10.97l.729-.728A.746.746,0,1,0,4.17,9.186l-.728.729a3.59,3.59,0,0,0,5.077,5.077L11.007,12.5a3.59,3.59,0,0,0,0-5.077.746.746,0,0,0-1.056,0Z" transform="translate(-2.391 -2.354)" fill="#00a89d" fill-rule="evenodd"/>
</svg>
