<?xml version="1.0" encoding="utf-8"?>
<!-- Generator: Adobe Illustrator 19.0.0, SVG Export Plug-In . SVG Version: 6.00 Build 0)  -->
<svg version="1.1" id="Layer_1" xmlns="http://www.w3.org/2000/svg" xmlns:xlink="http://www.w3.org/1999/xlink" x="0px" y="0px"
	 viewBox="-114 113.7 11.2 14.3" style="enable-background:new -114 113.7 11.2 14.3;" xml:space="preserve">
<style type="text/css">
	.st0{fill:#00A89D;stroke:#FFFFFF;stroke-width:0.2;}
</style>
<g id="location-svgrepo-com_3_" transform="translate(-159.9 -63.9)">
	<path id="Path_47494" class="st0" d="M56,183.3c0-2.5-2-4.5-4.5-4.5c-2.5,0-4.5,2-4.5,4.5c0,1.8,1.5,4.3,4.5,7.1
		C54.5,187.5,56,185.1,56,183.3z M51.5,191.8c-3.7-3.3-5.5-6.2-5.5-8.5c0-3,2.5-5.5,5.5-5.5c3,0,5.5,2.5,5.5,5.5
		C57,185.6,55.2,188.4,51.5,191.8L51.5,191.8z"/>
	<path id="Path_47495" class="st0" d="M51.5,184.8c0.8,0,1.5-0.7,1.5-1.5s-0.7-1.5-1.5-1.5s-1.5,0.7-1.5,1.5S50.7,184.8,51.5,184.8z
		 M51.5,185.8c-1.4,0-2.5-1.1-2.5-2.5s1.1-2.5,2.5-2.5s2.5,1.1,2.5,2.5C54,184.6,52.9,185.8,51.5,185.8
		C51.5,185.8,51.5,185.8,51.5,185.8L51.5,185.8z"/>
</g>
</svg>
