<svg xmlns="http://www.w3.org/2000/svg" width="84.274" height="76.683" viewBox="0 0 84.274 76.683">
  <g id="Moths" transform="translate(-4.571 -8.657)">
    <path id="Path_47459" data-name="Path 47459" d="M58.775,23.6A2.708,2.708,0,0,0,56.3,22.546a14.392,14.392,0,0,0-1.4-2.891c1.047-2.286,4.558-8.1,8.481-8.1a1.449,1.449,0,1,0,0-2.9c-4.21,0-7.492,3.815-9.372,6.7-1.355-3.163-4.492-5.387-7.2-5.387-2.768,0-5.97,2.315-7.278,5.579-1.858-2.9-5.191-6.891-9.5-6.891a1.449,1.449,0,0,0,0,2.9c3.92,0,7.434,5.815,8.481,8.1a14.109,14.109,0,0,0-1.4,2.891A2.71,2.71,0,0,0,34.644,23.6C25.275,34.158,2.593,73.99,4.709,79.924A7.732,7.732,0,0,0,11.777,85.3c.322.029.652.04.993.04,8.122,0,19.995-7.785,25.877-14.473,2.192,7.919,4.9,11.941,8.061,11.941s5.869-4.021,8.061-11.941C60.652,77.555,72.524,85.34,80.646,85.34c.337,0,.667-.014.993-.04a7.732,7.732,0,0,0,7.068-5.376C90.822,73.99,68.14,34.157,58.782,23.6ZM50.189,75.32H43.215a39.712,39.712,0,0,1-1.565-4.456h10.1a39.711,39.711,0,0,1-1.565,4.456Zm2.261-7.354H40.958c-.025,0-.047.014-.072.014a.451.451,0,0,0-.014-.058c.112-.181.25-.37.348-.547a13.448,13.448,0,0,0,1.188-3.869c.007,0,.014,0,.022,0h8.546c.007,0,.014,0,.022,0a13.376,13.376,0,0,0,1.188,3.869c.1.178.235.366.348.547a.451.451,0,0,1-.014.058c-.025,0-.047-.014-.072-.014Zm-.21-38.637a1.394,1.394,0,0,0-.446-.091c-.373-.112-1.355-1.652-1.355-4.452,0-2.782.971-4.318,1.348-4.449h.007a10.756,10.756,0,0,1,2.116,4.271,20.264,20.264,0,0,0-1.67,4.724ZM49.5,31.068a7.707,7.707,0,0,1-2.8.489,8.272,8.272,0,0,1-2.833-.46c1.221-1.246,2-3.514,2-6.311a9.492,9.492,0,0,0-1.822-6.155A7.741,7.741,0,0,1,46.7,18.2a7.829,7.829,0,0,1,2.659.427,9.481,9.481,0,0,0-1.822,6.151c0,2.771.761,5.028,1.964,6.282Zm-7.89-10.734c.377.116,1.355,1.656,1.355,4.452s-.982,4.34-1.333,4.449a1.431,1.431,0,0,0-.467.094A20.265,20.265,0,0,0,39.5,24.6a10.822,10.822,0,0,1,2.116-4.275Zm8.517,32.92H43.28c.029-1.449.025-2.942,0-4.456h6.862c-.029,1.514-.033,3.007,0,4.456Zm-6.952,2.9h7.05c.076,1.587.192,3.087.348,4.456H42.831C42.987,59.235,43.1,57.739,43.179,56.152ZM50.218,45.9H43.19c-.062-1.493-.152-2.985-.268-4.456h7.564c-.116,1.471-.2,2.963-.268,4.456Zm.529-7.354H42.664c-.185-1.779-.409-3.492-.67-5.1a10.8,10.8,0,0,0,4.713,1.007,10.276,10.276,0,0,0,4.724-1.065c-.268,1.623-.5,3.355-.681,5.159ZM46.8,12.866c1.456,0,3.481,1.413,4.442,3.427A10.186,10.186,0,0,0,46.7,15.3a10.389,10.389,0,0,0-4.271.866c.982-1.945,2.945-3.3,4.369-3.3ZM12.019,82.413A4.887,4.887,0,0,1,7.44,78.956C6.331,74.863,26.166,37.562,36.749,25.578a1.539,1.539,0,0,0,.127.141c2.92,4,5.26,34.1,1.815,40.235-3.6,6.409-18.451,17.121-26.675,16.458Zm34.684-2.5c-.431,0-1.13-.464-1.964-1.692h3.927C47.833,79.449,47.134,79.909,46.7,79.909Zm39.264-.96a4.887,4.887,0,0,1-4.579,3.463c-8.289.67-23.074-10.053-26.675-16.458C51.3,59.89,53.561,30.317,56.445,25.847c.014-.014.036-.018.051-.036a1.473,1.473,0,0,0,.156-.235C67.233,37.555,87.076,74.866,85.966,78.95Z" transform="translate(0)" fill="#00a89d"/>
    <path id="Path_47460" data-name="Path 47460" d="M21.655,66.031a5.709,5.709,0,1,0,5.709,5.709A5.716,5.716,0,0,0,21.655,66.031Zm0,8.524a2.811,2.811,0,1,1,2.811-2.811A2.814,2.814,0,0,1,21.655,74.555Z" transform="translate(-0.825 -4.163)" fill="#00a89d"/>
    <path id="Path_47461" data-name="Path 47461" d="M32.1,51.273a6.278,6.278,0,1,0,6.278,6.278A6.283,6.283,0,0,0,32.1,51.273Zm0,9.658a3.38,3.38,0,1,1,3.38-3.38A3.384,3.384,0,0,1,32.1,60.931Z" transform="translate(-1.542 -3.093)" fill="#00a89d"/>
    <path id="Path_47462" data-name="Path 47462" d="M35.763,37.344a4.731,4.731,0,1,0,4.731,4.731A4.737,4.737,0,0,0,35.763,37.344Zm0,6.564A1.833,1.833,0,1,1,37.6,42.075,1.833,1.833,0,0,1,35.763,43.908Z" transform="translate(-1.92 -2.082)" fill="#00a89d"/>
    <path id="Path_47463" data-name="Path 47463" d="M71.742,71.741a5.709,5.709,0,1,0,5.709-5.709A5.716,5.716,0,0,0,71.742,71.741Zm5.709-2.811a2.811,2.811,0,1,1-2.811,2.811A2.814,2.814,0,0,1,77.451,68.93Z" transform="translate(-4.874 -4.164)" fill="#00a89d"/>
    <path id="Path_47464" data-name="Path 47464" d="M60.637,57.552a6.278,6.278,0,1,0,6.278-6.278A6.283,6.283,0,0,0,60.637,57.552Zm9.655,0a3.38,3.38,0,1,1-3.38-3.38A3.384,3.384,0,0,1,70.292,57.552Z" transform="translate(-4.069 -3.093)" fill="#00a89d"/>
    <path id="Path_47465" data-name="Path 47465" d="M58.766,42.075A4.731,4.731,0,1,0,63.5,37.343,4.737,4.737,0,0,0,58.766,42.075ZM63.5,40.242a1.833,1.833,0,1,1-1.833,1.833A1.833,1.833,0,0,1,63.5,40.242Z" transform="translate(-3.933 -2.082)" fill="#00a89d"/>
  </g>
</svg>
