<svg id="National_pollinator_strategies" data-name="National pollinator strategies" xmlns="http://www.w3.org/2000/svg" width="80.662" height="86.845" viewBox="0 0 80.662 86.845">
  <path id="Path_142" data-name="Path 142" d="M386.021,309.147a19.6,19.6,0,0,0-2.73-7.738c-2.643-4.578-8.221-9.668-14.92-13.616a53.412,53.412,0,0,0-12.193-5.33,11.684,11.684,0,0,0-3.784-14.889c1.08-6.138,2.869-10.109,5.91-13.173a1.306,1.306,0,1,0-1.855-1.84,21,21,0,0,0-4.526,6.925,34.624,34.624,0,0,0-1.95,6.8,11.683,11.683,0,0,0-8.443,0,34.624,34.624,0,0,0-1.95-6.8,21,21,0,0,0-4.526-6.925,1.306,1.306,0,1,0-1.855,1.84c3.041,3.065,4.829,7.035,5.91,13.173a11.678,11.678,0,0,0-3.782,14.888,53.409,53.409,0,0,0-12.195,5.33c-6.694,3.945-12.268,9.03-14.913,13.6l-.007.011a19.6,19.6,0,0,0-2.73,7.738,10.1,10.1,0,0,0,1.157,6.085,9.046,9.046,0,0,0,8.146,4.339,15.276,15.276,0,0,0,8.319-2.7,24.463,24.463,0,0,0,7.6-8.358l.237-.376A34.6,34.6,0,0,0,332.38,320.2a17.8,17.8,0,0,0,12.065,11.987v5.523a1.306,1.306,0,1,0,2.613,0V332.19A17.8,17.8,0,0,0,359.123,320.2a34.593,34.593,0,0,0,1.442-12.068l.237.375a24.464,24.464,0,0,0,7.6,8.358,15.276,15.276,0,0,0,8.319,2.7,9.046,9.046,0,0,0,8.146-4.339A10.089,10.089,0,0,0,386.021,309.147Zm-49.341-31.965a9.076,9.076,0,0,1,4.442-7.8,1.3,1.3,0,0,0,.153-.09,9.056,9.056,0,0,1,8.953,0,1.305,1.305,0,0,0,.155.091,9.07,9.07,0,0,1,3.182,12.409,33.925,33.925,0,0,0-15.626,0A9.044,9.044,0,0,1,336.679,277.182Zm21.3,32.957H333.52q-.012-2.031.165-4.251h24.134Q358,308.108,357.983,310.139Zm-12.231,19.714a16.183,16.183,0,0,1-6.393-3.372h12.785A16.186,16.186,0,0,1,345.752,329.853Zm-8.7-5.985a17.522,17.522,0,0,1-2.109-4.252h21.619a17.53,17.53,0,0,1-2.109,4.252ZM334.214,317a30.321,30.321,0,0,1-.6-4.251h24.266a30.32,30.32,0,0,1-.6,4.251ZM334,303.275l2.681-4.251h18.134l2.681,4.251Zm4.329-6.865,2.681-4.251h9.476l2.681,4.251Zm4.329-6.864,3.09-4.9,3.09,4.9Zm-27.876,27.412a6.5,6.5,0,0,1-5.883-3.033c-1.58-2.736-1.021-6.717,1.573-11.21h0c2.391-4.142,7.75-9,13.984-12.672a45.492,45.492,0,0,1,18.866-6.448L328.5,307.11l-.009.014-.4.633a1.312,1.312,0,0,0-.107.209C323.87,314.577,318.517,316.959,314.785,316.959Zm67.816-3.033a6.5,6.5,0,0,1-5.883,3.033c-3.732,0-9.084-2.382-13.2-8.993a1.308,1.308,0,0,0-.107-.21l-.4-.635-.007-.011L348.178,283.6a45.49,45.49,0,0,1,18.867,6.448c6.234,3.674,11.592,8.53,13.984,12.672C383.622,307.209,384.181,311.19,382.6,313.926Z" transform="translate(-305.421 -252.174)" fill="#00a89d"/>
  <path id="Path_143" data-name="Path 143" d="M525.07,913.034a1.307,1.307,0,0,0-1.83-.255,57.7,57.7,0,0,0-8.387,7.758,1.307,1.307,0,0,0,1.961,1.727,55.029,55.029,0,0,1,8-7.4A1.307,1.307,0,0,0,525.07,913.034Z" transform="translate(-502.386 -874.172)" fill="#00a89d"/>
  <path id="Path_144" data-name="Path 144" d="M1301.462,912.779a1.306,1.306,0,1,0-1.575,2.085,55.041,55.041,0,0,1,8,7.4,1.306,1.306,0,1,0,1.96-1.727A57.723,57.723,0,0,0,1301.462,912.779Z" transform="translate(-1241.654 -874.173)" fill="#00a89d"/>
</svg>
