<svg xmlns="http://www.w3.org/2000/svg" width="96.309" height="20.407" viewBox="0 0 96.309 20.407">
  <g id="pensoft_logo_1_" data-name="pensoft logo (1)" transform="translate(-4.147 -10.425)">
    <g id="Group_15862" data-name="Group 15862" transform="translate(4.147 10.425)">
      <path id="Path_27187" data-name="Path 27187" d="M22.045,25.475a1.1,1.1,0,0,0,.945.085,3.2,3.2,0,0,0,.975-.882,2.073,2.073,0,0,0-.066-2.9s-4.5-4.508-4.5-4.514c.342.013.7-.952.121-1.57.009,0-4.389-4.356-4.381-4.356-.69-.623-1.033-.913-1.56-.913H12.9c-.328,0-.487.267-.487.588v3.567a1,1,0,0,0,.259.853c0-.01-7.927,0-7.927,0a.513.513,0,0,0-.553.325.593.593,0,0,0,.083.582l5.4,7.553,3.918.005,2.819-2.049.249.28S6.32,29.728,6.329,29.724a.623.623,0,0,0-.193.653c.069.173.211.455.472.455h5.725a1.006,1.006,0,0,0,1.031-.942s0-1.6,0-1.61c0-.582.025-.577.775-.577H15.32c-.35.192-.957.5-.982.51s-.069.113-.108.237-.216.728-.251.76a.3.3,0,0,0-.039.213c.008.089.019.249.019.249H24.122v-.765H14.908a1.45,1.45,0,0,1,.163-.268c.042-.033,1.418-.725,1.824-.937h.518a2.416,2.416,0,0,0,2.376-1.184c.014-.021,1.147-2.088,1.219-2.156a1.1,1.1,0,0,1,.943-.405,1,1,0,0,1,.842.725.5.5,0,0,1-.121.505,1.774,1.774,0,0,1-.629.286Z" transform="translate(-4.147 -10.425)" fill="#457d5e" fill-rule="evenodd"/>
      <path id="Path_27188" data-name="Path 27188" d="M14.243,11.475a32.5,32.5,0,0,1,3.372,3.19c1.337,1.359,2.146,1.9,1.626,2.384a5,5,0,0,0-3.415-1.292H14.245a.574.574,0,0,1-.651-.658c-.006,0,0-3.677,0-3.677a2.063,2.063,0,0,1,.649.054Zm-8.7,5,5,7.006H13.8l3.2-2.338,1.115,1.425L7.473,30.434H12.28c.556,0,.8-.181.8-.681,0-.005,0-1.561,0-1.562,0-.816.467-.913,1.265-.913h1.53s1.906-.01,1.9,0a2.527,2.527,0,0,0,1.591-.469A19.586,19.586,0,0,0,20.7,24.518a1.556,1.556,0,0,1,1.587-.913,1.716,1.716,0,0,1,1.51,1.129,1.492,1.492,0,0,0,.065-2.174c0-.008-5.095-4.965-5.077-4.965a5.122,5.122,0,0,0-3.259-1.116Z" transform="translate(-4.601 -10.747)" fill="#72bf44" fill-rule="evenodd"/>
      <circle id="Ellipse_24" data-name="Ellipse 24" cx="0.262" cy="0.262" r="0.262" transform="translate(18.839 12.587)" fill="#457d5e"/>
    </g>
    <g id="Group_15867" data-name="Group 15867" transform="translate(24.122 15.418)">
      <g id="Group_15866" data-name="Group 15866" transform="translate(0 0)">
        <g id="Group_15865" data-name="Group 15865">
          <g id="Group_15863" data-name="Group 15863" transform="translate(2.216)">
            <path id="Path_27189" data-name="Path 27189" d="M37.071,20.692h3.261s2.942,0,2.942,0c1.954,0,1.477,1.429,1.153,1.786a7.247,7.247,0,0,1-2.359,1.666V21.232H38.821V30.12h3.243s-.01-2.893,0-2.893c.323-.128,2.3-1.19,3.131-1.683a7.259,7.259,0,0,0,2.494-2.427,3.727,3.727,0,0,0,.01-3.382,3.879,3.879,0,0,0-3.406-1.887c.02,0-5.47.011-5.47,0a1.2,1.2,0,0,0-1.273.924C37.537,18.784,37.071,20.692,37.071,20.692Z" transform="translate(-37.071 -17.836)"/>
            <path id="Path_27190" data-name="Path 27190" d="M94.547,21.323a3.192,3.192,0,0,0-1.23-2.511,5.167,5.167,0,0,0-3.195-.957h-7.1s-4.612,0-4.612,0c-1.117,0-2.549.233-3.155,1.31a3,3,0,0,0,.382,3.459c0-.005,3.252,3.657,3.235,3.668.354.506.145.992-.347.992H73.474V17.856H70.226v4.321l-3.572-4.323H51.146a3.191,3.191,0,0,1,2.114,2.839c0,.008.292,0,.292,0h.4v9.43h7.779l.742-2.839H57.2v-1.94h3.7l.674-2.83H57.2V20.7h6.32v9.428h3.244V22.6l3.46,3.932v3.587h8.986c1.23,0,2.764-.223,3.415-1.3a3.091,3.091,0,0,0-.471-3.46c.022,0-3.23-3.684-3.23-3.691-.321-.423-.405-.994.423-.994-.034.017,9.4.017,9.4,0,2.005,0,2.067,1.06,2.123,1.483a8.417,8.417,0,0,1-.287,3.673c-.423,1.329-1.179,1.677-1.651,1.677-.438,0-1.214-.3-1.635-1.711a8.579,8.579,0,0,1-.05-4.583c0,.016-3.926.016-3.926,0-.117,3.419.489,5.021,1.079,6.082,1.095,1.971,2.613,3.075,4.551,3.075,2.242,0,3.438-1.122,4.6-3.109A10.5,10.5,0,0,0,94.547,21.323Z" transform="translate(-41.66 -17.839)"/>
            <path id="Path_27191" data-name="Path 27191" d="M113.249,17.848a3.47,3.47,0,0,1,2.23,2.835c0-.005,1,0,1,0s-.005,9.016-.005,9.019a5.7,5.7,0,0,0,.534,2.6s3.084-1.9,3.088-1.9a5.448,5.448,0,0,1-.373-1.82s0-3.075,0-3.075h3.793l.809-2.839h-4.6V20.684h7.823v9.432H130.8V20.683h4.208s-.474-2.006-.467-2a1.211,1.211,0,0,0-1.337-.841h-5.418Z" transform="translate(-61.906 -17.831)"/>
          </g>
          <g id="Group_15864" data-name="Group 15864" transform="translate(0 13.489)">
            <rect id="Rectangle_3592" data-name="Rectangle 3592" width="11.286" height="0.765" transform="translate(59.801)"/>
            <path id="Path_27192" data-name="Path 27192" d="M33.783,37.848H90.031V38.6l-56.248.009Z" transform="translate(-33.783 -37.847)" fill-rule="evenodd"/>
          </g>
        </g>
      </g>
      <path id="Path_27193" data-name="Path 27193" d="M145.315,35.642a1.786,1.786,0,1,1-1.786-1.785A1.786,1.786,0,0,1,145.315,35.642Zm-3.153,0a1.366,1.366,0,1,0,1.366-1.366,1.366,1.366,0,0,0-1.366,1.366Zm1.066-.1v-.428h.416c.2,0,.234.126.234.21,0,.158-.086.217-.258.217h-.393Zm-.326.894h.326v-.625h.345c.248,0,.261.084.261.3a1.072,1.072,0,0,0,.036.323h.368v-.042c-.071-.028-.071-.086-.071-.319,0-.3-.071-.347-.2-.405a.382.382,0,0,0,.248-.379.449.449,0,0,0-.5-.452H142.9v1.6Z" transform="translate(-68.98 -23.057)" fill-rule="evenodd"/>
    </g>
  </g>
</svg>
