<svg xmlns="http://www.w3.org/2000/svg" width="188.77" height="169.301" viewBox="0 0 188.77 169.301">
  <g id="policymaker" transform="translate(-57.615 -26.949)">
    <path id="Path_24" data-name="Path 24" d="M195.078,618.574c-30.809.24-66.366-1.379-83.114-31.26-9.254-16.51-1.3-32.441,16.6-36.583,8.986-2.079,18.754-.754,27.2-4.468,11.045-4.863,16.778-16.824,24.762-25.873,9.707-11.005,23.973-18.194,38.648-18.194s29.411,7.631,36.872,20.266c4.979,8.431,6.6,18.447,6.819,28.234.481,21.4-6.51,44.451-24,56.789C226.368,616.3,210.374,618.453,195.078,618.574Z" transform="matrix(-0.914, 0.407, -0.407, -0.914, 549.379, 548.103)" fill="rgba(0,168,157,0.34)" opacity="0.377"/>
    <path id="Path_29" data-name="Path 29" d="M106.036,510.188a11.181,11.181,0,0,0,7.722,3.182,22.769,22.769,0,0,0,16.89-8.16c6.173-8.558-3.334-22.946-13.672-19.331C108.519,488.836,97.965,501.757,106.036,510.188Z" transform="translate(623.826 425.243) rotate(138)" fill="#00a89d"/>
    <path id="Icon_awesome-university" data-name="Icon awesome-university" d="M66.1,25.246v2.166a1.083,1.083,0,0,1-1.083,1.083H61.772v1.624a1.625,1.625,0,0,1-1.624,1.624H7.081a1.625,1.625,0,0,1-1.624-1.624V28.495H2.208a1.083,1.083,0,0,1-1.083-1.083V25.246a1.083,1.083,0,0,1,.669-1L33.2,12.332a1.082,1.082,0,0,1,.828,0L65.435,24.245A1.083,1.083,0,0,1,66.1,25.246ZM62.855,56.4H4.374a3.249,3.249,0,0,0-3.249,3.249v2.166A1.083,1.083,0,0,0,2.208,62.9H65.021A1.083,1.083,0,0,0,66.1,61.814V59.648A3.249,3.249,0,0,0,62.855,56.4Zm-50.9-22.49V49.9H7.081a1.625,1.625,0,0,0-1.624,1.624v2.707H61.772V51.526A1.625,1.625,0,0,0,60.148,49.9H55.274V33.91H46.61V49.9H37.947V33.91H29.283V49.9H20.619V33.91Z" transform="translate(103.528 74.92)" fill="#00a89d"/>
  </g>
</svg>
