<svg xmlns="http://www.w3.org/2000/svg" width="124.737" height="127.728" viewBox="0 0 124.737 127.728">
  <g id="Pollinator_monitoring_and_identification" data-name="Pollinator monitoring and identification" transform="translate(-8273.402 -1471.403)">
    <g id="Group_60" data-name="Group 60" transform="translate(8273.402 1522.883) rotate(-45)">
      <path id="Path_142" data-name="Path 142" d="M72.749,51.423a17.689,17.689,0,0,0-2.464-6.984c-2.386-4.132-7.42-8.726-13.467-12.29a48.206,48.206,0,0,0-11.005-4.81A10.546,10.546,0,0,0,42.4,13.9c.975-5.54,2.589-9.124,5.334-11.89A1.179,1.179,0,1,0,46.057.349,18.958,18.958,0,0,0,41.973,6.6a31.251,31.251,0,0,0-1.76,6.139,10.545,10.545,0,0,0-7.621,0A31.247,31.247,0,0,0,30.832,6.6,18.958,18.958,0,0,0,26.747.349,1.179,1.179,0,1,0,25.073,2.01c2.745,2.766,4.359,6.35,5.334,11.89a10.541,10.541,0,0,0-3.414,13.438,48.207,48.207,0,0,0-11.007,4.811C9.944,35.71,4.914,40.3,2.526,44.429l-.006.01A17.691,17.691,0,0,0,.056,51.423,9.114,9.114,0,0,0,1.1,56.916a8.165,8.165,0,0,0,7.353,3.917,13.787,13.787,0,0,0,7.508-2.44,22.081,22.081,0,0,0,6.858-7.544l.214-.339a31.226,31.226,0,0,0,1.3,10.893,16.065,16.065,0,0,0,10.89,10.819v4.985a1.179,1.179,0,0,0,2.358,0V72.221A16.064,16.064,0,0,0,48.471,61.4a31.223,31.223,0,0,0,1.3-10.893l.213.339a22.082,22.082,0,0,0,6.858,7.544,13.788,13.788,0,0,0,7.508,2.44A8.165,8.165,0,0,0,71.7,56.916,9.107,9.107,0,0,0,72.749,51.423ZM28.214,22.572a8.192,8.192,0,0,1,4.009-7.039,1.174,1.174,0,0,0,.138-.081,8.175,8.175,0,0,1,8.081,0,1.18,1.18,0,0,0,.14.082,8.186,8.186,0,0,1,2.872,11.2,32.455,32.455,0,0,0-7.052-.823,32.447,32.447,0,0,0-7.051.823A8.163,8.163,0,0,1,28.214,22.572ZM47.443,52.319H25.362q-.011-1.833.149-3.837H47.294Q47.454,50.485,47.443,52.319ZM36.4,70.113a14.607,14.607,0,0,1-5.77-3.044h11.54A14.61,14.61,0,0,1,36.4,70.113Zm-7.853-5.4a15.819,15.819,0,0,1-1.9-3.837H46.159a15.823,15.823,0,0,1-1.9,3.837Zm-2.561-6.2a27.366,27.366,0,0,1-.537-3.837h21.9a27.367,27.367,0,0,1-.537,3.837ZM25.8,46.124l2.42-3.837H44.586l2.42,3.837Zm3.908-6.2,2.42-3.837h8.553l2.42,3.837Zm3.908-6.2L36.4,29.311l2.789,4.422ZM8.452,58.474a5.871,5.871,0,0,1-5.31-2.737c-1.426-2.47-.921-6.063,1.42-10.118h0C6.721,41.88,11.557,37.5,17.184,34.181a41.061,41.061,0,0,1,17.029-5.82L20.827,49.584l-.008.012-.36.572a1.185,1.185,0,0,0-.1.189C16.652,56.324,11.821,58.474,8.452,58.474Zm61.21-2.737a5.871,5.871,0,0,1-5.31,2.737c-3.368,0-8.2-2.15-11.91-8.117a1.179,1.179,0,0,0-.1-.189l-.361-.573-.006-.01L38.592,28.361a41.058,41.058,0,0,1,17.029,5.82c5.627,3.316,10.463,7.7,12.622,11.437C70.584,49.674,71.089,53.267,69.663,55.737Z" fill="#00a89d"/>
      <path id="Path_143" data-name="Path 143" d="M9.516.469A1.179,1.179,0,0,0,7.864.238a52.077,52.077,0,0,0-7.57,7A1.179,1.179,0,0,0,2.064,8.8,49.663,49.663,0,0,1,9.286,2.12,1.179,1.179,0,0,0,9.516.469Z" transform="translate(10.959 34.608)" fill="#00a89d"/>
      <path id="Path_144" data-name="Path 144" d="M1.89.238A1.179,1.179,0,1,0,.468,2.12,49.694,49.694,0,0,1,7.69,8.8,1.179,1.179,0,0,0,9.46,7.241,52.1,52.1,0,0,0,1.89.238Z" transform="translate(52.092 34.608)" fill="#00a89d"/>
    </g>
    <g id="Ellipse_1" data-name="Ellipse 1" transform="translate(8277.529 1475.529)" fill="none" stroke="#00a89d" stroke-width="2.6">
      <circle cx="49.327" cy="49.327" r="49.327" stroke="none"/>
      <circle cx="49.327" cy="49.327" r="48.027" fill="none"/>
    </g>
    <g id="Rectangle_76" data-name="Rectangle 76" transform="translate(8366.666 1551.297) rotate(47)" fill="none" stroke="#00a89d" stroke-width="2.6">
      <path d="M0,0H36.149a10,10,0,0,1,10,10v.649a10,10,0,0,1-10,10H0a0,0,0,0,1,0,0V0A0,0,0,0,1,0,0Z" stroke="none"/>
      <path d="M1.3,1.3H36.149a8.7,8.7,0,0,1,8.7,8.7v.649a8.7,8.7,0,0,1-8.7,8.7H1.3a0,0,0,0,1,0,0V1.3A0,0,0,0,1,1.3,1.3Z" fill="none"/>
    </g>
  </g>
</svg>
