<svg xmlns="http://www.w3.org/2000/svg" width="174.177" height="143.798" viewBox="0 0 174.177 143.798">
  <g id="Practiotioner" transform="translate(-65.911 -40.843)">
    <path id="Path_26" data-name="Path 26" d="M195.078,618.574c-30.809.24-66.366-1.379-83.114-31.26-9.254-16.51-1.3-32.441,16.6-36.583,8.986-2.079,18.754-.754,27.2-4.468,11.045-4.863,16.778-16.824,24.762-25.873,9.707-11.005,23.973-18.194,38.648-18.194s29.411,7.631,36.872,20.266c4.979,8.431,6.6,18.447,6.819,28.234.481,21.4-6.51,44.451-24,56.789C226.368,616.3,210.374,618.453,195.078,618.574Z" transform="translate(442.002 627.449) rotate(169)" fill="rgba(0,168,157,0.34)" opacity="0.377"/>
    <path id="Path_31" data-name="Path 31" d="M106.036,510.188a11.181,11.181,0,0,0,7.722,3.182,22.769,22.769,0,0,0,16.89-8.16c6.173-8.558-3.334-22.946-13.672-19.331C108.519,488.836,97.965,501.757,106.036,510.188Z" transform="translate(78.224 -356.165)" fill="#00a89d"/>
    <path id="Icon_awesome-archive" data-name="Icon awesome-archive" d="M3.294,45.071a3.29,3.29,0,0,0,3.294,3.294H46.115a3.29,3.29,0,0,0,3.294-3.294V15.426H3.294Zm16.47-21.822A1.239,1.239,0,0,1,21,22.014H31.7a1.239,1.239,0,0,1,1.235,1.235v.823A1.239,1.239,0,0,1,31.7,25.308H21a1.239,1.239,0,0,1-1.235-1.235Zm29.646-21H3.294A3.29,3.29,0,0,0,0,5.544v4.941a1.652,1.652,0,0,0,1.647,1.647H51.056A1.652,1.652,0,0,0,52.7,10.485V5.544A3.29,3.29,0,0,0,49.409,2.25Z" transform="translate(114.375 85.893)" fill="#00a89d"/>
  </g>
</svg>
