<svg xmlns="http://www.w3.org/2000/svg" width="161.579" height="121.484" viewBox="0 0 161.579 121.484">
  <g id="Researcher" transform="translate(-708 -1422)">
    <path id="Path_23" data-name="Path 23" d="M198.881,623.661c-32.155.25-69.267-1.439-86.746-32.626-9.658-17.232-1.362-33.859,17.326-38.182,9.379-2.17,19.574-.786,28.388-4.663,11.528-5.076,17.511-17.559,25.844-27C193.824,509.7,208.714,502.2,224.03,502.2s30.7,7.964,38.483,21.152c5.2,8.8,6.889,19.254,7.117,29.468.5,22.334-6.794,46.394-25.048,59.271C231.538,621.289,214.845,623.535,198.881,623.661Z" transform="translate(599.924 919.804)" fill="rgba(0,168,157,0.34)" opacity="0.377"/>
    <path id="Path_28" data-name="Path 28" d="M106.036,510.188a11.181,11.181,0,0,0,7.722,3.182,22.769,22.769,0,0,0,16.89-8.16c6.173-8.558-3.334-22.946-13.672-19.331C108.519,488.836,97.965,501.757,106.036,510.188Z" transform="translate(625.849 942.692)" fill="#00a89d"/>
    <path id="Icon_map-university" data-name="Icon map-university" d="M47.075,35.934c-10.445,0-19.32,3.037-25.116,7.8v8.855H72.195V43.732C66.4,38.971,57.522,35.934,47.075,35.934ZM93.2,31.39,46.953,10.08.729,31.39l7.705,3.526v5.424C6.5,40.739,6.5,41.752,6.5,42.956A3.23,3.23,0,0,0,7.18,45L4.537,50.655h9.429l-2.62-5.661a3.109,3.109,0,0,0,.8-1.944c0-1.2-1.781-2.313-1.781-2.713V35.822l9.661,4.34v-.384c5.8-5.041,15.981-8.241,27.046-8.241s21.257,3.2,27.054,8.241v.384Z" transform="translate(743.271 1455.253)" fill="#00a89d"/>
  </g>
</svg>
