<svg xmlns="http://www.w3.org/2000/svg" width="433" height="109.597" viewBox="0 0 433 109.597">
  <g id="RIO-logo-black_1_" data-name="RIO-logo-black (1)" transform="translate(-9.633 -9.088)">
    <g id="Group_16087" data-name="Group 16087" transform="translate(9.633 9.088)">
      <g id="Group_16085" data-name="Group 16085">
        <g id="Group_16080" data-name="Group 16080" transform="translate(29.486 66.071)">
          <path id="Path_47498" data-name="Path 47498" d="M51.367,77.164a11.8,11.8,0,0,1-1.593,1.562c-1.7,1.7-4.3,9.544-5.725,13.132-.06.151-.119.293-.174.435-1.378,3.34.947,5.438,2.128,8.778s-2.943,2.8-2.943,2.8H35.48c-3.258-1.056-3.012-4.009-2.422-6.664.129-.585.39-1.533.727-2.714,1.68-5.874,5.337-17.475,5.172-19.105-.129-1.3-1.6-9.323-2.586-14.61,2.318,2.563,5.8,4.37,8.262,6.458,1.51,1.277,3.547,6.257,4.462,7.213C50.712,76.125,51.106,76.55,51.367,77.164Z" transform="translate(-32.7 -60.775)" fill="#3bc9d0"/>
        </g>
        <path id="Path_47499" data-name="Path 47499" d="M88.678,47.823" transform="translate(12.364 1.692)" fill="#3bc9d0"/>
        <path id="Path_47500" data-name="Path 47500" d="M77.191,72.054a12.394,12.394,0,0,0,2.961,1.985c2.505,1.327,3.712,4.007,1.9,6.544-.344.482-.275,12.921,1.63,14.487s4.471,7.745-.745,6.751H72.909c-2.875-.929-1.5-5.021-1.474-7.47.027-2.192.5-4.248.495-6.408,0-2.8.541-5.42.175-8.221-.051-.348-.092-.7-.12-1.039a45.9,45.9,0,0,1-.063-7.334,25.784,25.784,0,0,0,.164-2.782C72.108,69.608,76.336,71.26,77.191,72.054Z" transform="translate(7.468 7.464)" fill="#3bc9d0"/>
        <g id="Group_16081" data-name="Group 16081" transform="translate(0 17.417)">
          <path id="Path_47501" data-name="Path 47501" d="M119.7,93.444c0,3.145,0,3.145-1.373,4.326s-3.148,6.685-3.937,10.024-1.963,3.936-3.734,3.738c-.995-.1-1.954-1.71-2.481-2.4-1.149-1.511-2.179-3.118-3.185-4.719-.642-1.021-2.793-3.419-2.5-4.54.426-1.625,3.313-1.914,4.471-2.76a8.616,8.616,0,0,0,2.513-3.474c.527-1.043.119-2.093-7.731-6.472q-1.112-.619-2.444-1.337c-.051-.027-.1-.051-.151-.079l-.009,0L89.3,79.4v0a13.086,13.086,0,0,1-1.067-1.809,15.092,15.092,0,0,1-1.565-6.765l-13.96,2.366a21.312,21.312,0,0,0,1.359,4.524c.957,2.159-2.535,7.071-3.524,8.06s-1.41,7.891-1.41,7.891-.312,1.676-.587,3.877c-.477,3.886-.841,9.448.784,10.582,1.427.988,2.774,2.084,3.047,3.534a6.063,6.063,0,0,1-.5,2.82l-7.227.031c-3.936-.19-7.607.467-7.607-5.309,0-1.305.6-4.915,1.208-8.82.587-3.753,1.186-7.776,1.286-10.285a8.043,8.043,0,0,0-.715-3.66c-1.034-2.3-3.423-3.621-4.4-6.954S46.946,73,43.211,68.867a7.519,7.519,0,0,1-1.3-2.185.013.013,0,0,0-.005-.009c-2.174-5.314-1.446-14.912-1.446-14.912s-1.378.394-2.558,3.734-6.289,11.012-9.04,12.976-8.46,6.293-11.6,8.847c-2.957,2.4-7.116,5.84-7.625,6.253.933-.979,16.03-16.8,20.6-20.8C32.628,60.681,34.309,54.749,36.7,48,39.018,41.428,42,34.088,46.945,28.75c10.033-10.81,23.009-3.932,27.119-3.309a34.321,34.321,0,0,0,7.213.165c1.012-.073,1.681-.156,1.745-.165.3-.082.589-.164.879-.238.059.534.123,1.016.183,1.41.421,2.733,2.517,7.887,4.507,9.3s2.2,1.213,2.412,2.125,1.048,1.519,2.1,3.036,4.718,6.974,5.662,7.985a72.6,72.6,0,0,0,7.548,6.472c1.891,1.4,2.837,1.191,3.379.647a7.305,7.305,0,0,0-.468,1.213c-1.4,4.837.477,13.707.646,17.566.11,2.568,1.809,5.2,3.652,7.426,1.4,1.7,2.884,3.157,3.823,4.174C119.5,88.928,119.7,90.3,119.7,93.444Z" transform="translate(-9.633 -22.713)" fill="#3bc9d0"/>
        </g>
        <g id="Group_16083" data-name="Group 16083" transform="translate(100.058 33.138)">
          <g id="Group_16082" data-name="Group 16082" transform="translate(0 17.75)">
            <path id="Path_47502" data-name="Path 47502" d="M87.908,48.9" transform="translate(-87.908 -48.897)" fill="#3bc9d0"/>
          </g>
          <path id="Path_47503" data-name="Path 47503" d="M89.72,45.43c2.218-2.233,1-4.359,1.565-7.079.426-2.039,3.083-5.081,4.634-2.081-4.824-2.257-3.612,7.544-6.2,8.9Z" transform="translate(-87.404 -35.011)" fill="#3bc9d0"/>
        </g>
        <g id="Group_16084" data-name="Group 16084" transform="translate(75.118)">
          <path id="Path_47504" data-name="Path 47504" d="M149.452,59.7c-.667,2.435-1.406,6.018-2.9,8.1-1.712,2.374-5.716,4.39-8.641,4.056a14.477,14.477,0,0,1-7.772-3.905,26.608,26.608,0,0,1-2.055-3.248,7.49,7.49,0,0,1-.828-5.613c.234-1.2-.8-2.734-1.621-3.455-3.381,2.985-5.434,2.465-9.918,1.487a28.151,28.151,0,0,1-3.707-.988c-1.511-.559-2.49-.366-4.116-.536a8.157,8.157,0,0,1-3.615-1.866c-2.5-.979-5.1-1.868-6.265-.5-.005,0-.014.008-.014.018-.027.047-.014.1.036.151.192.193.156.477-.1.9a6.786,6.786,0,0,1-.467.654c-.486.362-1.446,1.167-3.1,2.618-.5.344-1.264.4-2.555-.4-.192-.12-.4-.261-.619-.421a72.915,72.915,0,0,1-7.547-6.468c-.943-1.015-4.613-6.476-5.663-7.991s-1.885-2.123-2.1-3.035-.417-.709-2.407-2.123c-1.813-1.291-3.708-5.667-4.349-8.5-.064-.284-.119-.555-.157-.807-.692-4.491-1.373-9.726,1.793-13.246,6.417-7.124,20.44-6.848,27.8-1.778,1.574,1.084,5.41,4.128,6.389,5.015a32.752,32.752,0,0,1,2.343,2.481c.247.284.412.465.412.465s4.91,3.538,8.354,4.425c3.835,1.868,7.275,7.27,7.277,7.273,1.315,2.067,2.985,3.621,4.128,5.857,2.188,4.28,4.682,8.924,6.4,13.216a9.854,9.854,0,0,1,.582,1.969c0,.49,2.179,5.208.6,6.783a1.767,1.767,0,0,0-.238.312,1.734,1.734,0,0,0-.2.859,5.962,5.962,0,0,0,1.291,3.055c1.644,2.159,5.227,1.931,7.008.009a3.946,3.946,0,0,0,.667-.966,8.1,8.1,0,0,0,.984-4.324c-.023-.28-.493-.55-.536-.833-.1-.7-.64-1.818.16-2.307.773-.472,1.671.53,2.48.43,1.093-.142,2.37-2.032,3.232-.2A7.472,7.472,0,0,1,149.452,59.7Z" transform="translate(-68.398 -9.088)" fill="#3bc9d0"/>
        </g>
        <path id="Path_47505" data-name="Path 47505" d="M101.194,33.4c-.142.143,1.032,1.177,1.182,1.272a2.98,2.98,0,0,0,1.414.461c.635.047,2.546-.709,2.815-.042a4.959,4.959,0,0,0-.683-1.634,2.78,2.78,0,0,0-1.415-1.078A3.782,3.782,0,0,0,101.194,33.4Z" transform="translate(15.844 -2.628)" fill="#fff"/>
        <path id="Path_47506" data-name="Path 47506" d="M101.811,33.374c-.226.222,1.184,1.064,1.369,1.113a6.81,6.81,0,0,0,1.654.029c.571.009.832.055.552-.566a2.219,2.219,0,0,0-1.323-1.273A2.578,2.578,0,0,0,101.811,33.374Z" transform="translate(16.012 -2.538)" fill="#fff"/>
      </g>
      <g id="Group_16086" data-name="Group 16086" transform="translate(172.131 10.167)">
        <path id="Path_47507" data-name="Path 47507" d="M258.567,18.9s-9.875-4.079-19.748-.143v28.01c3.07-12.188,13.607-16.91,17.876-18.112.38-.1,1.873-.352,1.873-.352Z" transform="translate(-117.985 -17.041)" fill="#191930"/>
        <path id="Path_47508" data-name="Path 47508" d="M258.73,110.835a32.265,32.265,0,0,1-20,0v-59.3c.767-19.284,20-19.944,20-19.928C258.775,31.6,258.73,110.835,258.73,110.835Z" transform="translate(-118.009 -12.988)" fill="#191930"/>
        <path id="Path_47509" data-name="Path 47509" d="M164.527,36.471v72.9a36.284,36.284,0,0,1-20.235.235V51.822a21.585,21.585,0,0,1,1.278-2.991C150.6,38.739,161.348,36.82,164.527,36.471Z" transform="translate(-144.291 -11.634)" fill="#191930"/>
        <path id="Path_47510" data-name="Path 47510" d="M244.02,114.85c-8.646,3.382-21.848.084-21.848.084L205.58,75.946H188.242c-6.132,0-6.659-4.6-6.659-9.206,0-5.72.6-9.03,7.064-9.03h17.6c3.5,0,5.365-4.11,5.49-4.447,3.046-6.7,1.216-18.448-7.59-18.448H164.526v.046a23.4,23.4,0,0,0-17.762,12.5c-.171.317-.343.647-.518,1a26.178,26.178,0,0,0-1.956,5.592V26.122c0-9.218,8.921-8.942,8.921-8.942h54.149c25.1,0,31.612,36.843,16.356,49.569Z" transform="translate(-144.291 -17.003)" fill="#191930"/>
        <path id="Path_47511" data-name="Path 47511" d="M260.916,67.688" transform="translate(-111.836 -2.947)" fill="#191930"/>
        <path id="Path_47512" data-name="Path 47512" d="M356.677,70.375c.173-.087.346-.184.522-.279.511-.291,1.026-.6,1.538-.945.1-.064.2-.133.293-.2a22.11,22.11,0,0,0,3.138-2.62c.095-.089.185-.187.275-.281.137-.146.277-.293.414-.446.092-.1.183-.2.27-.3a22.7,22.7,0,0,0,2.352-3.219c.189-.307.385-.626.579-.965a26.687,26.687,0,0,0,2.475-6.106,49.424,49.424,0,1,1-.417-1.6q-.479,1.012-1.021,1.917c-4.9,8.49-13.744,10.551-18.069,11.046a28.6,28.6,0,1,0-.7,6.694c.45-.065.941-.147,1.465-.256.249-.05.506-.109.773-.171.173-.04.345-.082.524-.129.34-.086.686-.182,1.043-.289.178-.051.357-.107.542-.17.317-.1.639-.211.966-.334.185-.066.367-.137.557-.212.11-.043.22-.087.33-.133Z" transform="translate(-109.059 -16.992)" fill="#191930"/>
      </g>
    </g>
  </g>
</svg>
