<svg xmlns="http://www.w3.org/2000/svg" width="216.506" height="44.026" viewBox="0 0 216.506 44.026">
  <g id="safe-hub_logo_v2.2.svg-01" transform="translate(-27.1 -44.181)">
    <path id="Path_197" data-name="Path 197" d="M129.878,70.816l-4.012-1.728c-2.16-.864-4.567-1.913-4.567-4.567,0-2.469,2.037-4.073,5.123-4.073a9.194,9.194,0,0,1,6.3,2.592l1.975-2.407a11.636,11.636,0,0,0-8.27-3.333c-5.061,0-8.764,3.148-8.764,7.406s3.024,6.11,5.616,7.159l4.012,1.79c2.592,1.173,4.629,2.037,4.629,4.876,0,2.654-2.16,4.505-5.8,4.505a11.231,11.231,0,0,1-7.838-3.333L116.3,82.049a13.112,13.112,0,0,0,9.751,4.2c5.863,0,9.5-3.518,9.5-7.962.062-4.135-2.469-6.11-5.678-7.468Z" transform="translate(-34.148 -5.022)" fill="#fff"/>
    <path id="Path_198" data-name="Path 198" d="M162.811,69a15.366,15.366,0,0,0-8.147,2.654l1.358,2.407a11.526,11.526,0,0,1,6.172-2.1c3.394,0,4.2,2.53,4.258,5.123-8.826.987-12.652,3.209-12.652,7.776,0,3.765,2.592,5.863,6.048,5.863a10.5,10.5,0,0,0,6.789-2.962h.123l.37,2.469h2.9V77.455C169.97,72.333,167.81,69,162.811,69Zm3.641,16.17c-1.975,1.728-3.641,2.654-5.678,2.654s-3.58-.864-3.58-3.209c0-2.654,2.222-4.259,9.258-5.061Z" transform="translate(-48.504 -9.501)" fill="#fff"/>
    <path id="Path_199" data-name="Path 199" d="M196.158,56.239a7.825,7.825,0,0,1,2.284.432l.741-2.592a9.291,9.291,0,0,0-3.456-.679c-4.135,0-6.048,2.654-6.048,6.912v3.209l-2.777.247v2.654h2.777V84.259H193.2v-17.9h4.32V63.522H193.2V60.312c.062-2.654.987-4.073,2.962-4.073Z" transform="translate(-61.175 -3.529)" fill="#fff"/>
    <path id="Path_200" data-name="Path 200" d="M225.028,78.69c0-5.925-3.024-9.69-8.27-9.69-4.691,0-9.258,4.135-9.258,10.862s4.32,10.862,9.875,10.862a11.733,11.733,0,0,0,6.851-2.1L222.991,86.4a9.024,9.024,0,0,1-5.184,1.543c-3.888,0-6.48-2.839-6.789-7.036H224.9a13.791,13.791,0,0,0,.123-2.222Zm-14.072-.617c.432-3.95,2.962-6.233,5.863-6.233,3.148,0,5.061,2.16,5.061,6.233Z" transform="translate(-69.062 -9.501)" fill="#fff"/>
    <path id="Path_201" data-name="Path 201" d="M242,83.8v2.716h9.751V83.8Z" transform="translate(-82.269 -15.167)" fill="#fff"/>
    <path id="Path_202" data-name="Path 202" d="M283.279,58.1V69.765h-12.9V58.1H266.8V86h3.58V72.912h12.9V86h3.58V58.1Z" transform="translate(-91.763 -5.329)" fill="#fff"/>
    <path id="Path_203" data-name="Path 203" d="M323.6,69.8V84.427c-1.913,2.407-3.394,3.456-5.493,3.456-2.716,0-3.888-1.666-3.888-5.493V69.8H310.7V82.884c0,5.246,1.975,8.085,6.357,8.085,2.839,0,4.876-1.481,6.789-3.765h.123l.309,3.209h2.9V69.8Z" transform="translate(-108.569 -9.808)" fill="#fff"/>
    <path id="Path_204" data-name="Path 204" d="M358.575,63.372a10.6,10.6,0,0,0-6.48,2.839l.123-3.7V54.3H348.7V84.542h2.777l.309-2.1h.124a9.189,9.189,0,0,0,5.863,2.654c4.691,0,8.949-4.135,8.949-11.171.062-6.419-2.839-10.554-8.147-10.554Zm-1.358,18.7a7.9,7.9,0,0,1-5-2.1v-10.8c1.975-1.852,3.765-2.777,5.493-2.777,3.888,0,5.431,3.024,5.431,7.591,0,5-2.53,8.085-5.925,8.085Z" transform="translate(-123.116 -3.874)" fill="#fff"/>
    <g id="_Radial_Repeat_" transform="translate(32.789 72.945)">
      <path id="Path_205" data-name="Path 205" d="M76.539,104.387a4.064,4.064,0,0,1-2.654,1.42l-.123-1.049-.062-.432a2.8,2.8,0,0,0,.987-.185,1.876,1.876,0,0,0,.8-.741l.309.309h0l.741.679Z" transform="translate(-50.629 -95.615)" fill="#faab44"/>
      <path id="Path_206" data-name="Path 206" d="M78.186,108.3l-.247,2.222c0,.185-.123.309-.309.432a.47.47,0,0,1-.494,0L75.1,109.781a4.242,4.242,0,0,0,3.086-1.481Z" transform="translate(-51.165 -97.491)" fill="#faab44"/>
      <path id="Path_207" data-name="Path 207" d="M75.8,101.8Z" transform="translate(-51.433 -95.003)" fill="#231f20"/>
      <path id="Path_208" data-name="Path 208" d="M71.664,101.1h0v.432l.062.309.062.432h0l.062.432.062.247.062.247.062.185-.123-.062c-.062-.062-.185-.062-.247-.123s-.185-.123-.247-.185a2.416,2.416,0,0,1-.494-.617c-.062-.123-.062-.247-.123-.37l.123-.185.247-.247.062-.062.123-.185.062-.062.185-.185Z" transform="translate(-49.518 -94.735)" fill="#231f20"/>
      <path id="Path_209" data-name="Path 209" d="M75.781,100.032a1.9,1.9,0,0,1,.185.8v.247a.371.371,0,0,1-.062.247l-.185-.123-.185-.185-.309-.309h0l-.432-.432-.247-.247-.062-.062-.185-.123h0l.247-.062h.062l.247-.062h.062l.247-.062.247-.062c.185.185.247.309.37.432Z" transform="translate(-50.858 -94.16)" fill="#231f20"/>
      <path id="Path_210" data-name="Path 210" d="M72.755,107.3l.062.432.123.741h0v.37a4.711,4.711,0,0,1-.494-.679,3.48,3.48,0,0,1-.247-.741.215.215,0,0,1,.123-.062h.123a.557.557,0,0,1,.309-.062Z" transform="translate(-50.054 -97.108)" fill="#231f20"/>
      <path id="Path_211" data-name="Path 211" d="M79.7,104.341a1.75,1.75,0,0,1,.247.8h0l-.123-.123-.185-.185-.062-.062-.37-.37-.309-.309c.062-.062.123-.185.185-.247h0a.321.321,0,0,0,.123-.247,2.216,2.216,0,0,1,.432.617l.062.123Z" transform="translate(-52.619 -95.692)" fill="#231f20"/>
      <path id="Path_212" data-name="Path 212" d="M72.2,101.1Z" transform="translate(-50.054 -94.735)" fill="#faab44"/>
      <path id="Path_213" data-name="Path 213" d="M72.047,100.6l-.062.062-.185.185h.309v-.185l-.062-.062Zm1.42-.741h0l.123.185h0c0-.062.062-.123.062-.185V99.8l-.185.062Z" transform="translate(-49.901 -94.237)" fill="#231f20"/>
      <path id="Path_214" data-name="Path 214" d="M69.453,101.1h0v.432l.062.309.062.432h0l.062.432.062.247.062.247.062.185h0l.062.37V104l.123,1.049.062.432.123.741h0v.494h0v.309a.227.227,0,0,1-.062.185,2.7,2.7,0,0,1-.8,1.481,2.726,2.726,0,0,1-1.728.741,1.99,1.99,0,0,1-1.6-.555,3.006,3.006,0,0,1-.926-1.666,1.756,1.756,0,0,1,0-.8c0-.123.062-.247.062-.37a4.253,4.253,0,0,1,.185-.494,2.74,2.74,0,0,1,.494-.679l.309-.309,1.481-1.481h0l.987-.987.123-.185.247-.247.062-.062.123-.185.062-.062.185-.185.062-.062Z" transform="translate(-47.308 -94.735)" fill="#e6e7e8"/>
      <path id="Path_215" data-name="Path 215" d="M78.418,98.313c-.185-.123-.309-.309-.494-.432-.062-.062-.185-.123-.247-.185a1.349,1.349,0,0,0-.309-.185,3.1,3.1,0,0,0-1.852-.247l-4.444.617h0c-.062-.062-.123-.062-.247-.123V97.7h0c0-.062-.062-.123-.062-.247v-.062h0l-.185-.37h0a.06.06,0,0,0-.062-.062l-.123-.123a.06.06,0,0,1-.062-.062c-.062-.062-.123-.062-.123-.123a.06.06,0,0,1-.062-.062h-.062a.877.877,0,0,0-.37-.123c-.062,0-.185-.062-.247-.062H69.1c-.062,0-.123.062-.247.062-.123.062-.309.123-.432.185-.062.123-.123.123-.185.185h0s-.062,0,0,.062l-.185.185v.062c-.062.062-.062.123-.123.185h0a4.254,4.254,0,0,0-.185.494v.741a1,1,0,0,0,.247.432h0l.185.185h0a.556.556,0,0,0-.062.309l-3.086,3.086a3.73,3.73,0,0,0-.864,1.6c0,.123-.062.247-.062.37v.309a2.531,2.531,0,0,0,.062.679,3.533,3.533,0,0,0,1.111,1.975,2.734,2.734,0,0,0,2.037.679,3.433,3.433,0,0,0,1.3-.37,2.348,2.348,0,0,0,.8-.555,3.753,3.753,0,0,0,.926-1.481c0-.062.062-.185.062-.247l2.345,1.358a1.239,1.239,0,0,0,1.049.062,1.026,1.026,0,0,0,.617-.864l.309-2.716v-.062c.062.062.185.062.247.123a3.762,3.762,0,0,0,1.852.247,4.078,4.078,0,0,0,.926-.309,4.315,4.315,0,0,0,1.049-.8,2.734,2.734,0,0,0,.679-2.037,4.163,4.163,0,0,0-1.049-2.222ZM70.951,101.4a1.876,1.876,0,0,0,.8-.741l.309.309h0l.741.741a4.064,4.064,0,0,1-2.654,1.42l-.123-1.049-.062-.432a1.811,1.811,0,0,0,.987-.247Zm.37-1.666Zm-1.6,3.826.123.741h0v.494h0v.309a.227.227,0,0,1-.062.185,2.7,2.7,0,0,1-.8,1.481,2.726,2.726,0,0,1-1.728.741,1.99,1.99,0,0,1-1.6-.555,3.006,3.006,0,0,1-.926-1.666,1.756,1.756,0,0,1,0-.8c0-.123.062-.247.062-.37a4.251,4.251,0,0,1,.185-.494,2.741,2.741,0,0,1,.494-.679l.309-.309,1.481-1.481h0l.987-.987.123-.185.247-.247.062-.062.123-.185.062-.062.185-.185.062-.062h0v.432l.062.309.062.432h0l.062.432.062.247.062.247.062.185h0l.062.37v.247l.123,1.049.062.432Zm4.012,2.407c0,.185-.123.309-.309.432a.47.47,0,0,1-.494,0l-2.037-1.173a3.908,3.908,0,0,0,3.086-1.42l-.247,2.16Zm5.061-5.493a1.922,1.922,0,0,1-.555,1.6,3.006,3.006,0,0,1-1.666.926,2.774,2.774,0,0,1-1.852-.309c-.062-.062-.123-.062-.185-.123s-.123-.062-.185-.123h0c-.062,0-.062-.062-.123-.123h0L74.1,102.2l-.185-.185-.062-.062-.37-.37-.309-.309-.494-.494-.432-.432h0l-.062-.062-.123-.123L72,100.1l-.185-.123-.185-.185-.309-.309h0l-.432-.432-.247-.247-.062-.062-.185-.123h0l.247-.062h.185l.247-.062h.062l.247-.062.247-.062,1.543-.247h0l2.037-.309.432-.062a2.04,2.04,0,0,1,.864,0c.185.062.37.062.555.123l.37.185a2.74,2.74,0,0,1,.679.494,4.468,4.468,0,0,1,.679,1.913Z" transform="translate(-46.954 -92.935)" fill="#231f20"/>
      <path id="Path_216" data-name="Path 216" d="M82.694,101.287a1.922,1.922,0,0,1-.555,1.6,3.006,3.006,0,0,1-1.666.926,2.774,2.774,0,0,1-1.852-.309c-.062-.062-.123-.062-.185-.123s-.123-.062-.185-.123h0c-.062,0-.062-.062-.123-.123h0L78,103.015l-.185-.185-.062-.062-.37-.37-.309-.309-.494-.494-.432-.432h0l-.062-.062-.123-.123-.062-.062-.185-.123-.185-.185-.309-.309h0l-.432-.432-.247-.247-.062-.062-.185-.123h0l.247-.062h.185l.247-.062h.062l.247-.062.247-.062,1.543-.247h0l2.037-.309.432-.062a2.039,2.039,0,0,1,.864,0c.185.062.37.062.555.123l.37.185a2.741,2.741,0,0,1,.679.494,3.784,3.784,0,0,1,.679,1.913Z" transform="translate(-50.858 -93.749)" fill="#e6e7e8"/>
      <path id="Path_217" data-name="Path 217" d="M43.616,107.3l-1.049.309a.832.832,0,0,1-1.049-.679l-.123-1.049a1.552,1.552,0,0,1,.617-1.42l3.7-2.962.123.062.062.062.062.062.123.062-1.358,4.567a1.641,1.641,0,0,1-1.111.987Z" transform="translate(-38.258 -94.888)" fill="#e6e7e8"/>
      <path id="Path_218" data-name="Path 218" d="M41.611,107.4h0a1.372,1.372,0,0,1-.494-.8l-.123-1.049a1.956,1.956,0,0,1,.679-1.666L45.5,100.8l.37.247.37.247-1.42,4.691a1.947,1.947,0,0,1-1.3,1.3l-1.049.309a1.173,1.173,0,0,1-.864-.185Zm4.012-5.925-3.518,2.839a1.292,1.292,0,0,0-.494,1.173l.123,1.049a.417.417,0,0,0,.247.37h0a.542.542,0,0,0,.432.062l1.049-.309a1.391,1.391,0,0,0,.926-.926l1.234-4.259Z" transform="translate(-38.105 -94.62)" fill="#231f20"/>
      <path id="Path_219" data-name="Path 219" d="M41.028,103.133l-.494.37h0l-.062.062a.06.06,0,0,0-.062.062c-.062.062-.062.062-.123.062a.06.06,0,0,0-.062.062h-.062c-.062,0-.062.062-.123.062s-.062.062-.123.062-.123.062-.185.062a2.764,2.764,0,0,1-1.419,0,2.8,2.8,0,0,1-1.3-.926,1.714,1.714,0,0,1-.247-1.358,2.085,2.085,0,0,1,.8-1.358l.555-.37a.556.556,0,0,1,.309-.062,1.2,1.2,0,0,1,.432-.062,3,3,0,0,1,.741.062l.37.123,1.666.494h0l1.111.309.185.062.309.062h.062l.185.062h.062l.185.062h.062l-.062.062-.123.062-.062.062-.185.123-.247.185h0l-.247.185-.123.123-.123.123-.123.123h0l-.247.185-.123.123-.679.494-.432.247Z" transform="translate(-36.472 -94.237)" fill="#00a89d"/>
      <path id="Path_220" data-name="Path 220" d="M37.479,103.582a2.128,2.128,0,0,1-.741-.741,1.621,1.621,0,0,1-.309-1.6,2.791,2.791,0,0,1,.864-1.481,3.347,3.347,0,0,1,.679-.37c.123-.062.247-.062.37-.123a1.2,1.2,0,0,1,.494-.062,3.26,3.26,0,0,1,.8.062l.37.123,3.826,1.049.247.185-.185.247-.309.247-2.222,1.728-.37.247-.8.555c-.062,0-.062.062-.123.062h0l-.062.062a.06.06,0,0,0-.062.062h-.123c-.062,0-.123.062-.185.062a2.212,2.212,0,0,1-1.543,0,5.712,5.712,0,0,1-.617-.309Zm5.616-2.716-3.641-.987a1.9,1.9,0,0,0-.617-.062.668.668,0,0,0-.37.062c-.123,0-.185.062-.247.062a.974.974,0,0,0-.494.309,1.921,1.921,0,0,0-.679,1.173,1.58,1.58,0,0,0,.247,1.173,2.589,2.589,0,0,0,1.111.864,2.1,2.1,0,0,0,1.234,0H39.7c.062,0,.062-.062.123-.062h.185l.062-.062.37-.247.494-.37.309-.247,1.852-1.6Zm-2.654,2.654Zm-.247-.432Z" transform="translate(-36.318 -94.007)" fill="#231f20"/>
      <path id="Path_221" data-name="Path 221" d="M50.009,108.665a1.854,1.854,0,0,1-1.358.309,2.371,2.371,0,0,1-1.358-.8,2.155,2.155,0,0,1-.494-1.481v-.37h0c0-.062,0-.062.062-.123h0c0-.062,0-.062.062-.123l.062-.247v-.062l.123-.37.123-.37.123-.555.123-.494h0v-.062l.062-.123v-.062l.062-.185.062-.185.123-.37h0l.123-.494.062-.247v-.062l.062-.185h0l.123.123v.062l.123.185.062.062.123.185.123.123.8.987h0l.987,1.358.247.309c.123.185.247.432.37.617.062.123.062.309.123.432a.463.463,0,0,0,.062.309c0,.247-.062.494-.062.679a3.564,3.564,0,0,1-1.111,1.234Z" transform="translate(-40.331 -95.079)" fill="#00a89d"/>
      <path id="Path_222" data-name="Path 222" d="M47.411,108.483a3.993,3.993,0,0,1-.555-.494,2.536,2.536,0,0,1-.555-1.6v-.555h0v-.185l1.173-4.2.185-.247.247.185.062.062,2.592,3.394a2.086,2.086,0,0,1,.37.741,1.163,1.163,0,0,1,.123.494v.309c0,.309-.062.555-.062.8a2.486,2.486,0,0,1-1.049,1.42,2.021,2.021,0,0,1-1.6.309,2.1,2.1,0,0,1-.926-.432Zm-.555-2.345h0v.247a2.327,2.327,0,0,0,.432,1.3,2.386,2.386,0,0,0,1.173.741,1.522,1.522,0,0,0,1.173-.247h0a2.589,2.589,0,0,0,.864-1.111,1.532,1.532,0,0,0,.062-.555v-.247a1.57,1.57,0,0,0-.123-.432,1.262,1.262,0,0,0-.309-.555l-.247-.309-2.037-2.654-.432,1.543-.555,2.1v.062h0v.123Z" transform="translate(-40.139 -94.773)" fill="#231f20"/>
      <path id="Path_223" data-name="Path 223" d="M40.34,96.241l-.679-.247h0l-.062-.062h-.062c-.062,0-.123-.062-.185-.062s-.062-.062-.123-.062h0a.06.06,0,0,1-.062-.062c-.062,0-.062-.062-.123-.062s-.062-.062-.123-.062c-.062-.062-.123-.062-.123-.123a2.468,2.468,0,0,1-.864-1.358,2.743,2.743,0,0,1,.123-1.852,2.075,2.075,0,0,1,1.173-1.111,2.557,2.557,0,0,1,1.79-.062,1.471,1.471,0,0,1,.679.37.482.482,0,0,1,.247.247l.37.37a4.148,4.148,0,0,1,.37.741l.123.37.555,1.913h0l.37,1.3.062.185.123.37v.062l.062.185v.062l.062.247.062.062h0l-.123-.062-.185-.062-.123-.062-.247-.062-.37-.123h0l-.37-.123-.185-.062-.185-.062-.185-.062h0l-.309-.123-.185-.062-.926-.37-.37-.123Z" transform="translate(-36.895 -90.863)" fill="#00a89d"/>
      <path id="Path_224" data-name="Path 224" d="M38.606,95.917h0l-.185-.185a2.757,2.757,0,0,1-.987-1.481,3.081,3.081,0,0,1,.123-1.975,2.422,2.422,0,0,1,1.3-1.3,3.081,3.081,0,0,1,1.975-.062,2.086,2.086,0,0,1,.741.37,1.346,1.346,0,0,1,.309.247,2.684,2.684,0,0,1,.37.432,5.1,5.1,0,0,1,.432.8l.123.37,1.358,4.382v.309h-.309l-.185-.062L40.334,96.6l-.432-.185-.926-.309c-.062,0-.062-.062-.123-.062h0l-.062-.062-.062-.062c-.062.062-.062,0-.123,0Zm2.654-4.2a1.109,1.109,0,0,0-.555-.247,2.172,2.172,0,0,0-2.654,1.049,2.559,2.559,0,0,0-.123,1.666,2.4,2.4,0,0,0,.8,1.234h0c.062.062.062.062.123.062a.06.06,0,0,1,.062.062h.123c.062,0,.062,0,.062.062h.062l.37.123.679.247.432.185,2.9,1.049-.247-.679-1.111-3.58a3.307,3.307,0,0,0-.309-.679c-.123-.123-.185-.247-.309-.37l-.247-.247c0,.123,0,.062-.062.062Z" transform="translate(-36.704 -90.786)" fill="#231f20"/>
      <path id="Path_225" data-name="Path 225" d="M51.422,105.3l-.617-.741-.123-.123-.185-.247h0l-.123-.123-.123-.185-.123-.185-.247-.309h0l-.247-.309-.185-.247-.062-.123-.123-.123-.062-.062h1.234l1.358-.062h0l1.975-.062H54.2a3.127,3.127,0,0,1,.8.123c.185.062.309.123.494.185a1.349,1.349,0,0,1,.309.185,1.593,1.593,0,0,1,.555.555,2.887,2.887,0,0,1,.555,1.728,1.971,1.971,0,0,1-.679,1.481,2.757,2.757,0,0,1-1.666.741,2.483,2.483,0,0,1-1.6-.37c-.062-.062-.123-.062-.185-.123-.062,0-.062-.062-.123-.062s-.062-.062-.062-.123a.06.06,0,0,1-.062-.062h0l-.062-.062-.123-.123a.06.06,0,0,1-.062-.062l-.062-.062h0l-.432-.555-.37-.494Z" transform="translate(-41.249 -95.232)" fill="#00a89d"/>
      <path id="Path_226" data-name="Path 226" d="M52.388,106.776h0l-.062-.062-.062-.062-.062-.062-.062-.062h0c-.062,0-.062-.062-.123-.062l-.185-.247-.062-.062-.062-.062-.432-.432-.309-.309-2.345-2.839-.123-.309.309-.123h1.234l3.7-.185a2.4,2.4,0,0,1,.926.123,5.825,5.825,0,0,1,.555.185l.37.185a1.962,1.962,0,0,1,.617.617,3.084,3.084,0,0,1,.617,1.913,2.447,2.447,0,0,1-.741,1.666,2.976,2.976,0,0,1-1.852.8,2.79,2.79,0,0,1-1.728-.432c-.062-.123-.123-.123-.123-.185Zm.247-.432c.062.062.062.062.123.062h.062a2.867,2.867,0,0,0,1.42.37,2.509,2.509,0,0,0,1.543-.679,1.681,1.681,0,0,0,.555-1.3,2.032,2.032,0,0,0-.494-1.543,3.723,3.723,0,0,0-.494-.494.468.468,0,0,0-.247-.123,3.009,3.009,0,0,0-.432-.185,1.52,1.52,0,0,0-.741-.062H53.5l-4.012.123,1.975,2.407.309.309.555.679v.062l.123.185h0l.062.062.062.062.062.062Z" transform="translate(-40.981 -95.041)" fill="#231f20"/>
      <circle id="Ellipse_2" data-name="Ellipse 2" cx="1.42" cy="1.42" r="1.42" transform="translate(6.716 4.576)" fill="#231f20"/>
    </g>
    <g id="_Radial_Repeat_-2" transform="translate(27.1 44.181)">
      <path id="Path_227" data-name="Path 227" d="M34.649,78.124a3.92,3.92,0,0,1,.123-3.024l.987.37.37.185a1.708,1.708,0,0,0-.309.987,2.421,2.421,0,0,0,.247,1.111l-.432.123h0l-.987.247Z" transform="translate(-29.897 -56.018)" fill="#f7d548"/>
      <path id="Path_228" data-name="Path 228" d="M29.737,77.894l-1.79-1.3A.641.641,0,0,1,27.7,76.1a.444.444,0,0,1,.247-.432l2.1-1.173a4.264,4.264,0,0,0-.309,3.394Z" transform="translate(-27.33 -55.788)" fill="#f7d548"/>
      <path id="Path_229" data-name="Path 229" d="M39.9,75.973h0l-.123-.062-.185-.062-.123-.062-.247-.123-.37-.123h0l-.37-.123-.247-.062-.247-.062-.185-.062.062-.062a.321.321,0,0,1,.247-.123.321.321,0,0,0,.247-.123,1.823,1.823,0,0,1,.8-.123c.123,0,.247.062.37.062l.062.185.123.37v.062l.062.185v.062l.062.247Z" transform="translate(-31.196 -55.903)" fill="#231f20"/>
      <path id="Path_230" data-name="Path 230" d="M38.934,80.249a1.357,1.357,0,0,1-.8-.247.468.468,0,0,0-.247-.123c-.062-.062-.123-.123-.185-.123l.185-.062.247-.062.432-.123h0l.555-.123.309-.062.123-.062.185-.062h0v.309l-.123.247v.062l-.123.247-.062.247a1.2,1.2,0,0,1-.494-.062Z" transform="translate(-31.158 -57.587)" fill="#231f20"/>
      <path id="Path_231" data-name="Path 231" d="M34.52,73.9l-.432-.185-.679-.247h0l-.062-.062h-.062c-.062,0-.123-.062-.185-.062a2.055,2.055,0,0,1,.864-.062,2.131,2.131,0,0,1,.8.185v.123c0,.062,0,.062-.062.123l-.185.185Z" transform="translate(-29.397 -55.313)" fill="#231f20"/>
      <path id="Path_232" data-name="Path 232" d="M33.5,81.455a1.9,1.9,0,0,1-.8-.185h0c.062,0,.062-.062.123-.062l.309-.062h.062l.494-.123.432-.123c.062.062.062.185.123.247h0c.062.062.062.123.123.247a3,3,0,0,1-.741.062Z" transform="translate(-29.244 -58.238)" fill="#231f20"/>
      <path id="Path_233" data-name="Path 233" d="M41.2,76.7Z" transform="translate(-32.498 -56.63)" fill="#faab44"/>
      <path id="Path_234" data-name="Path 234" d="M41.009,76.409l-.062-.062-.062-.247a.06.06,0,0,1-.062.062l-.123.123.185.062.123.062Zm-.062,1.6h0l-.247.062h0c.062.062.062.123.123.123l.062.062.062-.247Z" transform="translate(-32.306 -56.4)" fill="#231f20"/>
      <path id="Path_235" data-name="Path 235" d="M37.1,72.35h0l-.123-.062-.185-.062-.123-.062-.247-.123-.37-.123h0l-.37-.123-.247-.062-.247-.062-.185-.062h0l-.309-.123L34.45,71.3l-.987-.37-.432-.185-.679-.247h0l-.062-.062h-.062c-.062,0-.123-.062-.185-.062s-.062-.062-.123-.062h0a.06.06,0,0,1-.062-.062c-.062,0-.062-.062-.123-.062s-.062-.062-.123-.062c-.062-.062-.123-.062-.185-.123a2.579,2.579,0,0,1-.864-1.481,3.41,3.41,0,0,1,.185-1.913,1.958,1.958,0,0,1,1.3-1.111,2.905,2.905,0,0,1,1.913,0,4.148,4.148,0,0,1,.741.37c.123.062.185.185.309.247a2.685,2.685,0,0,1,.37.432,3.191,3.191,0,0,1,.37.8l.123.432.555,1.975h0l.37,1.358.062.185.123.37v.062l.062.185v.062l.062.247v.123Z" transform="translate(-28.402 -52.28)" fill="#e6e7e8"/>
      <path id="Path_236" data-name="Path 236" d="M31.976,80.417a2.579,2.579,0,0,0,.617-.247c.062-.062.185-.062.247-.123.123-.062.185-.123.309-.185a3.5,3.5,0,0,0,1.173-1.481l1.666-4.2h0c.062-.062.123-.062.247-.123H36.3c.062,0,.123.062.247.062H36.6c.123,0,.309.062.432,0h.309c.062,0,.062,0,.062-.062A.215.215,0,0,0,37.53,74a.215.215,0,0,1,.123-.062c.062,0,.062,0,.062-.062a.616.616,0,0,0,.309-.247l.185-.185v-.062c.062-.062.062-.123.123-.247,0-.062.062-.062,0-.062,0-.062.062-.123.062-.247a1.2,1.2,0,0,0,.062-.494v-.247h0v-.062c0-.062-.062-.123-.062-.247v-.062c-.062-.062-.062-.123-.123-.185h0a1.048,1.048,0,0,0-.37-.37.06.06,0,0,1-.062-.062.227.227,0,0,0-.185-.062.06.06,0,0,1-.062-.062c-.062,0-.123-.062-.185-.062h-.123a1.359,1.359,0,0,0-.494-.062h0a.371.371,0,0,0-.247.062h0c-.062-.062-.185-.123-.247-.185l-1.173-4.2a3.356,3.356,0,0,0-.987-1.6c-.062-.062-.185-.123-.247-.247-.062-.062-.185-.123-.247-.185-.185-.123-.37-.185-.555-.309a3.613,3.613,0,0,0-2.284,0,3,3,0,0,0-1.6,1.42,3.08,3.08,0,0,0-.309,1.3,5.309,5.309,0,0,0,.062.987,3.224,3.224,0,0,0,.864,1.543l.185.185-2.345,1.358a1.061,1.061,0,0,0-.123,1.79l2.16,1.6.062.062a.321.321,0,0,1-.247.123,4.335,4.335,0,0,0-1.234,1.666,2.559,2.559,0,0,0-.185.987,4.7,4.7,0,0,0,.185,1.3,3,3,0,0,0,1.42,1.6,3.707,3.707,0,0,0,2.284.309Zm1.049-8.023a2.421,2.421,0,0,0,.247,1.111l-.432.123h0l-.987.247a3.92,3.92,0,0,1,.123-3.024l.987.37.37.185a1.865,1.865,0,0,0-.309.987Zm1.3,1.111Zm-2.53-3.333-.679-.247h0l-.062-.062h-.062c-.062,0-.123-.062-.185-.062s-.062-.062-.123-.062h0a.06.06,0,0,1-.062-.062c-.062,0-.062-.062-.123-.062s-.062-.062-.123-.062c-.062-.062-.123-.062-.185-.123a2.579,2.579,0,0,1-.864-1.481,3.41,3.41,0,0,1,.185-1.913,1.958,1.958,0,0,1,1.3-1.111,2.905,2.905,0,0,1,1.913,0,4.149,4.149,0,0,1,.741.37c.123.062.185.185.309.247a2.684,2.684,0,0,1,.37.432,3.191,3.191,0,0,1,.37.8l.123.432.555,1.975h0l.37,1.358.062.185.123.37v.062l.062.185v.062l.062.247.062.062h0l-.247.062-.185-.062-.123-.062-.247-.123-.37-.123h0l-.37-.123-.247-.062-.247-.062L33.7,71.1h0l-.309-.123-.247-.185-.987-.37-.37-.247Zm-4.073,2.345a.641.641,0,0,1-.247-.494.444.444,0,0,1,.247-.432l2.1-1.173a4.025,4.025,0,0,0-.309,3.394l-1.79-1.3Zm2.222,7.159a2.221,2.221,0,0,1-1.173-1.3,3.364,3.364,0,0,1,0-1.913,2.435,2.435,0,0,1,1.173-1.42c.062-.062.123-.062.185-.123a.227.227,0,0,1,.185-.062h0c.062,0,.062-.062.123-.062h0c.062,0,.062-.062.123-.062l.309-.062h.062l.494-.123.432-.123.679-.185.617-.185h.062L33.4,74l.062-.062.185-.062.247-.062.432-.123h0l.555-.123.309-.062.123-.062.185-.062h0l-.062.247v.062l-.123.247V74l-.123.247.062.247-.555,1.42h0l-.741,1.913-.185.37a2.918,2.918,0,0,1-.432.741c-.123.123-.247.309-.37.37a.616.616,0,0,0-.309.247,3.776,3.776,0,0,1-.741.309,3.573,3.573,0,0,1-1.975-.185Z" transform="translate(-27.1 -51.768)" fill="#231f20"/>
      <path id="Path_237" data-name="Path 237" d="M30.886,85.5a2.221,2.221,0,0,1-1.173-1.3,3.364,3.364,0,0,1,0-1.913,2.435,2.435,0,0,1,1.173-1.42c.062-.062.123-.062.185-.123a.227.227,0,0,1,.185-.062h0c.062,0,.062-.062.123-.062h0c.062,0,.062-.062.123-.062l.309-.062h.062l.494-.123.432-.123.679-.185.617-.185h.062l.185-.062.062-.062.185-.062.247-.062.432-.123h0l.555-.123.309-.062.123-.062.185-.062h0l-.062.247v.062l-.123.247v.062l-.123.247.062.247-.555,1.42h0L34.9,83.644l-.185.37a2.918,2.918,0,0,1-.432.741c-.123.123-.247.309-.37.37a.616.616,0,0,0-.309.247,3.776,3.776,0,0,1-.741.309,3.572,3.572,0,0,1-1.975-.185Z" transform="translate(-28.047 -57.587)" fill="#e6e7e8"/>
      <path id="Path_238" data-name="Path 238" d="M46.276,47.267l.247-1.049a.83.83,0,0,1,1.111-.555l.987.432a1.6,1.6,0,0,1,.926,1.234l.741,4.691-.123.062-.062.062-.062.062-.123.062-3.209-3.518a1.656,1.656,0,0,1-.432-1.481Z" transform="translate(-34.427 -44.724)" fill="#e6e7e8"/>
      <path id="Path_239" data-name="Path 239" d="M46.658,45.243h0a1.2,1.2,0,0,1,.926,0l.987.432a2.012,2.012,0,0,1,1.111,1.419l.741,4.876-.37.185-.37.185-3.394-3.58a1.8,1.8,0,0,1-.432-1.728l.247-1.049a1.15,1.15,0,0,1,.555-.741Zm3.209,6.419-.679-4.505a1.21,1.21,0,0,0-.8-.987l-.987-.432a.527.527,0,0,0-.432,0h0a.632.632,0,0,0-.309.37l-.247,1.049a1.286,1.286,0,0,0,.309,1.234l3.148,3.271Z" transform="translate(-34.253 -44.552)" fill="#231f20"/>
      <path id="Path_240" data-name="Path 240" d="M51.862,47.864l-.062-.555h0v-.37h0v-.309a.227.227,0,0,1,.062-.185,3.025,3.025,0,0,1,.679-1.234,2.476,2.476,0,0,1,1.481-.617,1.593,1.593,0,0,1,1.3.432,2.145,2.145,0,0,1,.741,1.358,1.268,1.268,0,0,1,0,.679c0,.123-.062.185-.062.309-.062.123-.123.309-.185.432a1.922,1.922,0,0,1-.432.555l-.247.247L53.9,49.777h0l-.8.8-.123.123-.247.309h-.062l-.123.185h0l-.123.123-.062.062h0v-.309l-.062-.247-.062-.309h0l-.062-.309v-.494h0l-.062-.309v-.185l-.185-.926-.062-.432Z" transform="translate(-36.556 -44.334)" fill="#00a55a"/>
      <path id="Path_241" data-name="Path 241" d="M52.781,44.44a2.905,2.905,0,0,1,.987-.247,2.032,2.032,0,0,1,1.543.494,2.745,2.745,0,0,1,.864,1.543,1.5,1.5,0,0,1,0,.741c0,.123-.062.247-.062.37-.062.123-.123.309-.185.432a2.74,2.74,0,0,1-.494.679l-.247.247-2.9,2.777-.309.123-.123-.247-.062-.37-.37-2.777v-.37l-.123-.987v-.123h0v-.247a.227.227,0,0,1,.062-.185,2.942,2.942,0,0,1,.741-1.358,1.75,1.75,0,0,1,.679-.494Zm-.432,6.233,2.716-2.654a3.423,3.423,0,0,0,.37-.494.877.877,0,0,0,.123-.37.467.467,0,0,0,.062-.247.835.835,0,0,0,0-.555,1.638,1.638,0,0,0-.679-1.173,1.3,1.3,0,0,0-1.111-.37,2.457,2.457,0,0,0-1.3.555,2.065,2.065,0,0,0-.617,1.049v.864l.062.617v.37l.37,2.407Zm-.987-3.641Zm.494,0Z" transform="translate(-36.364 -44.181)" fill="#231f20"/>
      <path id="Path_242" data-name="Path 242" d="M41.193,51.985a1.807,1.807,0,0,1,.432-1.358,2.477,2.477,0,0,1,1.358-.741,2.449,2.449,0,0,1,1.481.247.191.191,0,0,0,.123.062c.062.062.062.062.123.062h0c.062,0,.062.062.123.062h0l.123.123.185.185.062.062.309.309.247.247.432.432.37.37h0l.062.062.123.123.062.062.123.123.123.123.247.247h0l.37.37.185.185.062.062.123.123h-.555l-.247.062h-.185l-1.234.185h0l-1.666.309-.37.062a1.5,1.5,0,0,1-.741,0c-.123-.062-.309-.062-.432-.123s-.185-.062-.309-.123a3.392,3.392,0,0,1-.555-.432,2.573,2.573,0,0,1-.555-1.481Z" transform="translate(-32.49 -46.357)" fill="#00a55a"/>
      <path id="Path_243" data-name="Path 243" d="M42.012,49.634a3.479,3.479,0,0,1,.741-.247,2.621,2.621,0,0,1,1.666.309l.123.062a.06.06,0,0,1,.062.062h.062l.062.062v.062h0l.123.062.062.062,3.024,3.086.123.309-.247.123h-.062l-4.259.555a1.173,1.173,0,0,1-.8-.062,1.908,1.908,0,0,1-.494-.123c-.062,0-.123-.062-.247-.123l-.062-.062a1.68,1.68,0,0,1-.617-.494,2.472,2.472,0,0,1-.679-1.6,2.032,2.032,0,0,1,.494-1.543,6.745,6.745,0,0,0,.926-.494Zm2.345.679h0l-.185-.123a2.008,2.008,0,0,0-1.358-.247,1.907,1.907,0,0,0-1.234.679,1.583,1.583,0,0,0-.37,1.173h0a2.057,2.057,0,0,0,.555,1.3,3.423,3.423,0,0,0,.494.37.06.06,0,0,1,.062.062c.062,0,.123.062.185.062a3.934,3.934,0,0,0,.432.123,1.046,1.046,0,0,0,.617,0l.37-.062,3.333-.432L46.147,52.1,44.6,50.559l-.062-.062h0l-.062-.062-.062-.062-.062-.062Z" transform="translate(-32.261 -46.166)" fill="#231f20"/>
      <path id="Path_244" data-name="Path 244" d="M55.786,50.518l.494-.432h0l.062-.062a.06.06,0,0,0,.062-.062l.123-.123c.062,0,.062-.062.123-.062h.062c.062,0,.062-.062.123-.062s.062-.062.123-.062.123-.062.185-.062a2.392,2.392,0,0,1,1.6-.062,2.919,2.919,0,0,1,1.543.987,1.826,1.826,0,0,1,.37,1.6,2.452,2.452,0,0,1-.864,1.6,2.549,2.549,0,0,1-.679.432c-.123.062-.247.062-.37.123-.185.062-.37.062-.494.123a3.519,3.519,0,0,1-.8-.062l-.37-.123-1.913-.432h0l-1.3-.309-.185-.062-.37-.062h-.062L53.07,53.3h-.062l-.247-.062H52.7l.062-.062.123-.123.062-.062.247-.185.309-.247h0l.309-.247L54,52.185l.185-.123.123-.123h0l.247-.247.185-.123.741-.617.309-.432Z" transform="translate(-36.9 -46.186)" fill="#00a55a"/>
      <path id="Path_245" data-name="Path 245" d="M56.505,49.135h0c.062-.062.123-.062.247-.062a2.941,2.941,0,0,1,1.79-.123,3.088,3.088,0,0,1,1.666,1.111,2.316,2.316,0,0,1,.432,1.79,2.669,2.669,0,0,1-.926,1.728,3.841,3.841,0,0,1-.741.494.877.877,0,0,1-.37.123c-.185.062-.309.062-.555.123a2.353,2.353,0,0,1-.926-.062l-.432-.123-4.444-.987L52,52.961l.123-.247.123-.123,2.716-2.284.37-.247.864-.741c.062-.062.062-.062.123-.062h0l.062-.062a.215.215,0,0,1,.123-.062Zm2.284,4.382a1.7,1.7,0,0,0,.494-.37,2.288,2.288,0,0,0,.741-1.419,1.767,1.767,0,0,0-.37-1.358,2.832,2.832,0,0,0-1.358-.926,2.434,2.434,0,0,0-1.481.062h-.062c-.062,0-.062,0-.123.062a.06.06,0,0,0-.062.062h-.123l-.062.062H56.32l-.309.247-.555.432-.37.247-2.345,1.975.679.123,3.641.864a3,3,0,0,0,.741.062c.185,0,.309-.062.494-.062.123-.062.185-.062.309-.123l.185.062Z" transform="translate(-36.632 -45.976)" fill="#231f20"/>
      <path id="Path_246" data-name="Path 246" d="M43.518,56.517l.987-.185.185-.062L45,56.209h.185l.247-.062.247-.062.37-.062h0l.37-.062.247-.062H47.1l-.062.062-.123.185v.062l-.123.185v.062l-.185.309-.123.185-.617,1.173h0l-.926,1.79-.185.37a2.74,2.74,0,0,1-.494.679,1.107,1.107,0,0,1-.432.309c-.123.062-.185.123-.309.185a3.479,3.479,0,0,1-.741.247,3.039,3.039,0,0,1-1.79-.37,1.984,1.984,0,0,1-.926-1.3,2.9,2.9,0,0,1,.185-1.79,2.558,2.558,0,0,1,1.111-1.173c.062-.062.123-.062.185-.123a.216.216,0,0,0,.123-.062.191.191,0,0,0,.123-.062s.062-.062.062,0h0c.062,0,.062,0,.123-.062h.309l.679-.123.555-.123Z" transform="translate(-32.038 -48.667)" fill="#00a55a"/>
      <path id="Path_247" data-name="Path 247" d="M41.229,56.511a.06.06,0,0,0,.062-.062h.123c.062,0,.062,0,.062-.062h.062c.062,0,.062-.062.123-.062l.309-.062h.123l.679-.123.432-.123,3.641-.617.309.062-.062.309-.309.617-.309.494-1.728,3.333a2.9,2.9,0,0,1-.555.741,2.685,2.685,0,0,0-.432.37,2.055,2.055,0,0,1-.37.185,2.288,2.288,0,0,1-.864.247,2.942,2.942,0,0,1-1.913-.432,2.168,2.168,0,0,1-1.049-1.481,3.055,3.055,0,0,1,.247-1.975,2.785,2.785,0,0,1,1.234-1.3c.123,0,.123-.062.185-.062Zm.309.494c-.062,0-.062.062-.123.062h-.062a2.313,2.313,0,0,0-.987,1.049,2.57,2.57,0,0,0-.185,1.666,1.94,1.94,0,0,0,.8,1.173,2.4,2.4,0,0,0,1.6.37,1.407,1.407,0,0,0,.679-.185c.123-.062.185-.123.247-.123a1.636,1.636,0,0,0,.37-.309,1.411,1.411,0,0,0,.432-.617l.185-.37,1.913-3.58-3.086.494L42.9,56.7l-.8.123h-.062l-.247.062h-.247a.085.085,0,0,1,0,.123Z" transform="translate(-31.848 -48.476)" fill="#231f20"/>
      <circle id="Ellipse_3" data-name="Ellipse 3" cx="1.42" cy="1.42" r="1.42" transform="translate(14.627 6.677)" fill="#231f20"/>
    </g>
    <g id="_Radial_Repeat_-3" transform="translate(52.774 45.258)">
      <path id="Path_248" data-name="Path 248" d="M75.1,65.3Z" transform="translate(-71.15 -53.343)" fill="#00a89d"/>
      <path id="Path_249" data-name="Path 249" d="M77.932,54.8a3.666,3.666,0,0,1,2.53,1.6l-.8.679-.37.247a1.57,1.57,0,0,0-.679-.741,1.685,1.685,0,0,0-1.111-.309l.123-.432h0l.309-1.049Z" transform="translate(-72.069 -49.324)" fill="#ea792d"/>
      <path id="Path_250" data-name="Path 250" d="M80.1,51.039l2.037-.864a.466.466,0,0,1,.494.062.625.625,0,0,1,.247.432v2.407A3.926,3.926,0,0,0,80.1,51.039Z" transform="translate(-73.064 -47.537)" fill="#ea792d"/>
      <path id="Path_251" data-name="Path 251" d="M76.7,58.6Z" transform="translate(-71.763 -50.778)" fill="#231f20"/>
      <path id="Path_252" data-name="Path 252" d="M77.8,61.3h0l.123-.062.123-.123.123-.062.247-.185.309-.247h0l.309-.247.185-.123.185-.123L79.528,60v.37a.671.671,0,0,1-.062.309,1.584,1.584,0,0,1-.309.741,1.083,1.083,0,0,1-.247.309l-.185-.062-.37-.062h-.062l-.185-.062h-.062l-.123-.185L77.8,61.3Z" transform="translate(-72.184 -51.314)" fill="#231f20"/>
      <path id="Path_253" data-name="Path 253" d="M74.747,58.141a1.593,1.593,0,0,1,.555-.555c.062-.062.185-.062.247-.123a.227.227,0,0,1,.185-.062l-.062.185v.185l-.123.432h0l-.123.617-.062.309-.062.123-.062.185h0l-.123-.185V59.19L74.87,59l-.062-.062-.185-.247-.123-.185c.062-.123.185-.247.247-.37Z" transform="translate(-70.92 -50.319)" fill="#231f20"/>
      <path id="Path_254" data-name="Path 254" d="M82.8,57.626l.37-.247.555-.432h0l.062-.062a.06.06,0,0,0,.062-.062l.123-.123a1.682,1.682,0,0,1-.37.741,1.751,1.751,0,0,1-.555.617A.191.191,0,0,1,82.923,58c-.062,0-.062-.062-.062-.123,0-.123,0-.185-.062-.247Z" transform="translate(-74.098 -50.051)" fill="#231f20"/>
      <path id="Path_255" data-name="Path 255" d="M76.809,52.917a2.653,2.653,0,0,1,.555-.617h0c0,.062,0,.123-.062.123l-.062.309v.062l-.123.494-.123.432H76.5a2.282,2.282,0,0,1,.309-.679v-.123Z" transform="translate(-71.686 -48.366)" fill="#231f20"/>
      <path id="Path_256" data-name="Path 256" d="M77.8,62.1Z" transform="translate(-72.184 -52.118)" fill="#faab44"/>
      <path id="Path_257" data-name="Path 257" d="M76.943,61.411h.123l.247.062c0-.062-.062-.062-.062-.123a.216.216,0,0,0-.062-.123L77,61.349l-.062.062Zm-1.358-.864h0l.062-.247H75.4l.185.247Z" transform="translate(-71.265 -51.429)" fill="#231f20"/>
      <path id="Path_258" data-name="Path 258" d="M77.8,59.865h0l.123-.062.123-.123.123-.062.247-.185.309-.247h0l.309-.247.185-.123.185-.123.123-.123h0l.247-.247.185-.123.8-.617.37-.247.555-.432h0l.062-.062a.06.06,0,0,0,.062-.062l.123-.123c.062,0,.062-.062.123-.062h.062c.062,0,.062-.062.123-.062a.215.215,0,0,0,.123-.062c.062,0,.123-.062.185-.062a3.29,3.29,0,0,1,1.728-.062,3.127,3.127,0,0,1,1.543,1.111,2.277,2.277,0,0,1,.309,1.666,3.106,3.106,0,0,1-.987,1.666,4.151,4.151,0,0,1-.679.432c-.123.062-.247.062-.37.123a1.709,1.709,0,0,1-.555.062,4.372,4.372,0,0,1-.864-.062l-.247-.309-2.037-.555h0l-1.358-.37-.185-.062-.37-.062h-.062l-.185-.062H78.17l-.247-.062Z" transform="translate(-72.184 -49.883)" fill="#e6e7e8"/>
      <path id="Path_259" data-name="Path 259" d="M68.823,48.255a2.193,2.193,0,0,0-.123.617v.679a3.52,3.52,0,0,0,.679,1.728l2.777,3.58h0v.247a.06.06,0,0,0-.062.062h0c-.062.062-.123.123-.185.123l.062.062h0a1.292,1.292,0,0,0-.247.37h0c0,.062,0,.062-.062.123,0,.062-.062.123-.062.185v.494a.783.783,0,0,0,.062.37c0,.062.062.185.062.247V57.2c.062.062.062.123.123.247,0,.062.062.062,0,.062l.185.185a1.291,1.291,0,0,0,.37.247c.062,0,.123.062.185.062h.062c.062,0,.123.062.247.062h.309a1.163,1.163,0,0,0,.494-.123c.062,0,.062,0,.123-.062a.133.133,0,0,0,.123-.123c.062,0,.062,0,.062-.062l.123-.123a.06.06,0,0,1,.062-.062v-.062a1,1,0,0,0,.247-.432h0a.371.371,0,0,0,.062-.247h0c.123,0,.185-.062.309-.123l4.2,1.111a3.143,3.143,0,0,0,1.852-.062c.123-.062.185-.062.309-.123s.185-.062.247-.123a2.9,2.9,0,0,0,.555-.37,3.628,3.628,0,0,0,1.173-1.975,2.8,2.8,0,0,0-.432-2.1,3.306,3.306,0,0,0-.926-.926,2.147,2.147,0,0,0-.926-.432,3.29,3.29,0,0,0-1.728-.062.371.371,0,0,1-.247.062V48.934a1.088,1.088,0,0,0-.494-.926,1.056,1.056,0,0,0-1.049-.062l-2.469,1.111a.06.06,0,0,0-.062.062v-.247a3.1,3.1,0,0,0-.741-1.728,7.4,7.4,0,0,0-.741-.679,3.06,3.06,0,0,0-1.234-.494A2.8,2.8,0,0,0,70,46.4a5.025,5.025,0,0,0-1.173,1.852Zm6.419,4.937a1.685,1.685,0,0,0-1.111-.309l.123-.432h0l.309-1.049a3.666,3.666,0,0,1,2.53,1.6l-.8.679-.37.247a1.57,1.57,0,0,0-.679-.741Zm-1.6.555Zm4.135-.555.555-.432h0l.062-.062a.06.06,0,0,0,.062-.062l.123-.123c.062,0,.062-.062.123-.062h.062c.062,0,.062-.062.123-.062a.215.215,0,0,0,.123-.062c.062,0,.123-.062.185-.062a3.29,3.29,0,0,1,1.728-.062,3.127,3.127,0,0,1,1.543,1.111,2.277,2.277,0,0,1,.309,1.666,3.106,3.106,0,0,1-.987,1.666,4.151,4.151,0,0,1-.679.432c-.123.062-.247.062-.37.123a1.709,1.709,0,0,1-.555.062,4.372,4.372,0,0,1-.864-.062l-.37-.123-2.037-.555h0l-1.358-.37-.185-.062L75,56.032h-.062l-.185-.062h-.062l-.247-.062h-.123l.062-.062.123-.123.123-.062.247-.185.309-.247h0l.309-.247.185-.123.185-.123.123-.123h0l.247-.247.185-.123.8-.617.555-.432Zm0-4.629a.466.466,0,0,1,.494.062.625.625,0,0,1,.247.432v2.407a3.806,3.806,0,0,0-2.777-1.975ZM70.49,46.9a2.313,2.313,0,0,1,1.666-.37,3.106,3.106,0,0,1,1.666.987,2.587,2.587,0,0,1,.617,1.728v.37h0c0,.062,0,.123-.062.123h0c0,.062,0,.123-.062.123l-.062.432v.062l-.123.494-.123.432-.185.617-.123.617h0v.062l-.062.185v.123l-.062.185-.062.247-.123.432h0l-.185.617-.062.247-.062.123-.062.185h0l-.123-.185v-.062l-.185-.247-.062-.062-.185-.247-.123-.185-.987-1.049h0l-1.234-1.6-.247-.37a4.6,4.6,0,0,1-.432-.741,1.8,1.8,0,0,1-.123-.555.783.783,0,0,0-.062-.37,3.612,3.612,0,0,1,.123-.8A2.6,2.6,0,0,1,70.49,46.9Z" transform="translate(-68.7 -45.927)" fill="#231f20"/>
      <path id="Path_260" data-name="Path 260" d="M70.834,47.257a2.313,2.313,0,0,1,1.666-.37,3.105,3.105,0,0,1,1.666.987,2.587,2.587,0,0,1,.617,1.728v.37h0c0,.062,0,.123-.062.123h0c0,.062,0,.123-.062.123l-.062.432v.062l-.123.494-.123.432-.185.617-.123.617h0v.062l-.062.185v.123l-.062.185-.062.247-.123.432h0l-.185.617-.062.247-.062.123-.062.185h0l-.123-.185v-.062l-.185-.247-.062-.062-.185-.247-.123-.185L71.7,53.244h0l-1.234-1.6-.247-.37a4.6,4.6,0,0,1-.432-.741,1.8,1.8,0,0,1-.123-.555.783.783,0,0,0-.062-.37,3.612,3.612,0,0,1,.123-.8,2.6,2.6,0,0,1,1.111-1.543Z" transform="translate(-69.045 -46.286)" fill="#e6e7e8"/>
      <path id="Path_261" data-name="Path 261" d="M96.11,80.408l.8.741a.825.825,0,0,1-.062,1.234L95.987,83a1.688,1.688,0,0,1-1.543.185L90,81.519v-.432l4.629-1.111a1.705,1.705,0,0,1,1.481.432Z" transform="translate(-76.854 -58.947)" fill="#e6e7e8"/>
      <path id="Path_262" data-name="Path 262" d="M97.215,81.575h0a1.055,1.055,0,0,1-.432.8l-.864.617a1.742,1.742,0,0,1-1.79.247L89.5,81.452V81.02l.062-.432,4.814-1.111a1.95,1.95,0,0,1,1.728.494l.8.741a1.475,1.475,0,0,1,.309.864Zm-7.159-.432,4.259,1.6a1.242,1.242,0,0,0,1.3-.185l.864-.617c.123-.062.185-.247.247-.37h0a.56.56,0,0,0-.185-.432l-.8-.741a1.492,1.492,0,0,0-1.234-.37l-4.444,1.111Z" transform="translate(-76.663 -58.756)" fill="#231f20"/>
      <path id="Path_263" data-name="Path 263" d="M93.609,83.858l.555.247h0l.062.062h.062c.062,0,.062.062.123.062a.06.06,0,0,1,.062.062h0a.06.06,0,0,1,.062.062c.062,0,.062.062.123.062s.062.062.123.062l.123.123a1.907,1.907,0,0,1,.679,1.234,2.217,2.217,0,0,1-.185,1.543,1.748,1.748,0,0,1-1.049.926,1.922,1.922,0,0,1-1.543-.062,1.193,1.193,0,0,1-.555-.309c-.062-.062-.185-.123-.247-.247a1.291,1.291,0,0,1-.247-.37,2.281,2.281,0,0,1-.309-.679l-.062-.37L90.955,84.6h0l-.309-1.111-.062-.185-.062-.309v-.062l-.062-.123v-.062l-.062-.185V82.5h0l.062.062.123.062.123.062.247.062.309.123h0l.309.123.185.062.185.062.123.062h0l.247.123.185.062.8.309.309.185Z" transform="translate(-77.007 -59.928)" fill="#2786cc"/>
      <path id="Path_264" data-name="Path 264" d="M95.8,86.259a2.587,2.587,0,0,1-.247.987A2.092,2.092,0,0,1,94.32,88.3a2.39,2.39,0,0,1-1.728-.062,1.854,1.854,0,0,1-.679-.37c-.123-.062-.185-.185-.247-.247-.123-.123-.185-.247-.309-.37a3.776,3.776,0,0,1-.309-.741l-.062-.37L90,82.309V82h.309l.37.123,2.592,1.111.37.185.864.37a.06.06,0,0,1,.062.062h0l.062.062.062.062h.123c.062.062.123.062.123.123a2.76,2.76,0,0,1,.8,1.358c0,.309.062.555.062.8Zm-5.184-3.518.926,3.641a2.192,2.192,0,0,0,.247.555.616.616,0,0,0,.247.309l.185.185a5.694,5.694,0,0,0,.494.309,2.055,2.055,0,0,0,1.358.062A1.683,1.683,0,0,0,95,87a2.749,2.749,0,0,0,.185-1.42,1.667,1.667,0,0,0-.617-1.049h0l-.062-.062a.06.06,0,0,1-.062-.062H94.32a.06.06,0,0,1-.062-.062l-.37-.185-.555-.247-.37-.185-2.345-.987Zm3.641.987Zm-.247.432Z" transform="translate(-76.854 -59.736)" fill="#231f20"/>
      <path id="Path_265" data-name="Path 265" d="M95.114,73.557a2.179,2.179,0,0,1,.926,1.049,2.072,2.072,0,0,1-.062,1.6,2.659,2.659,0,0,1-.987,1.173,1395.5,1395.5,0,0,1-.247.123h0c-.062,0-.062,0-.123.062h0c-.062,0-.062,0-.123.062l-.247.062h-.062l-.37.123-.37.123-.555.123-.494.123h-.062l-.185.062H92.09l-.185.062-.185.062-.37.123h0l-.494.123-.247.062H90.3l.062-.185v-.062l.062-.185v-.062L90.485,78l.062-.185.494-1.173h0l.679-1.543.123-.309a2.054,2.054,0,0,1,.37-.617l.309-.309c.062-.062.185-.123.247-.185a2.579,2.579,0,0,1,.617-.247,2.327,2.327,0,0,1,1.728.123Z" transform="translate(-76.969 -56.416)" fill="#2786cc"/>
      <path id="Path_266" data-name="Path 266" d="M96.18,75.332a1.643,1.643,0,0,1-.185.741,2.533,2.533,0,0,1-1.111,1.3l-.123.062c-.062,0-.062.062-.123.062h-.062l-.062.062h-.123l-.123.062h-.062l-4.2,1.111H89.7v-.37l1.666-3.95a2.548,2.548,0,0,1,.432-.679l.37-.37c.062-.062.123-.062.185-.123l.062-.062a1.9,1.9,0,0,1,.741-.309,2.364,2.364,0,0,1,1.728.247,2.165,2.165,0,0,1,1.049,1.173,1.4,1.4,0,0,1,.247,1.049ZM94.452,77.06h.062L94.637,77a2.411,2.411,0,0,0,.864-1.049,1.881,1.881,0,0,0,0-1.42,1.258,1.258,0,0,0-.8-.864h0a2.1,2.1,0,0,0-1.358-.185,3.9,3.9,0,0,0-.555.247l-.062.062c-.062.062-.123.062-.123.123-.123.062-.185.185-.309.309a2.154,2.154,0,0,0-.37.555l-.123.37-1.3,2.962,1.543-.37,2.1-.555h.062l.062-.062h.062l.123-.062Z" transform="translate(-76.739 -56.216)" fill="#231f20"/>
      <path id="Path_267" data-name="Path 267" d="M88.714,86.573l.123.679h0v.123a.227.227,0,0,0,.062.185v.123h0v.309a.227.227,0,0,1-.062.185,2.711,2.711,0,0,1-2.407,2.284,1.989,1.989,0,0,1-1.543-.432,2.511,2.511,0,0,1-.926-1.543,3.52,3.52,0,0,1-.062-.8c0-.123.062-.247.062-.37a4.253,4.253,0,0,1,.185-.494,2.548,2.548,0,0,1,.432-.679l.309-.309,1.358-1.481h0l.926-.987.123-.123.247-.247.062-.062.123-.123.062-.062.123-.185.062-.062h0v.123l.062.185.062.123.062.247.062.37h0l.062.37.062.247.062.247.062.185h0l.062.309.062.185.185.987-.062.494Z" transform="translate(-74.519 -59.928)" fill="#2786cc"/>
      <path id="Path_268" data-name="Path 268" d="M89.055,87.763h0a.371.371,0,0,1-.062.247,2.669,2.669,0,0,1-.8,1.6,2.892,2.892,0,0,1-1.79.864,2.642,2.642,0,0,1-1.79-.494,2.793,2.793,0,0,1-1.049-1.666,3.8,3.8,0,0,1-.062-.864c0-.123.062-.247.062-.432a2.905,2.905,0,0,1,.185-.555,2.219,2.219,0,0,1,.494-.741l.309-.309,3.086-3.394.309-.123.185.247.062.185.617,3.456.062.494.185,1.111v.123h0v.123c0,.062,0,.123,0,.123Zm-4.937-.185a1.9,1.9,0,0,0,.062.617,2.27,2.27,0,0,0,.864,1.358,1.767,1.767,0,0,0,1.358.37,2.538,2.538,0,0,0,2.16-2.037v-.062c0-.062,0-.062.062-.123v-.309h0l-.062-.432-.123-.679-.062-.432-.555-3.024-.494.555L84.8,86.1a5.339,5.339,0,0,0-.432.617,1.571,1.571,0,0,0-.123.432.556.556,0,0,0-.062.309.191.191,0,0,0-.062.123Z" transform="translate(-74.366 -59.698)" fill="#231f20"/>
      <path id="Path_269" data-name="Path 269" d="M90.044,72.776l-.37.926-.062.185-.123.309h0l-.062.185-.062.185-.062.185-.123.37h0l-.123.37-.123.247-.062.123-.062.123-.062.123h0l-.062-.062-.123-.185L88.5,75.8l-.123-.185-.062-.062-.185-.309-.123-.185-.741-1.111h0l-1.049-1.666-.247-.37a3.776,3.776,0,0,1-.309-.741,1.532,1.532,0,0,1-.062-.555v-.37a1.643,1.643,0,0,1,.185-.741,2.92,2.92,0,0,1,1.234-1.358,2.432,2.432,0,0,1,1.6-.185,2.879,2.879,0,0,1,1.481,1.111,2.362,2.362,0,0,1,.432,1.543v.309a.215.215,0,0,0-.062.123v.062h0v.123a.216.216,0,0,1-.062.123v.309h0l-.247.617-.123.494Z" transform="translate(-75.17 -54.339)" fill="#2786cc"/>
      <path id="Path_270" data-name="Path 270" d="M90.731,70.821v.309h0v.123l-.123.309v.123l-.247.679-.123.432-1.3,3.456-.185.247-.247-.185-.37-.617L87.83,75.2l-2.1-3.148c-.123-.247-.247-.555-.37-.864a1.9,1.9,0,0,1-.062-.555v-.37a3.561,3.561,0,0,1,.185-.864,2.885,2.885,0,0,1,1.358-1.481,2.263,2.263,0,0,1,1.79-.185,2.914,2.914,0,0,1,2.1,2.9q0,.093,0,.185Zm-.494,0v-.185a2.4,2.4,0,0,0-.432-1.419,2.926,2.926,0,0,0-1.3-.987,1.878,1.878,0,0,0-1.42.123,2.558,2.558,0,0,0-1.111,1.173c-.062.185-.123.432-.185.679v.309c0,.185.062.309.062.494a2.281,2.281,0,0,0,.309.679l.247.37,2.16,3.394,1.111-2.9.123-.432.309-.8v-.062l.062-.247h0V70.76a.06.06,0,0,0,.062.062Z" transform="translate(-75.055 -54.236)" fill="#231f20"/>
      <circle id="Ellipse_4" data-name="Ellipse 4" cx="1.42" cy="1.42" r="1.42" transform="translate(10.924 20.844)" fill="#231f20"/>
    </g>
    <circle id="Ellipse_5" data-name="Ellipse 5" cx="8.208" cy="8.208" r="8.208" transform="translate(41.542 58.017)" fill="#ee5a6b" stroke="#231f20" stroke-miterlimit="10" stroke-width="0.99"/>
  </g>
</svg>
