<svg xmlns="http://www.w3.org/2000/svg" width="16.15" height="16.15" viewBox="0 0 16.15 16.15">
  <g id="trash-can-svgrepo-com" transform="translate(-1.25 -1.25)">
    <path id="Path_47479" data-name="Path 47479" d="M4,6H15.72L14.563,16.417a1.465,1.465,0,0,1-1.456,1.3H6.614a1.465,1.465,0,0,1-1.456-1.3Z" transform="translate(-0.535 -1.07)" fill="none" stroke="#00a89d" stroke-linecap="round" stroke-linejoin="round" stroke-width="1.5"/>
    <path id="Path_47480" data-name="Path 47480" d="M6.985,2.84A1.465,1.465,0,0,1,8.31,2h4.17a1.465,1.465,0,0,1,1.325.84l.985,2.09H6Z" transform="translate(-1.07)" fill="none" stroke="#00a89d" stroke-linecap="round" stroke-linejoin="round" stroke-width="1.5"/>
    <path id="Path_47481" data-name="Path 47481" d="M2,6H16.65" transform="translate(0 -1.07)" fill="none" stroke="#00a89d" stroke-linecap="round" stroke-linejoin="round" stroke-width="1.5"/>
    <path id="Path_47482" data-name="Path 47482" d="M10,11v3.663" transform="translate(-2.14 -2.407)" fill="none" stroke="#00a89d" stroke-linecap="round" stroke-linejoin="round" stroke-width="1.5"/>
    <path id="Path_47483" data-name="Path 47483" d="M14,11v3.663" transform="translate(-3.21 -2.407)" fill="none" stroke="#00a89d" stroke-linecap="round" stroke-linejoin="round" stroke-width="1.5"/>
  </g>
</svg>
