<svg xmlns="http://www.w3.org/2000/svg" width="66.471" height="83.02" viewBox="0 0 66.471 83.02">
  <path id="Wasps" d="M74.6,47.592H70.527a.728.728,0,0,1-.516-.215l-6.243-6.314a3.71,3.71,0,0,0-2.624-1.1h-3.4c-1.406-2.279-2.794-4.336-4.066-6.086,1.277-.612,3.872-1.221,4.549-2.642l4.391-7.19a.722.722,0,0,1,.288-.267l6.3-3.244A1.483,1.483,0,0,0,67.849,17.9l-6.3,3.244A3.679,3.679,0,0,0,60.086,22.5l-4.391,7.191a.72.72,0,0,1-.343.293l-3.53,1.449a37.115,37.115,0,0,0-3.16-3.576c3.582-3.193,2.587-9.331-1.677-11.466-.179-1.282-.187-3,.332-3.712a.654.654,0,0,1,.53-.285c3.974-.38,6.143-2.843,6.107-6.935a1.483,1.483,0,0,0-2.966.026c.048,6.875-7.32.58-7.068,9.9a8.074,8.074,0,0,0-2.185,0c.25-9.325-7.105-3.022-7.068-9.9A1.483,1.483,0,0,0,31.7,5.463c-.035,4.092,2.133,6.555,6.106,6.935a.654.654,0,0,1,.529.283c.523.714.518,2.407.334,3.706-4.286,2.141-5.279,8.306-1.664,11.5a37.462,37.462,0,0,0-3.148,3.565l-3.565-1.464a.722.722,0,0,1-.345-.293L25.559,22.5A3.694,3.694,0,0,0,24.1,21.145L17.8,17.9a1.483,1.483,0,1,0-1.357,2.637l6.3,3.244a.728.728,0,0,1,.287.266l4.391,7.191c.675,1.422,3.294,2.043,4.586,2.657-1.27,1.747-2.655,3.8-4.057,6.07-1.708.081-4.811-.45-6.071,1.1l-6.243,6.314a.721.721,0,0,1-.516.216H11.047a1.483,1.483,0,0,0,0,2.966c2.28-.145,5.158.575,6.7-1.1l6.244-6.315a.728.728,0,0,1,.515-.214h1.684C19.108,55.319,12.61,72.767,19.154,86.2a1.482,1.482,0,0,0,1.332.833c1.35-.118,8.081-1.825,14.45-25.065a96.677,96.677,0,0,0,6.572,17.057,1.494,1.494,0,0,0,2.632-.007,99.318,99.318,0,0,0,6.573-17.192C56.972,85.058,63.979,86.876,65,87.012a1.487,1.487,0,0,0,1.529-.82c6.542-13.43.047-30.873-7.027-43.259h1.638a.728.728,0,0,1,.516.215L67.9,49.461a3.71,3.71,0,0,0,2.624,1.1H74.6a1.483,1.483,0,0,0,0-2.966ZM47.389,62.648a13.2,13.2,0,0,1-9.166-.026c-.5-1.661-.959-3.393-1.367-5.181a24.54,24.54,0,0,0,11.907.019c-.409,1.784-.875,3.526-1.373,5.188Zm-.148-16.688a10.151,10.151,0,0,1-8.8,0c.274-1.543.543-3.155.807-4.816a11.776,11.776,0,0,0,7.183,0c.264,1.661.533,3.273.807,4.816ZM36.793,54.354c.376-1.719.745-3.554,1.108-5.459a12.132,12.132,0,0,0,9.885,0c.364,1.905.732,3.74,1.109,5.459a21.962,21.962,0,0,1-12.1,0Zm9.183-16.163a9.146,9.146,0,0,1-6.264,0c.387-2.6.757-5.367,1.115-8.252a8.547,8.547,0,0,0,4.032-.01c.358,2.889.729,5.658,1.117,8.262ZM42.822,18.282c6.733.164,6.732,8.767,0,8.93C36.088,27.049,36.09,18.445,42.822,18.282Zm-21.6,65.279c-7.305-17.987,9.771-44.137,16.414-51.972C32.356,72.331,24,81.57,21.222,83.561Zm21.593-8.675c-.936-2.066-2.244-5.182-3.5-8.867a15.435,15.435,0,0,0,6.989.019c-1.255,3.675-2.555,6.778-3.484,8.848ZM64.47,83.534C61.622,81.487,53.31,72.161,48.05,31.579,54.691,39.411,71.76,65.547,64.47,83.534Z" transform="translate(-9.588 -4.015)" fill="#00a89d"/>
</svg>
