<svg xmlns="http://www.w3.org/2000/svg" width="113.035" height="136.17" viewBox="0 0 113.035 136.17">
  <g id="Wild_bee_health" data-name="Wild bee health" transform="translate(-698.982 -498.8)">
    <g id="noun-money-hand-4427382" transform="translate(698.982 587.749)">
      <path id="Path_195" data-name="Path 195" d="M13.863,68.933a1.922,1.922,0,1,1-2.178-1.623,1.93,1.93,0,0,1,2.178,1.623ZM103.472,66.1c1.6-.985,2.089-3.872.986-5.721-1.607-2.683-5.874-2.361-11.4.863L73.876,72.411a14.036,14.036,0,0,1-9.649,1.694c-.65-.1-2.651-.444-2.8-.511-2.986-.615-5.686-1.381-8.505-2.179-1.261-.357-2.572-.727-3.933-1.093a1.671,1.671,0,0,1,.866-3.228c1.39.37,2.7.744,3.972,1.106,2.966.839,5.8,1.64,8.93,2.252,1.607.1,3.46-.344,4.08-2.687a3.836,3.836,0,0,0-2.631-4.582,99.137,99.137,0,0,1-15.74-4.663c-1.558-.563-2.907-1.049-4.07-1.427-3.647-1.183-7.106.373-10.31,2.228L19.767,67.614l9.521,16.811L33.151,82.2a1.676,1.676,0,0,1,1.271-.167l25.231,6.761a11.12,11.12,0,0,0,9.028-1.264L103.472,66.1ZM29.553,94.016a1.169,1.169,0,0,0,.434-1.569L14.169,64.5a1.129,1.129,0,0,0-.69-.54,1.2,1.2,0,0,0-.877.1L7.22,67.112a1.166,1.166,0,0,0-.542.7,1.18,1.18,0,0,0,.108.875L22.6,96.626a1.179,1.179,0,0,0,1.578.435l5.381-3.045Zm77.773-35.353c-1.005-1.668-5.106-6.627-15.957-.307L72.2,69.522a10.589,10.589,0,0,1-3.035,1.2,7.37,7.37,0,0,0,.906-2.093,7.235,7.235,0,0,0-4.928-8.657c-.079-.024-.148-.042-.217-.058A95.794,95.794,0,0,1,49.6,55.374c-1.518-.55-2.957-1.069-4.169-1.462-4.908-1.591-9.334.377-13.019,2.516L18.121,64.7l-1.045-1.847a4.5,4.5,0,0,0-6.12-1.7L5.575,64.2a4.5,4.5,0,0,0-1.7,6.127L19.688,98.272a4.5,4.5,0,0,0,6.131,1.7L31.2,96.927A4.512,4.512,0,0,0,32.9,90.8l-1.961-3.463,3.292-1.9,24.561,6.583a15.69,15.69,0,0,0,4.07.556,14.235,14.235,0,0,0,7.569-2.2l34.8-21.425C108.381,67,109.386,62.1,107.327,58.663Z" transform="translate(-3.296 -53.333)" fill="#00a89d" fill-rule="evenodd"/>
    </g>
    <path id="Path_196" data-name="Path 196" d="M71.738,50.709a17.443,17.443,0,0,0-2.43-6.887c-2.352-4.074-7.317-8.6-13.28-12.119a47.539,47.539,0,0,0-10.852-4.744,10.4,10.4,0,0,0-3.368-13.252c.962-5.463,2.553-9,5.26-11.725A1.163,1.163,0,1,0,45.417.344a18.694,18.694,0,0,0-4.028,6.163,30.815,30.815,0,0,0-1.735,6.054,10.4,10.4,0,0,0-7.515,0A30.814,30.814,0,0,0,30.4,6.507,18.7,18.7,0,0,0,26.376.344a1.163,1.163,0,1,0-1.651,1.638c2.707,2.728,4.3,6.262,5.26,11.725a10.394,10.394,0,0,0-3.366,13.252A47.537,47.537,0,0,0,15.764,31.7C9.806,35.214,4.845,39.74,2.491,43.812l-.006.01a17.443,17.443,0,0,0-2.43,6.887,8.986,8.986,0,0,0,1.03,5.416,8.051,8.051,0,0,0,7.25,3.862,13.6,13.6,0,0,0,7.4-2.406A21.774,21.774,0,0,0,22.5,50.142l.211-.334A30.792,30.792,0,0,0,24,60.549,15.841,15.841,0,0,0,34.734,71.218v4.916a1.163,1.163,0,1,0,2.326,0V71.218A15.841,15.841,0,0,0,47.8,60.549a30.789,30.789,0,0,0,1.283-10.742l.211.334a21.774,21.774,0,0,0,6.763,7.439,13.6,13.6,0,0,0,7.4,2.406,8.052,8.052,0,0,0,7.25-3.862A8.98,8.98,0,0,0,71.738,50.709ZM27.822,22.259a8.078,8.078,0,0,1,3.954-6.941,1.161,1.161,0,0,0,.136-.08,8.061,8.061,0,0,1,7.969,0,1.165,1.165,0,0,0,.138.081,8.073,8.073,0,0,1,2.832,11.045,32,32,0,0,0-6.955-.812,32,32,0,0,0-6.953.811A8.049,8.049,0,0,1,27.822,22.259ZM46.783,51.592H25.01q-.011-1.808.147-3.784h21.48Q46.795,49.784,46.783,51.592ZM35.9,69.139a14.4,14.4,0,0,1-5.69-3h11.38A14.407,14.407,0,0,1,35.9,69.139Zm-7.744-5.327a15.6,15.6,0,0,1-1.877-3.784H45.518a15.6,15.6,0,0,1-1.877,3.784ZM25.628,57.7a26.987,26.987,0,0,1-.53-3.784H46.7a26.99,26.99,0,0,1-.53,3.784ZM25.44,45.483,27.826,41.7H43.967l2.387,3.784Zm3.853-6.11,2.386-3.784h8.434L42.5,39.373Zm3.853-6.109L35.9,28.9l2.75,4.361ZM8.335,57.662a5.79,5.79,0,0,1-5.236-2.7c-1.406-2.435-.909-5.979,1.4-9.978h0c2.128-3.687,6.9-8.008,12.446-11.278a40.491,40.491,0,0,1,16.792-5.739L20.538,48.9l-.008.012-.355.564a1.168,1.168,0,0,0-.1.186C16.42,55.542,11.656,57.662,8.335,57.662Zm60.36-2.7a5.79,5.79,0,0,1-5.236,2.7c-3.322,0-8.086-2.12-11.745-8a1.164,1.164,0,0,0-.1-.186l-.356-.565-.006-.01-13.2-20.929a40.489,40.489,0,0,1,16.792,5.739C60.4,36.976,65.166,41.3,67.295,44.984,69.6,48.984,70.1,52.527,68.695,54.962Z" transform="matrix(0.695, 0.719, -0.719, 0.695, 762.146, 498.8)" fill="#00a89d"/>
  </g>
</svg>
