<svg xmlns="http://www.w3.org/2000/svg" width="13.959" height="9.841" viewBox="0 0 13.959 9.841">
  <path id="youtube-svgrepo-com_3_" data-name="youtube-svgrepo-com (3)" d="M6.555,12.423V8.273L10.2,10.348ZM14.67,6.967a1.763,1.763,0,0,0-1.222-1.239l-.013,0a40.132,40.132,0,0,0-4.949-.3q-.266,0-.531,0h.027c-.15,0-.326,0-.5,0a41.925,41.925,0,0,0-5.152.317l.2-.02A1.762,1.762,0,0,0,1.3,6.954l0,.012A17.855,17.855,0,0,0,1,10.231c0,.041,0,.082,0,.122v-.007c0,.034,0,.075,0,.116a18.488,18.488,0,0,0,.31,3.378L1.3,13.728a1.763,1.763,0,0,0,1.222,1.239l.013,0a40.132,40.132,0,0,0,4.949.3q.265,0,.531,0H7.983c.15,0,.327,0,.5,0a41.919,41.919,0,0,0,5.152-.317l-.2.02a1.762,1.762,0,0,0,1.231-1.23l0-.012a17.9,17.9,0,0,0,.292-3.265c0-.041,0-.082,0-.122v.006c0-.034,0-.075,0-.116a18.488,18.488,0,0,0-.31-3.378l.018.114Z" transform="translate(-1.004 -5.427)" fill="#fff"/>
</svg>
